<svg width="156" height="156" viewBox="0 0 156 156" fill="none" xmlns="http://www.w3.org/2000/svg">
<path d="M146.063 0H10.1829C7.5298 0.00865798 4.98812 1.06821 3.11364 2.94693C1.23917 4.82566 0.184372 7.37066 0.180058 10.0254V51.29C2.60298 50.7822 4.96049 50.3891 7.31793 50.0778L9.18415 49.8649C10.3792 49.7174 11.6071 49.5864 12.8513 49.4717C14.0955 49.3571 15.4379 49.3243 16.7804 49.2588H18.6467C22.9603 49.1928 27.2738 49.3898 31.5635 49.8485C36.0655 50.3399 40.7804 51.1754 44.9223 51.9125C47.1323 52.2893 49.3424 52.6497 51.4707 52.9446L54.7449 53.3541L58.101 53.5343C59.9165 53.6915 61.744 53.4343 63.4455 52.7816C65.1471 52.1289 66.6783 51.098 67.9236 49.7667C69.1765 48.4577 70.1315 46.8929 70.7231 45.1798C70.982 44.3456 71.1682 43.4907 71.2797 42.6244V42.0673C71.2797 41.7888 71.2797 41.5104 71.2797 41.3466C71.2797 41.1828 71.2797 40.9207 71.2797 40.7077C71.3037 40.4681 71.3037 40.2267 71.2797 39.987C71.0878 38.2604 70.5548 36.5891 69.7117 35.0704C68.8685 33.5518 67.7321 32.2162 66.3683 31.1411C65.1021 30.1335 63.6584 29.3723 62.1119 28.8968C61.3696 28.665 60.608 28.5004 59.8363 28.4053L58.5921 28.3071H57.5444C56.1281 28.3875 54.7319 28.68 53.4025 29.1752C52.201 29.674 51.0678 30.3236 50.03 31.1083C48.362 32.4284 47.0134 34.1083 46.0846 36.0227C45.5033 37.3034 45.1064 38.6601 44.9059 40.0524L44.7749 41.576C44.7605 41.7756 44.7065 41.9704 44.6161 42.1489C44.5257 42.3274 44.4006 42.486 44.2482 42.6156C44.0958 42.7452 43.919 42.8432 43.7284 42.9038C43.5378 42.9643 43.337 42.9863 43.1378 42.9684C42.7513 42.9392 42.3906 42.7638 42.129 42.4776C41.8674 42.1915 41.7246 41.8164 41.7299 41.4286V39.7905C41.8794 38.0503 42.2764 36.3401 42.9086 34.7121C43.9272 32.1996 45.5129 29.9569 47.5416 28.1595C48.816 27.0642 50.231 26.1443 51.749 25.424C53.4671 24.6489 55.2952 24.1459 57.1678 23.9332L58.6412 23.8348H60.0819C61.1853 23.9045 62.2808 24.069 63.3561 24.3263C65.5068 24.8698 67.542 25.7965 69.3643 27.0621C71.3523 28.4737 73.0333 30.2746 74.3053 32.3555C75.5772 34.4364 76.4137 36.754 76.764 39.168C76.8443 39.5893 76.8881 40.0167 76.895 40.4456V41.0027C76.9199 41.4501 76.9199 41.8985 76.895 42.3459V42.8702C76.895 43.3289 76.895 43.8365 76.7476 44.3444V44.8851C76.6494 45.3929 76.5512 45.8187 76.453 46.261L76.322 46.818C75.5662 49.4227 74.2535 51.8319 72.4748 53.8784C70.6771 55.9758 68.4419 57.6533 65.9264 58.7929C63.3466 59.9194 60.5551 60.478 57.7408 60.431H54.3028L50.6521 60.1524C48.262 59.9231 45.9536 59.661 43.6944 59.3662C39.7817 58.842 35.6562 58.3997 30.6958 57.9738C27.1433 57.7281 23.2142 57.597 18.7121 57.5807H16.7476C15.4543 57.5807 14.1774 57.5807 12.9168 57.5807C11.6562 57.5807 10.7558 57.5807 9.64259 57.5807H7.69443C6.05732 57.5807 4.60028 57.5806 3.17599 57.728H2.88133L0.982225 57.8262H0V66.836C0.867667 66.6885 1.73534 66.5249 2.66849 66.3938C7.89087 65.6567 15.7653 64.6082 24.3438 64.1004C32.5185 63.5632 40.7166 63.4811 48.9004 63.8547C57.5974 64.3142 66.2578 65.3098 74.8323 66.836C78.8268 67.5404 82.8704 68.3923 86.7831 69.2114C91.3506 70.1615 96.0819 71.1444 100.633 71.8816C102.81 72.2256 104.922 72.5041 106.92 72.717C108.917 72.93 111.094 73.0774 113.19 73.143C116.841 73.4021 120.501 72.7608 123.847 71.2755C127.098 69.7937 129.953 67.5667 132.183 64.7747C134.413 61.9827 135.954 58.7043 136.682 55.2052C137.359 51.8488 137.286 48.3844 136.468 45.0596C135.65 41.7349 134.107 38.632 131.951 35.9735C129.985 33.5314 127.552 31.5059 124.794 30.0152C122.037 28.5245 119.01 27.5986 115.891 27.2915C110.442 26.7409 104.968 28.0639 100.371 31.0427C96.7867 33.3808 93.8568 36.5945 91.8581 40.3802C90.5648 42.8434 89.6959 45.5072 89.2878 48.2595C89.1282 49.2294 89.0352 50.2092 89.0096 51.1919C89.0096 51.6263 88.8371 52.0429 88.53 52.3501C88.223 52.6573 87.8066 52.83 87.3725 52.83C86.9304 52.8305 86.5051 52.6605 86.185 52.3555C85.8649 52.0504 85.6746 51.6337 85.6535 51.1919V50.3564C85.6388 49.5143 85.6716 48.672 85.7517 47.8336C86.0213 44.6199 86.8293 41.4745 88.1419 38.5291C90.2274 33.8968 93.483 29.8883 97.588 26.8983C103.017 22.9603 109.617 20.9742 116.317 21.263C120.338 21.4246 124.286 22.3941 127.925 24.1136C131.564 25.8331 134.821 28.2675 137.501 31.272C140.536 34.6923 142.774 38.7444 144.053 43.1353C145.333 47.5263 145.622 52.1467 144.9 56.6632C144.113 61.579 142.164 66.2358 139.217 70.2472C136.271 74.2586 132.41 77.509 127.956 79.7283C123.34 82.0112 118.239 83.1357 113.091 83.0046C111.111 83.0046 108.72 83.0044 106.199 82.8406C103.989 82.7096 101.681 82.513 99.3069 82.2509C94.7558 81.7267 90.2701 81.0551 85.9482 80.4162C81.6262 79.7773 77.3533 79.1385 73.1296 78.6471C65.4188 77.6806 57.266 76.8615 48.1801 76.1571C40.2237 75.5674 32.382 75.2889 24.8841 75.338C16.9605 75.338 10.1501 75.5837 3.81449 75.9605L0.638496 76.1407H0.130997V76.4357C0.123052 76.4845 0.123052 76.5342 0.130997 76.583V85.2978H9.1187H10.1992C15.4379 85.1176 21.2169 85.2979 26.6685 85.56C32.4311 85.9368 38.6194 86.3955 44.9714 87.1981L48.2456 87.6241C53.3862 88.2793 58.6903 88.951 64.0437 89.508C70.8868 90.2288 77.5171 90.6383 83.689 90.753C90.22 90.847 96.7488 90.4473 103.22 89.5572C106.232 89.1804 109.768 88.7543 113.255 88.6069C114.434 88.6069 115.596 88.6069 116.742 88.6069H118.166C120.068 88.6483 121.953 88.9629 123.765 89.5408C127.173 90.6733 130.169 92.7925 132.372 95.63C134.575 98.4675 135.887 101.896 136.142 105.48C136.359 108.723 135.686 111.963 134.194 114.85C132.798 117.496 130.76 119.749 128.267 121.403C125.963 122.937 123.324 123.897 120.573 124.204C118.135 124.493 115.664 124.264 113.321 123.532C109.532 122.312 106.271 119.84 104.071 116.521C102.701 114.397 101.812 111.998 101.468 109.493C101.381 108.913 101.332 108.327 101.321 107.74V106.938C101.3 106.733 101.323 106.526 101.386 106.33C101.45 106.134 101.553 105.953 101.69 105.799C101.827 105.645 101.994 105.521 102.182 105.435C102.369 105.349 102.572 105.303 102.778 105.3C103.173 105.295 103.556 105.434 103.856 105.689C104.157 105.945 104.356 106.301 104.415 106.692V107.315C104.433 107.864 104.493 108.412 104.595 108.953C104.956 110.974 105.755 112.892 106.936 114.571C108.776 117.119 111.425 118.967 114.45 119.814C116.297 120.307 118.228 120.402 120.115 120.092C122.159 119.764 124.099 118.962 125.779 117.749C127.655 116.394 129.138 114.566 130.078 112.452C131.018 110.337 131.382 108.01 131.132 105.709C130.847 103.27 129.883 100.959 128.349 99.0419C126.736 97.0481 124.564 95.5821 122.112 94.8319C120.869 94.4939 119.586 94.323 118.297 94.324H116.939C115.825 94.324 114.712 94.324 113.664 94.4878C110.701 94.7007 107.722 95.1268 104.153 95.6838C97.4091 96.8049 90.59 97.4127 83.7544 97.5021C77.4515 97.6004 70.7886 97.4038 63.4379 96.9124C61.2933 96.7977 59.1487 96.6175 57.0205 96.4537L53.5825 96.1915L43.9891 95.1923C41.6317 94.9793 39.2906 94.7009 36.9986 94.4388L34.7722 94.1766L31.4979 93.8653C29.6316 93.6687 27.8145 93.4886 25.9973 93.3576C20.6767 92.8497 15.2742 92.4566 9.95365 92.1945H9.2497C9.16258 92.2027 9.07483 92.2027 8.98771 92.1945H0V101.122H1.63711H1.93178H3.40521C5.74628 100.959 8.31653 100.614 11.7872 100.041L21.3806 98.272C23.2497 97.9385 25.135 97.7033 27.0287 97.5675H27.9782H29.1241H29.8772C31.0644 97.6413 32.2424 97.8224 33.397 98.1082C37.8068 99.2339 41.6789 101.879 44.3329 105.578C45.6241 107.392 46.5933 109.414 47.1979 111.557L47.558 113.195L47.7708 114.932C47.7708 115.341 47.7708 115.669 47.7708 115.98V116.98V117.389C47.7867 117.291 47.7867 117.192 47.7708 117.094V118.126C47.4331 122.369 45.6267 126.36 42.663 129.413C39.9562 132.238 36.3947 134.092 32.5293 134.688C31.6426 134.838 30.7436 134.904 29.8444 134.884C29.2152 134.908 28.5852 134.875 27.9618 134.786H27.3397C25.6924 134.55 24.0844 134.093 22.5594 133.426C19.972 132.249 17.6999 130.475 15.929 128.25C14.5819 126.544 13.5809 124.591 12.9823 122.5C12.6014 121.183 12.3816 119.824 12.3275 118.454V117.111C12.3231 116.709 12.477 116.322 12.7559 116.034C13.0349 115.746 13.4163 115.579 13.8172 115.571C14.1967 115.569 14.5632 115.709 14.8449 115.964C15.1265 116.218 15.303 116.569 15.3397 116.947L15.4707 118.257C15.6083 119.34 15.8776 120.402 16.2729 121.419C16.88 123.008 17.7796 124.47 18.925 125.727C20.3924 127.321 22.2155 128.544 24.2456 129.298C26.6126 130.152 29.1745 130.312 31.6289 129.757C34.2942 129.151 36.6971 127.711 38.4884 125.645C40.3785 123.487 41.4505 120.733 41.517 117.864V117.258V116.341C41.517 116.095 41.517 115.866 41.517 115.669L41.0095 113.572C40.5464 112.239 39.8538 110.997 38.9632 109.903C37.2002 107.725 34.7133 106.254 31.9564 105.758C31.3005 105.661 30.6384 105.612 29.9754 105.611H29.5662H28.4202H27.7162C26.2592 105.824 24.5566 106.069 22.9195 106.381C19.6453 106.938 16.2238 107.527 12.9168 107.789C9.81697 108.111 6.69589 108.177 3.58527 107.986C2.48841 107.986 1.37518 107.839 0.11461 107.675V145.991C0.123093 148.632 1.17071 151.163 3.03061 153.036C4.89051 154.909 7.41301 155.974 10.0519 156H146.063C148.69 155.974 151.203 154.919 153.061 153.059C154.919 151.2 155.974 148.686 156 146.057V9.95982C155.979 7.32772 154.925 4.8093 153.067 2.94653C151.208 1.08377 148.693 0.0256771 146.063 0Z" fill="#00B1B0"/>
</svg>
