<svg width="348" height="272" viewBox="0 0 348 272" fill="none" xmlns="http://www.w3.org/2000/svg">
<g clip-path="url(#clip0_576_110)">
<path d="M0 170.24H21.5422H22.2071H23.8693C36.6351 170.871 49.5671 171.8 62.3328 173.027C66.6546 173.359 71.0428 173.79 75.6305 174.255L83.3099 174.985L88.629 175.615C94.1475 176.246 99.7658 176.909 105.251 177.407L128.256 179.796L136.534 180.426C141.62 180.824 146.74 181.256 151.893 181.521C169.512 182.715 185.469 183.18 200.595 182.948C216.972 182.721 233.309 181.257 249.464 178.568C258.041 177.241 265.189 176.246 272.303 175.748C274.83 175.482 277.522 175.416 280.182 175.317H283.506C286.595 175.313 289.67 175.726 292.648 176.544C298.51 178.297 303.709 181.764 307.575 186.498C311.257 191.071 313.563 196.594 314.224 202.424C315.133 210.464 312.89 218.544 307.963 224.97C303.036 231.397 295.809 235.67 287.795 236.896C283.275 237.63 278.651 237.392 274.231 236.2C266.974 234.217 260.615 229.814 256.213 223.724C253.38 219.696 251.463 215.099 250.594 210.254C250.338 209.008 250.193 207.743 250.162 206.471V204.978C250.029 204.072 249.579 203.242 248.891 202.634C248.204 202.027 247.323 201.682 246.406 201.661C245.45 201.695 244.548 202.105 243.894 202.801C243.24 203.497 242.888 204.423 242.915 205.377V207.334C242.933 208.735 243.056 210.132 243.281 211.515C244.312 218.434 247.079 224.981 251.322 230.549C255.566 236.117 261.15 240.525 267.556 243.365C273.962 246.204 280.983 247.383 287.967 246.791C294.952 246.2 301.673 243.858 307.509 239.982C313.742 235.819 318.768 230.093 322.082 223.378C325.396 216.663 326.883 209.196 326.391 201.727C325.778 193.154 322.629 184.955 317.345 178.169C312.06 171.383 304.877 166.314 296.704 163.604C292.402 162.228 287.923 161.479 283.406 161.381H280.082C277.323 161.381 274.564 161.381 271.738 161.581C263.294 161.945 254.883 162.941 247.669 163.837C232.163 165.99 216.514 166.944 200.861 166.69C185.935 166.458 170.044 165.463 153.655 163.737C140.789 162.41 128.09 160.784 115.789 159.225L107.744 158.196C92.5518 156.106 77.8246 154.878 63.8953 154.082C50.8303 153.518 36.9675 153.054 24.4012 153.452H22.1074H21.8082H0.265909L0 170.24Z" fill="#25262A" fill-opacity="0.9"/>
<path d="M6.91483 87.1935H7.61293C10.9374 86.9945 14.5942 86.7953 18.4173 86.8285H23.1047C25.6535 86.8285 28.2465 86.7622 30.8839 86.6295C33.8758 86.6295 36.9343 86.6295 40.0593 86.6295H44.7467C55.5511 86.6295 64.9591 86.9613 73.4696 87.5917C85.3378 88.587 95.2446 89.6488 104.653 90.9096C110.071 91.6063 115.59 92.2699 121.275 92.8008L130.018 93.4643H138.263C144.935 93.6097 151.563 92.3433 157.71 89.7483C163.75 87.0722 169.128 83.1085 173.468 78.1357C177.737 73.2326 180.88 67.4573 182.677 61.2145L183.009 59.8873C183.242 58.8588 183.508 57.8302 183.707 56.5695L183.874 55.2755C184.056 54.1103 184.178 52.9364 184.239 51.7586V50.4978C184.239 49.6019 184.239 48.7061 184.239 47.1799V45.8195C184.205 44.7952 184.094 43.7748 183.907 42.7671C182.707 34.3282 179.005 26.4408 173.275 20.1198C167.546 13.7989 160.053 9.33362 151.76 7.29888C149.229 6.67324 146.648 6.27356 144.047 6.10449H140.723L137.165 6.33677C132.689 6.85821 128.317 8.05516 124.2 9.88683C120.597 11.6506 117.244 13.8818 114.227 16.5226C109.376 20.8276 105.577 26.1848 103.123 32.183C101.591 36.0824 100.639 40.1849 100.298 44.3597V48.3412C100.249 49.3003 100.584 50.2393 101.23 50.9518C101.875 51.6642 102.777 52.0917 103.738 52.1401C104.7 52.1885 105.641 51.8539 106.354 51.2099C107.068 50.5659 107.496 49.6652 107.545 48.7061L107.844 45.0233C108.338 41.7081 109.3 38.4796 110.703 35.4346C112.894 30.813 116.125 26.7592 120.144 23.5897C122.632 21.7189 125.346 20.1694 128.223 18.9779C131.422 17.7827 134.785 17.078 138.196 16.8876H140.723L143.715 17.1199C145.562 17.3487 147.386 17.7371 149.167 18.2811C152.876 19.4198 156.338 21.2431 159.373 23.6561C162.618 26.242 165.317 29.4442 167.314 33.0776C169.311 36.711 170.567 40.7034 171.008 44.8241C171.058 45.3981 171.058 45.9755 171.008 46.5495C171.008 47.014 171.008 47.5116 171.008 48.0757C171.008 48.6397 171.008 49.1374 171.008 49.8009V51.095C170.737 53.1745 170.292 55.2277 169.678 57.2331C168.278 61.3278 166.01 65.0735 163.029 68.2153C160.031 71.3776 156.36 73.8273 152.286 75.3836C148.212 76.9399 143.84 77.5629 139.493 77.2067L131.447 76.7422L123.668 75.8132C118.449 75.0833 113.13 74.2206 107.844 73.2916C97.8709 71.5331 86.6011 69.5424 75.7968 68.4143C65.5092 67.2875 55.1614 66.7999 44.8132 66.9544L40.3585 67.1867C37.034 67.1867 34.0421 67.4521 30.9504 67.6844C27.8587 67.9166 25.033 68.2816 22.1407 68.6134L17.6859 69.111C12.0012 69.841 6.38292 70.8032 0.565186 72.0308V87.5917H2.92549L6.91483 87.1935Z" fill="#25262A" fill-opacity="0.9"/>
<path d="M8.84303 131.023C23.8362 130.161 40.3585 129.663 59.3077 129.563C77.326 129.563 96.109 130.127 115.191 131.521C136.966 133.213 156.514 135.171 175.031 137.493C185.004 138.654 195.143 140.147 205.748 141.707C216.353 143.266 226.892 144.859 237.796 146.12C243.447 146.75 249.032 147.214 254.418 147.48C260.435 147.812 266.186 147.944 271.04 147.878C283.392 148.125 295.62 145.382 306.677 139.882C317.356 134.566 326.614 126.79 333.684 117.195C340.754 107.6 345.433 96.4634 347.335 84.7056C349.049 73.9047 348.346 62.8591 345.277 52.3613C342.208 41.8636 336.848 32.1741 329.583 23.9883C317.749 10.7516 301.42 2.36109 283.749 0.437008C266.079 -1.48707 248.322 3.19186 233.906 13.5702C225.817 19.3661 219.078 26.8372 214.149 35.4725C209.221 44.1079 206.219 53.7037 205.349 63.6038C205.15 66.2581 205.083 68.3484 205.117 69.6424V71.6664C205.117 72.7575 205.551 73.8039 206.324 74.5755C207.097 75.347 208.146 75.7805 209.239 75.7805C210.332 75.7805 211.381 75.347 212.154 74.5755C212.927 73.8039 213.361 72.7575 213.361 71.6664C213.644 62.6675 215.914 53.8419 220.01 45.82C224.816 36.7762 231.838 29.0942 240.422 23.4907C251.447 16.3838 264.563 13.2252 277.622 14.5324C285.098 15.2623 292.352 17.472 298.962 21.0325C305.572 24.593 311.405 29.4329 316.119 35.2692C321.289 41.6262 324.989 49.0442 326.955 56.9935C328.92 64.9428 329.102 73.2272 327.488 81.255C325.744 89.6231 322.047 97.463 316.698 104.138C311.35 110.814 304.5 116.137 296.704 119.676C288.694 123.248 279.923 124.786 271.173 124.155C266.12 123.989 261.499 123.691 256.146 123.16C251.326 122.629 246.173 121.965 241.087 121.136C230.149 119.377 218.813 117.022 207.843 114.732C198.468 112.775 188.76 110.784 179.186 109.092C158.622 105.426 137.848 103.043 116.986 101.959C97.4436 101.05 77.8651 101.238 58.3436 102.523C37.8319 103.75 18.8827 106.239 6.3829 107.997L-0.0332031 109.059V131.587H1.19682L8.84303 131.023Z" fill="#25262A" fill-opacity="0.9"/>
<path d="M114.726 229.465C114.737 229.377 114.737 229.287 114.726 229.199V229.465Z" fill="#25262A" fill-opacity="0.9"/>
<path d="M114.759 229.133V226.777C114.805 225.926 114.805 225.074 114.759 224.223L114.194 220.108L113.329 216.359C111.903 211.229 109.585 206.389 106.481 202.059C102.486 196.509 97.3064 191.913 91.3161 188.603C85.3259 185.292 78.6742 183.35 71.8407 182.915H70.0123H67.2862H65.0257C60.4783 183.229 55.9507 183.783 51.462 184.574L28.4903 188.821C20.3454 190.181 13.9626 190.977 8.37757 191.376C7.24727 191.376 5.98397 191.376 4.82042 191.376H4.12232C2.8258 191.376 1.629 191.376 0.16626 191.575V207.036C3.19148 207.467 5.85105 207.7 8.51058 207.832C15.9595 208.254 23.4303 208.076 30.8507 207.301C38.796 206.704 46.9408 205.311 54.853 203.984C58.7758 203.254 62.8315 202.656 66.3554 202.159H68.0176L70.7768 201.96H71.741C73.3323 201.968 74.9209 202.09 76.4949 202.325C83.1131 203.507 89.0777 207.043 93.2832 212.278C95.4243 214.895 97.0794 217.873 98.1701 221.071L99.4334 226.114C99.4721 226.633 99.4721 227.154 99.4334 227.673L99.5996 229.896V231.323C99.4313 238.181 96.8679 244.764 92.3524 249.936C88.0892 254.942 82.3155 258.434 75.8965 259.89C70.0198 261.22 63.8851 260.852 58.2106 258.828C53.8605 257.232 49.9037 254.724 46.6064 251.473C43.3091 248.222 40.7479 244.304 39.0952 239.983C38.1554 237.544 37.4973 235.006 37.1338 232.418L36.8679 229.1C36.815 228.141 36.3824 227.242 35.6654 226.601C34.9485 225.96 34.0058 225.63 33.0448 225.682C32.0838 225.735 31.1831 226.167 30.5409 226.883C29.8988 227.598 29.5677 228.539 29.6206 229.498V232.816C29.7541 236.098 30.2899 239.352 31.2163 242.504C32.6366 247.501 35.0316 252.169 38.2641 256.24C42.5096 261.558 47.9545 265.798 54.1548 268.616C57.8105 270.233 61.6686 271.349 65.624 271.934L67.1201 272.1C68.6065 272.307 70.108 272.384 71.6079 272.332C73.7671 272.362 75.9249 272.207 78.0573 271.867C87.3137 270.436 95.8414 266.006 102.326 259.259C109.444 251.973 113.784 242.43 114.593 232.285L114.759 230.062C114.773 230.206 114.773 230.35 114.759 230.493V229.133Z" fill="#25262A" fill-opacity="0.9"/>
</g>
<defs>
<clipPath id="clip0_576_110">
<rect width="348" height="272" fill="white"/>
</clipPath>
</defs>
</svg>
