<svg width="196" height="196" viewBox="0 0 196 196" fill="none" xmlns="http://www.w3.org/2000/svg">
<path d="M0 135.277V196H196V0H0V64.4382C3.0612 63.7981 6.01105 63.2972 8.97484 62.9076L11.3264 62.6432C12.8292 62.4762 14.3876 62.2953 15.946 62.1562C17.5601 62.0309 19.202 61.9613 20.8857 61.8779L23.2233 61.7666C28.2604 61.6692 33.5618 61.9196 39.4616 62.518C45.1387 63.1163 51.0524 64.1738 56.2703 65.0922C59.0532 65.5792 61.8222 66.0244 64.5773 66.4001L68.6543 66.901L72.8704 67.1376C77.5039 67.5272 82.0957 65.7461 85.2125 62.4066C86.7988 60.7369 88.0094 58.7471 88.719 56.6321C89.0947 55.3798 89.3034 54.4197 89.4286 53.4178L89.4704 52.736C89.4982 52.3882 89.54 52.0403 89.5261 51.8316C89.5121 51.5394 89.4982 51.2889 89.4982 51.0385C89.4982 50.7324 89.4982 50.4262 89.4565 50.134C89.039 45.8344 86.771 41.7157 83.3619 39.0163C81.7896 37.764 79.9389 36.79 78.0048 36.1917C77.0865 35.8994 76.2237 35.7325 75.1523 35.5794L73.58 35.4542L72.2581 35.482C70.5188 35.5794 68.7516 35.9551 67.068 36.5813C65.6348 37.1518 64.2016 37.9727 62.8241 39.0024C60.1247 41.1592 58.6358 43.5803 57.8705 45.2222C56.8965 47.2816 56.5765 49.0904 56.3816 50.2731L56.2286 52.2073C56.1451 53.237 55.2128 54.044 54.1831 53.9466C53.1952 53.877 52.416 53.0282 52.4299 52.0125L52.4856 49.9253C52.6386 48.4503 52.8891 46.2101 53.9605 43.5246C54.8093 41.3957 56.5069 38.251 59.7907 35.3011C61.4883 33.868 63.2554 32.727 65.0782 31.8643C67.2767 30.8902 69.5448 30.2641 71.8824 29.9997L73.747 29.8606L75.5698 29.8884C77.2256 30.0136 78.5196 30.2084 79.6189 30.5006C82.2766 31.1546 84.8925 32.3373 87.1745 33.9375C92.1281 37.3466 95.6206 43.0376 96.4833 49.1461C96.5807 49.6053 96.6225 50.1757 96.6503 50.7462L96.692 51.4559C96.7338 52.1934 96.7199 52.6665 96.706 53.1257L96.692 53.7935C96.6781 54.364 96.5946 55.0041 96.5111 55.6442L96.4277 56.312C96.3163 56.9521 96.1911 57.4948 96.052 58.0375L95.885 58.7332C94.9527 62.017 93.283 65.0504 91.0566 67.6246C88.7607 70.2544 85.9083 72.3694 82.7914 73.7191C79.7163 75.0688 76.0846 75.7506 72.606 75.6672L68.2785 75.5837L63.6868 75.2358C60.6812 74.9436 57.787 74.6097 54.9485 74.234C50.0227 73.58 44.8326 73.0373 38.5989 72.4947C34.1323 72.1746 29.1926 72.0216 23.5294 71.9937H21.0666C19.4247 72.0077 17.8245 72.0076 16.2522 71.9659C14.8746 71.9659 13.511 72.0076 12.1891 72.0633C11.3542 72.0911 10.5472 72.119 9.72624 72.1329C7.72255 72.119 5.84406 72.2303 4.04909 72.3277L3.67341 72.3555C2.86637 72.4112 2.07324 72.439 1.28011 72.4808C0.862677 72.4947 0.445263 72.5086 0.0417419 72.5364V83.8489L0.0834838 83.835C1.18273 83.6402 2.26803 83.4593 3.43685 83.2784C9.99059 82.3461 19.9395 81.0382 30.6815 80.3981C41.9523 79.7163 52.0125 79.605 61.4465 80.092C73.3017 80.7738 83.9742 81.9983 94.0483 83.8489C99.0714 84.7394 104.164 85.797 109.076 86.8127C114.823 88.0094 120.75 89.2478 126.497 90.1661C129.21 90.5975 131.868 90.9593 134.386 91.2236C137.197 91.5158 139.632 91.6828 142.276 91.7523C147.063 92.0446 151.418 91.2793 155.662 89.4008C163.788 85.8387 170.119 77.9074 171.803 69.2108C173.57 60.8482 171.274 51.595 165.833 45.0552C160.921 38.8911 153.38 34.828 145.643 34.1462C138.756 33.4644 131.84 35.1342 126.135 38.8633C120.5 42.5089 117.202 47.2537 115.435 50.5932C113.821 53.6683 112.763 56.9104 112.207 60.4864C111.873 62.7962 111.859 64.146 111.859 64.1599C111.859 65.3426 110.885 66.3166 109.702 66.3166C108.519 66.3166 107.559 65.3565 107.545 64.1738V63.1163C107.531 62.4484 107.559 61.3491 107.671 59.9438C108.046 55.7694 109.034 51.9568 110.676 48.2556C112.471 44.2204 115.991 38.4041 122.559 33.6453C129.113 28.7752 137.67 26.1871 146.089 26.5628C156.135 26.8829 165.847 31.4607 172.735 39.1415C180.346 47.4624 183.922 59.6933 182.044 71.0476C180.207 83.3341 172.039 94.4518 160.727 100.032C155.133 102.884 148.468 104.387 142.039 104.234C139.563 104.262 136.557 104.206 133.385 104.025C130.602 103.872 127.694 103.635 124.716 103.301C118.983 102.634 113.362 101.799 107.907 100.992C102.355 100.171 97.0955 99.3775 91.7941 98.7792C82.1096 97.5547 71.8546 96.525 60.4308 95.6345C50.4262 94.911 40.5608 94.5631 31.1268 94.6188C21.1779 94.6744 12.5092 94.9249 4.64745 95.398C3.25599 95.4676 1.94799 95.551 0.653942 95.6345L0 95.6763V107.851C3.50646 107.573 7.87559 107.281 12.6622 107.211C19.2577 106.989 26.5211 107.239 33.3809 107.545C40.6304 108.018 48.4086 108.603 56.3816 109.702L60.5977 110.231C67.0541 111.052 73.7191 111.915 80.4677 112.61C89.0669 113.515 97.3878 114.043 105.222 114.169C113.014 114.322 121.042 113.835 129.767 112.666C133.566 112.193 137.963 111.664 142.387 111.469C143.876 111.372 145.323 111.372 146.77 111.358L148.565 111.344C151.056 111.414 153.324 111.789 155.592 112.513C164.303 115.365 170.703 123.603 171.163 132.55C171.413 136.682 170.55 140.871 168.7 144.321C167.086 147.536 164.511 150.43 161.255 152.642C158.347 154.576 155.105 155.759 151.585 156.177C148.538 156.538 145.295 156.232 142.471 155.314C136.112 153.31 132.452 148.941 130.852 146.52C129.085 143.751 127.986 140.787 127.568 137.684C127.415 136.78 127.401 136.028 127.387 135.486L127.36 134.47C127.332 133.426 128.153 132.55 129.196 132.508C130.101 132.508 131.075 133.246 131.158 134.275L131.214 135.054C131.256 135.736 131.297 136.335 131.451 137.044C131.757 138.811 132.522 141.413 134.4 144.113C135.75 145.963 138.783 149.331 143.848 150.68C146.214 151.307 148.538 151.418 150.973 151.042C153.547 150.625 156.079 149.581 158.097 148.106C162.87 144.683 165.499 138.742 164.818 132.967C164.47 129.92 163.19 126.859 161.311 124.591C159.335 122.128 156.566 120.263 153.477 119.317C151.988 118.886 150.333 118.663 148.691 118.663L146.979 118.719C145.574 118.76 144.168 118.802 142.846 118.941C139.117 119.206 135.374 119.734 130.88 120.43C121.961 121.877 113.334 122.657 105.249 122.726C97.3182 122.851 88.9556 122.601 79.7024 121.975C77.003 121.822 74.3175 121.613 71.632 121.39C70.1848 121.265 68.7377 121.154 67.2906 121.056L55.2406 119.804C52.2769 119.54 49.3409 119.192 46.4467 118.858L43.6499 118.538C42.3141 118.413 40.9643 118.273 39.6285 118.148C37.2909 117.912 34.995 117.675 32.727 117.508C26.0201 116.868 19.2438 116.367 12.5509 116.033C8.20956 115.825 4.10477 115.685 0.0278138 115.63V127.193C1.60016 127.165 2.97769 127.095 4.3274 126.984C7.26336 126.775 10.6167 126.358 14.8746 125.634L26.9385 123.408C29.304 123.018 31.4468 122.684 34.0488 122.531C34.4662 122.503 34.8559 122.49 35.2315 122.49L36.6647 122.462C37.1796 122.476 37.4022 122.49 37.6249 122.517C39.392 122.615 40.8391 122.921 42.0497 123.199C47.532 124.577 52.5273 128 55.7833 132.578C57.4252 134.86 58.6358 137.392 59.3872 140.091L59.8464 142.053L60.1385 144.224C60.1942 144.739 60.1942 145.142 60.2081 145.56L60.236 146.798L60.1803 147.327C60.236 147.146 60.236 146.993 60.236 146.951L60.1385 148.259C59.7211 153.561 57.3835 158.723 53.71 162.438C50.301 165.986 45.7788 168.352 40.9783 169.061C39.5868 169.256 38.5293 169.354 37.597 169.312C36.8456 169.368 36.0386 169.27 35.2315 169.187L34.4523 169.103C32.2399 168.755 30.2641 168.185 28.4413 167.378C24.3643 165.541 21.6649 162.828 20.1065 160.88C18.4089 158.737 17.1148 156.246 16.4052 153.672C15.9321 152.016 15.6399 150.291 15.5703 148.593L15.5564 146.882C15.5425 145.838 16.3913 144.989 17.4349 144.962C18.4367 144.962 19.2577 145.699 19.3551 146.673L19.5082 148.329C19.689 149.637 20.023 150.959 20.5239 152.295C21.2753 154.27 22.4163 156.149 23.8495 157.693C25.1435 159.099 27.3698 161.033 30.5424 162.188C33.5201 163.259 36.7343 163.454 39.8234 162.758C43.2324 161.965 46.3075 160.128 48.4503 157.596C50.8158 154.924 52.1934 151.362 52.263 147.814L52.2768 147.077L52.1934 145.908C52.1794 145.616 52.1655 145.309 52.1099 145.073L51.4559 142.415C50.8854 140.773 50.0227 139.201 48.8817 137.809C46.5997 135.027 43.3994 133.134 40.0738 132.619C39.2389 132.508 38.3762 132.411 37.5831 132.425C37.4022 132.425 37.2353 132.411 37.0822 132.397V132.411L35.6351 132.508C35.329 132.536 35.0229 132.55 34.7724 132.578C32.9218 132.842 30.7928 133.162 28.7474 133.538C24.6008 134.247 20.3291 134.971 16.1547 135.305C11.8969 135.708 7.94516 135.806 4.43869 135.569C2.99158 135.625 1.60017 135.5 0 135.277Z" fill="#00B1B0"/>
</svg>
