<svg width="156" height="156" viewBox="0 0 156 156" fill="none" xmlns="http://www.w3.org/2000/svg">
<path d="M145.991 0H10.0254C7.36916 0.00863827 4.82419 1.06767 2.94593 2.94593C1.06767 4.82419 0.00863827 7.36916 0 10.0254V145.991C0.00853682 148.634 1.05909 151.168 2.92369 153.042C4.78828 154.915 7.3165 155.978 9.95987 156H146.04C148.672 155.979 151.191 154.925 153.053 153.065C154.916 151.205 155.974 148.688 156 146.056V9.95982C155.974 7.31778 154.91 4.79202 153.037 2.92833C151.164 1.06465 148.633 0.0127837 145.991 0ZM48.0794 98.5831C47.9824 101.825 47.6484 105.055 47.0801 108.248L46.9982 108.707C46.2938 111.721 45.5567 114.572 44.7376 117.143C43.9185 119.715 42.8046 122.156 41.92 124.236C41.0354 126.317 37.3824 125.662 37.5953 123.516C37.8083 121.37 37.8738 119.06 38.1523 116.537C38.1604 116.423 38.1604 116.308 38.1523 116.193L38.3325 108.166V107.806C38.1195 104.906 38.3324 101.876 37.8082 98.7471C37.5953 97.109 37.5789 95.4708 37.3004 93.8327C37.0219 92.1945 36.7762 90.5564 36.5469 88.9183C35.908 85.5273 35.2528 82.0872 34.6139 78.6471C33.975 75.207 33.2542 71.6357 32.8447 68.0482C32.5808 66.2889 32.4059 64.5175 32.3205 62.7406C32.1683 60.9922 32.1136 59.2368 32.1567 57.4823C32.1567 55.8441 32.3041 54.206 32.3697 52.5678C32.3615 52.4369 32.3615 52.3056 32.3697 52.1747C32.5662 50.5366 32.8119 49.0295 33.0576 47.5224C33.5917 44.5617 34.3585 41.6475 35.351 38.8074C36.2281 36.3801 37.2342 34.0015 38.3652 31.6816C38.5937 31.2445 38.9589 30.8943 39.4051 30.6841C39.8512 30.4739 40.3539 30.4153 40.8364 30.5173C41.3189 30.6194 41.7547 30.8766 42.0776 31.2494C42.4004 31.6223 42.5924 32.0905 42.6244 32.5826C42.4442 34.7286 42.0838 37.071 41.8708 39.6429C41.8708 40.937 41.8709 42.2802 41.7398 43.6727L41.6415 45.5894C41.6257 45.7199 41.6257 45.8519 41.6415 45.9825C41.6415 46.6377 41.6415 47.2931 41.7234 47.9648C41.7234 49.3736 41.8053 50.8314 41.8544 52.3057C41.8467 52.4093 41.8467 52.5134 41.8544 52.617C42.0019 54.0914 42.1657 55.5985 42.3131 57.1383C42.739 60.3163 43.2305 63.5762 43.9513 66.9672C44.672 70.3581 45.3273 73.8472 46.0153 77.3037C46.7034 80.7602 47.2767 84.4133 47.6535 87.9844C48.0556 91.5021 48.1979 95.0445 48.0794 98.5831ZM73.3231 98.5831C73.2128 101.825 72.8734 105.054 72.3075 108.248L72.2256 108.707C71.5376 111.721 70.784 114.572 69.9813 117.143C69.1786 119.715 68.0483 122.156 67.1637 124.236C66.2791 126.317 62.6261 125.662 62.839 123.516C63.052 121.37 63.1175 119.06 63.396 116.537C63.4042 116.423 63.4042 116.308 63.396 116.193L63.5762 108.166V107.806C63.3632 104.906 63.5762 101.876 63.052 98.7471C62.839 97.109 62.8062 95.4708 62.5278 93.8327C62.2493 92.1945 62.02 90.5564 61.7906 88.9183C61.1518 85.5273 60.4965 82.0872 59.8412 78.6471C59.186 75.207 58.4816 71.6357 58.0884 68.0482C57.8165 66.2899 57.6415 64.5181 57.5642 62.7406C57.4148 60.992 57.3546 59.237 57.384 57.4823C57.384 55.8441 57.5315 54.206 57.597 52.5678C57.597 52.4368 57.597 52.3058 57.597 52.1747C57.81 50.5366 58.0557 49.0295 58.3014 47.5224C58.8354 44.5617 59.6023 41.6475 60.5948 38.8074C61.4648 36.3774 62.4711 33.9983 63.6089 31.6816C63.841 31.252 64.206 30.9092 64.6491 30.7043C65.0923 30.4994 65.5898 30.4435 66.0674 30.5449C66.545 30.6464 66.9769 30.8997 67.2985 31.267C67.6201 31.6343 67.8142 32.0959 67.8517 32.5826C67.6879 34.7286 67.3112 37.071 67.1146 39.6429C67.1146 40.9316 67.0654 42.2748 66.9672 43.6727C66.9672 44.3115 66.9672 44.9341 66.8689 45.5894V45.9825C66.8689 46.6377 66.8689 47.2931 66.8689 47.9648C66.8689 49.3736 66.9671 50.8314 66.9999 52.3057C66.9999 52.404 66.9999 52.5024 66.9999 52.617C67.1473 54.0914 67.2948 55.5985 67.4586 57.1383C67.8845 60.3163 68.3596 63.5762 69.0967 66.9672C69.8339 70.3581 70.4728 73.8472 71.1608 77.3037C71.8488 80.7602 72.4222 84.4133 72.7989 87.9844C73.2258 91.5003 73.401 95.0422 73.3231 98.5831ZM98.5668 98.5831C98.4565 101.825 98.1171 105.054 97.5512 108.248L97.4693 108.707C96.7813 111.721 96.0277 114.572 95.2087 117.143C94.3896 119.715 93.2757 122.156 92.4075 124.236C91.5392 126.317 87.8698 125.662 88.0664 123.516C88.263 121.37 88.3448 119.06 88.6397 116.537C88.6397 116.423 88.6397 116.308 88.6397 116.193L88.8199 108.166V107.806C88.607 104.906 88.8199 101.876 88.3121 98.7471C88.0992 97.109 88.0664 95.4708 87.7879 93.8327C87.5094 92.1945 87.2637 90.5564 87.0507 88.9183C86.4118 85.5273 85.7566 82.0872 85.1014 78.6471C84.4461 75.207 83.7417 71.6357 83.3485 68.0482C83.0685 66.291 82.8935 64.5187 82.8243 62.7406C82.6667 60.9925 82.6066 59.2371 82.6442 57.4823C82.7261 55.8441 82.7916 54.206 82.8571 52.5678C82.849 52.4369 82.849 52.3056 82.8571 52.1747C83.0537 50.5366 83.2994 49.0295 83.5615 47.5224C84.0956 44.5617 84.8624 41.6475 85.8549 38.8074C86.7249 36.3774 87.7312 33.9983 88.8691 31.6816C89.1012 31.252 89.4661 30.9092 89.9092 30.7043C90.3523 30.4994 90.8499 30.4435 91.3275 30.5449C91.805 30.6464 92.2369 30.8997 92.5586 31.267C92.8802 31.6343 93.0743 32.0959 93.1118 32.5826C92.948 34.7286 92.5712 37.071 92.3747 39.6429C92.3747 40.9316 92.3255 42.2748 92.2272 43.6727L92.129 45.5894V45.9825C92.129 46.6377 92.129 47.2931 92.2109 47.9648C92.2109 49.3736 92.2928 50.8314 92.3419 52.3057C92.3419 52.404 92.3419 52.5024 92.3419 52.617C92.5057 54.0914 92.6532 55.5985 92.817 57.1383C93.2429 60.3163 93.718 63.5762 94.4551 66.9672C95.1923 70.3581 95.8312 73.8472 96.5356 77.3037C97.24 80.7602 97.7805 84.4133 98.1737 87.9844C98.5568 91.5035 98.6882 95.0454 98.5668 98.5831ZM123.794 98.5831C123.697 101.825 123.363 105.055 122.795 108.248V108.707C122.091 111.721 121.353 114.572 120.534 117.143C119.715 119.715 118.601 122.156 117.717 124.236C116.832 126.317 113.195 125.662 113.392 123.516C113.589 121.37 113.671 119.06 113.949 116.537C113.957 116.423 113.957 116.308 113.949 116.193L114.129 108.166V107.806C113.916 104.906 114.129 101.876 113.605 98.7471C113.392 97.109 113.376 95.4708 113.097 93.8327C112.819 92.1945 112.573 90.5564 112.344 88.9183C111.705 85.5273 111.049 82.0872 110.411 78.6471C109.772 75.207 109.051 71.6357 108.641 68.0482C108.378 66.2889 108.203 64.5175 108.117 62.7406C107.965 60.9922 107.91 59.2368 107.953 57.4823C107.953 55.8441 108.101 54.206 108.166 52.5678C108.158 52.4369 108.158 52.3056 108.166 52.1747C108.363 50.5366 108.609 49.0295 108.854 47.5224C109.388 44.5617 110.155 41.6475 111.148 38.8074C112.025 36.3801 113.031 34.0015 114.162 31.6816C114.39 31.2445 114.756 30.8943 115.202 30.6841C115.648 30.4739 116.151 30.4153 116.633 30.5173C117.116 30.6194 117.551 30.8766 117.874 31.2494C118.197 31.6223 118.389 32.0905 118.421 32.5826C118.241 34.7286 117.881 37.071 117.668 39.6429C117.668 40.937 117.586 42.2802 117.537 43.6727C117.537 44.3115 117.537 44.9341 117.438 45.5894C117.422 45.7199 117.422 45.8519 117.438 45.9825C117.438 46.6377 117.438 47.2931 117.52 47.9648C117.52 49.3736 117.52 50.8314 117.651 52.3057C117.643 52.4093 117.643 52.5134 117.651 52.617C117.799 54.0914 117.962 55.5985 118.11 57.1383C118.536 60.3163 119.027 63.5762 119.748 66.9672C120.469 70.3581 121.124 73.8472 121.812 77.3037C122.5 80.7602 123.073 84.4133 123.45 87.9844C123.825 91.5041 123.94 95.0466 123.794 98.5831Z" fill="#EE423E"/>
</svg>
