<svg width="248" height="257" viewBox="0 0 248 257" fill="none" xmlns="http://www.w3.org/2000/svg">
<g clip-path="url(#clip0_576_101)">
<path d="M43.1604 184.204C42.8998 192.97 41.9983 201.706 40.4629 210.342L40.2333 211.591C38.3278 219.742 36.3305 227.446 34.1151 234.404C31.8997 241.363 28.8807 247.955 26.4817 253.584C24.0826 259.213 14.1993 257.436 14.7733 251.635C15.3472 245.834 15.5309 239.586 16.277 232.765C16.2999 232.456 16.2999 232.146 16.277 231.837L16.7591 210.124V209.149C16.1852 201.308 16.7591 193.1 15.3357 184.651C14.7618 180.226 14.7159 175.789 13.9698 171.364C13.2236 166.939 12.5464 162.502 11.9265 158.077C10.1932 148.906 8.42549 139.597 6.69218 130.3C4.95888 121.003 2.98452 111.35 1.89404 101.628C1.18216 96.8708 0.710924 92.0804 0.482136 87.2754C0.0689156 82.5489 -0.0805396 77.8031 0.0344631 73.0601C0.0344631 68.635 0.436222 64.1984 0.608404 59.7733C0.585463 59.4183 0.585463 59.0621 0.608404 58.7071C1.14791 54.2706 1.75628 50.2008 2.47945 46.0967C3.9394 38.1 6.02735 30.2305 8.72393 22.5611C11.0968 15.9961 13.8212 9.56315 16.8854 3.29013C17.3477 2.40756 18.0194 1.6515 18.8417 1.08802C19.6641 0.524542 20.6122 0.170791 21.6031 0.0576943C22.5939 -0.0554021 23.5975 0.075597 24.5259 0.439236C25.4544 0.802875 26.2796 1.38809 26.9293 2.14373C27.8092 3.14629 28.3302 4.41267 28.4101 5.74343C27.928 11.5442 26.9523 17.8838 26.3784 24.8425C26.3784 28.2817 26.3784 31.9731 26.0225 35.7333L25.7585 40.915C25.7126 41.2689 25.7126 41.6272 25.7585 41.9811C25.7232 43.7723 25.796 45.5639 25.9766 47.3463C25.9766 51.1523 26.1947 55.096 26.3324 59.0854C26.3095 59.3639 26.3095 59.6438 26.3324 59.9223C26.7342 63.9118 27.1704 67.9471 27.5722 72.1544C28.72 80.7524 30.0516 89.5682 32.003 98.728C33.9544 107.888 35.7336 117.334 37.5932 126.689C39.4527 136.043 41.0368 145.914 42.0355 155.566C43.1233 165.079 43.507 174.658 43.1834 184.227L43.1604 184.204ZM111.792 183.974C111.491 192.66 110.578 201.314 109.06 209.871L108.842 211.098C106.994 219.123 104.974 226.804 102.827 233.694C100.629 240.153 98.104 246.497 95.2628 252.701C92.8981 258.272 83.0952 256.518 83.6692 250.764C84.2431 245.009 84.4153 238.83 85.1614 232.077C85.1843 231.768 85.1843 231.458 85.1614 231.149L85.6435 209.654V208.588C85.0696 200.815 85.6435 192.675 84.2316 184.272C83.6577 179.882 83.5773 175.479 82.8197 171.089C82.0621 166.698 81.4652 162.296 80.8454 157.894C79.1236 148.791 77.4017 139.551 75.5996 130.38C73.7974 121.209 71.9493 111.568 70.8932 101.938C70.1593 97.2177 69.6879 92.4604 69.4813 87.6881C69.074 82.9765 68.9092 78.2471 68.9878 73.5186C68.9878 69.1164 69.3895 64.7257 69.5617 60.3236V57.5378C70.1127 53.2847 70.7096 49.3754 71.3868 45.4662C72.7756 37.7774 74.7715 30.2105 77.3558 22.8363C79.6145 16.5247 82.2321 10.347 85.1959 4.33336C85.7964 3.21962 86.7412 2.32944 87.8894 1.79544C89.0376 1.26144 90.3278 1.1122 91.5679 1.36994C92.8079 1.62768 93.9314 2.27861 94.7709 3.22577C95.6105 4.17292 96.1212 5.36561 96.227 6.62616C95.7908 12.1977 94.8151 18.2736 94.31 24.9686C94.31 28.3161 94.1799 31.8049 93.9198 35.4352C93.9603 37.0976 93.8759 38.7608 93.6672 40.4106V47.289C94.3011 51.1735 94.6845 55.0946 94.8151 59.0281V60.805C95.2054 64.7487 95.6072 68.8298 96.0434 72.911C97.1912 81.4288 98.4654 90.1644 100.44 99.2782C102.414 108.392 104.124 117.712 105.973 126.975C107.821 136.238 109.359 146.017 110.369 155.635C111.516 165.055 111.988 174.545 111.781 184.032L111.792 183.974ZM181.067 184.204C180.76 192.974 179.813 201.709 178.232 210.342L178.014 211.591C176.085 219.742 173.985 227.446 171.7 234.404C169.416 241.363 166.305 247.955 163.883 253.584C161.461 259.213 151.256 257.436 151.773 251.635C152.29 245.834 152.542 239.586 153.369 232.765V209.149C152.783 201.308 153.369 193.1 151.957 184.651C151.371 180.226 151.279 175.789 150.499 171.364C149.718 166.939 149.053 162.502 148.456 158.077C146.688 148.906 144.863 139.597 143.049 130.3C141.235 121.003 139.273 111.338 138.182 101.64C137.405 96.8854 136.914 92.0886 136.713 87.2754C136.279 82.5501 136.114 77.804 136.219 73.0601C136.449 68.635 136.632 64.1984 136.805 59.7733C136.782 59.4183 136.782 59.0621 136.805 58.7071C137.356 54.2706 138.033 50.2008 138.768 46.0967C140.25 38.0859 142.376 30.2075 145.127 22.5382C147.546 15.9605 150.34 9.52631 153.495 3.26721C154.141 2.09468 155.153 1.16485 156.376 0.619026C157.612 0.0702571 158.987 -0.0819619 160.313 0.183388C161.642 0.449907 162.85 1.13737 163.757 2.14373C164.65 3.1254 165.191 4.37546 165.295 5.69757C164.836 11.4984 163.791 17.838 163.24 24.7966C163.24 28.2358 163.114 31.9158 162.839 35.6874L162.563 40.8691V41.9353C162.563 41.9353 162.942 45.4777 163.16 47.3004C163.16 51.1065 163.711 59.0396 163.711 59.0396V59.8765C164.17 63.8659 164.583 67.9013 165.043 72.1086C166.19 80.7066 167.556 89.5224 169.634 98.6821C171.712 107.842 173.468 117.288 175.442 126.643C177.417 135.997 178.886 145.868 180.034 155.521C181.103 165.034 181.467 174.614 181.124 184.181L181.067 184.204ZM247.851 184.204C247.589 192.968 246.702 201.703 245.199 210.342V211.591C243.328 219.742 241.377 227.446 239.207 234.404C237.038 241.363 234.088 247.955 231.746 253.584C229.404 259.213 219.762 257.436 220.267 251.635C220.772 245.834 221.002 239.586 221.736 232.765C221.759 232.456 221.759 232.146 221.736 231.837L222.219 210.124V209.149C221.656 201.308 222.219 193.1 220.83 184.651C220.267 180.226 220.221 175.789 219.487 171.364C218.752 166.939 218.098 162.502 217.489 158.077C215.79 148.906 214.046 139.597 212.37 130.3C210.694 121.003 208.765 111.338 207.675 101.64C206.986 96.8861 206.523 92.1018 206.286 87.2869C205.886 82.5596 205.744 77.8142 205.861 73.0715C205.861 68.6464 206.252 64.2098 206.424 59.7847C206.401 59.4297 206.401 59.0736 206.424 58.7186C206.94 54.282 207.572 50.2123 208.249 46.1082C209.661 38.1105 211.691 30.234 214.321 22.5497C216.656 15.9883 219.338 9.55552 222.356 3.27867C222.954 2.10033 223.921 1.15 225.111 0.573169C226.293 0.00676112 227.63 -0.149714 228.911 0.12854C230.192 0.406794 231.343 1.10387 232.182 2.10934C233.042 3.12205 233.553 4.38405 233.64 5.70904C233.158 11.5098 232.205 17.8494 231.643 24.8081C231.643 28.2473 231.425 31.9387 231.287 35.6989C231.328 37.4299 231.244 39.1617 231.034 40.8806C230.988 41.2345 230.988 41.5928 231.034 41.9468C230.999 43.7379 231.072 45.5295 231.252 47.3119C231.252 51.118 231.252 55.0616 231.597 59.051C231.574 59.3295 231.574 59.6094 231.597 59.8879C231.987 63.8774 232.423 67.9127 232.814 72.12C233.961 80.718 235.236 89.5338 237.153 98.6936C239.069 107.853 240.791 117.3 242.616 126.654C244.442 136.009 245.957 145.879 246.955 155.532C247.95 165.051 248.256 174.629 247.874 184.192L247.851 184.204Z" fill="#25282A" fill-opacity="0.9"/>
</g>
<defs>
<clipPath id="clip0_576_101">
<rect width="248" height="257" fill="white"/>
</clipPath>
</defs>
</svg>
