<svg width="196" height="196" viewBox="0 0 196 196" fill="none" xmlns="http://www.w3.org/2000/svg">
<path d="M183.425 0H12.596C9.25869 0.0108532 6.06116 1.34143 3.7013 3.7013C1.34143 6.06116 0.0108532 9.25869 0 12.596V183.425C0.0107258 186.746 1.33065 189.929 3.67335 192.283C6.01605 194.637 9.19253 195.973 12.5137 196H183.486C186.793 195.973 189.958 194.649 192.298 192.313C194.638 189.976 195.968 186.814 196 183.507V12.5136C195.968 9.19413 194.63 6.02075 192.277 3.67919C189.924 1.33763 186.744 0.0160616 183.425 0V0ZM60.4075 123.861C60.2856 127.934 59.8659 131.992 59.1519 136.004L59.0491 136.58C58.164 140.368 57.2379 143.949 56.2088 147.18C55.1797 150.411 53.7801 153.478 52.6687 156.092C51.5573 158.706 46.9676 157.883 47.2351 155.186C47.5027 152.49 47.585 149.588 47.9349 146.419C47.9451 146.275 47.9451 146.13 47.9349 145.986L48.1613 135.901V135.448C47.8937 131.805 48.1613 127.998 47.5027 124.067C47.2351 122.009 47.2145 119.951 46.8646 117.892C46.5147 115.834 46.206 113.776 45.9179 111.718C45.1152 107.457 44.2919 103.135 43.4893 98.813C42.6866 94.4908 41.7809 90.0038 41.2664 85.4964C40.9349 83.2861 40.7151 81.0605 40.6078 78.828C40.4166 76.6312 40.3478 74.4257 40.402 72.2213C40.402 70.1631 40.5872 68.105 40.6696 66.0468C40.6594 65.8823 40.6594 65.7173 40.6696 65.5528C40.9165 63.4947 41.2252 61.6012 41.534 59.7077C42.2049 55.9877 43.1684 52.3264 44.4154 48.7581C45.5173 45.7084 46.7815 42.7198 48.2024 39.805C48.4896 39.2559 48.9484 38.8159 49.509 38.5518C50.0695 38.2878 50.701 38.2141 51.3072 38.3423C51.9134 38.4705 52.4611 38.7937 52.8667 39.2621C53.2723 39.7306 53.5135 40.3188 53.5537 40.9371C53.3273 43.6333 52.8745 46.5764 52.607 49.8077C52.607 51.4337 52.607 53.1213 52.4423 54.8708L52.3188 57.2789C52.299 57.443 52.299 57.6088 52.3188 57.7729C52.3188 58.5961 52.3188 59.4196 52.4217 60.2634C52.4217 62.0335 52.5246 63.865 52.5864 65.7174C52.5767 65.8476 52.5767 65.9784 52.5864 66.1086C52.7716 67.9609 52.9774 69.8545 53.1626 71.7892C53.6978 75.782 54.3152 79.8778 55.2208 84.1382C56.1264 88.3986 56.9497 92.7824 57.8141 97.1252C58.6786 101.468 59.3989 106.058 59.8723 110.545C60.3775 114.964 60.5564 119.415 60.4075 123.861V123.861ZM92.1239 123.861C91.9854 127.934 91.5589 131.992 90.8478 136.004L90.7449 136.58C89.8805 140.368 88.9338 143.949 87.9253 147.18C86.9167 150.411 85.4966 153.478 84.3852 156.092C83.2738 158.706 78.684 157.883 78.9516 155.186C79.2191 152.49 79.3015 149.588 79.6514 146.419C79.6616 146.275 79.6616 146.13 79.6514 145.986L79.8778 135.901V135.448C79.6102 131.805 79.8778 127.998 79.2191 124.067C78.9516 122.009 78.9104 119.951 78.5605 117.892C78.2106 115.834 77.9225 113.776 77.6344 111.718C76.8317 107.457 76.0084 103.135 75.1851 98.813C74.3619 94.4908 73.4768 90.0038 72.9829 85.4964C72.6412 83.2874 72.4213 81.0612 72.3242 78.828C72.1365 76.631 72.0609 74.426 72.0979 72.2213C72.0979 70.1631 72.2831 68.105 72.3655 66.0468C72.3655 65.8821 72.3655 65.7175 72.3655 65.5528C72.633 63.4947 72.9417 61.6012 73.2505 59.7077C73.9214 55.9877 74.8849 52.3264 76.1319 48.7581C77.225 45.7049 78.4893 42.7159 79.9189 39.805C80.2105 39.2654 80.669 38.8346 81.2258 38.5772C81.7826 38.3198 82.4077 38.2496 83.0078 38.377C83.6078 38.5044 84.1504 38.8228 84.5545 39.2842C84.9586 39.7457 85.2024 40.3256 85.2496 40.9371C85.0438 43.6333 84.5704 46.5764 84.3234 49.8077C84.3234 51.4268 84.2617 53.1145 84.1382 54.8708C84.1382 55.6735 84.1382 56.4557 84.0147 57.2789V57.7729C84.0147 58.5961 84.0147 59.4196 84.0147 60.2634C84.0147 62.0335 84.1382 63.865 84.1794 65.7174C84.1794 65.8409 84.1794 65.9645 84.1794 66.1086C84.3646 67.9609 84.5498 69.8545 84.7556 71.7892C85.2908 75.782 85.8876 79.8778 86.8138 84.1382C87.74 88.3986 88.5427 92.7824 89.4071 97.1252C90.2716 101.468 90.9919 106.058 91.4653 110.545C92.0017 114.962 92.2218 119.412 92.1239 123.861V123.861ZM123.84 123.861C123.702 127.934 123.275 131.992 122.564 136.004L122.461 136.58C121.597 140.368 120.65 143.949 119.621 147.18C118.592 150.411 117.193 153.478 116.102 156.092C115.011 158.706 110.401 157.883 110.648 155.186C110.895 152.49 110.997 149.588 111.368 146.419C111.368 146.275 111.368 146.13 111.368 145.986L111.594 135.901V135.448C111.327 131.805 111.594 127.998 110.956 124.067C110.689 122.009 110.647 119.951 110.298 117.892C109.948 115.834 109.639 113.776 109.371 111.718C108.569 107.457 107.746 103.135 106.922 98.813C106.099 94.4908 105.214 90.0038 104.72 85.4964C104.368 83.2887 104.148 81.0619 104.061 78.828C103.863 76.6316 103.788 74.426 103.835 72.2213C103.938 70.1631 104.02 68.105 104.102 66.0468C104.092 65.8823 104.092 65.7173 104.102 65.5528C104.349 63.4947 104.658 61.6012 104.988 59.7077C105.659 55.9877 106.622 52.3264 107.869 48.7581C108.962 45.7049 110.226 42.7159 111.656 39.805C111.948 39.2654 112.406 38.8346 112.963 38.5772C113.52 38.3198 114.145 38.2496 114.745 38.377C115.345 38.5044 115.887 38.8228 116.292 39.2842C116.696 39.7457 116.94 40.3256 116.987 40.9371C116.781 43.6333 116.307 46.5764 116.06 49.8077C116.06 51.4268 115.999 53.1145 115.875 54.8708L115.752 57.2789V57.7729C115.752 58.5961 115.752 59.4196 115.855 60.2634C115.855 62.0335 115.958 63.865 116.019 65.7174C116.019 65.8409 116.019 65.9645 116.019 66.1086C116.225 67.9609 116.41 69.8545 116.616 71.7892C117.151 75.782 117.748 79.8778 118.674 84.1382C119.601 88.3986 120.403 92.7824 121.288 97.1252C122.173 101.468 122.852 106.058 123.346 110.545C123.828 114.966 123.993 119.416 123.84 123.861V123.861ZM155.536 123.861C155.414 127.934 154.995 131.992 154.281 136.004V136.58C153.396 140.368 152.47 143.949 151.441 147.18C150.411 150.411 149.012 153.478 147.9 156.092C146.789 158.706 142.22 157.883 142.467 155.186C142.714 152.49 142.817 149.588 143.167 146.419C143.177 146.275 143.177 146.13 143.167 145.986L143.393 135.901V135.448C143.125 131.805 143.393 127.998 142.734 124.067C142.467 122.009 142.446 119.951 142.096 117.892C141.747 115.834 141.438 113.776 141.15 111.718C140.347 107.457 139.524 103.135 138.721 98.813C137.918 94.4908 137.013 90.0038 136.498 85.4964C136.167 83.2861 135.947 81.0605 135.84 78.828C135.648 76.6312 135.58 74.4257 135.634 72.2213C135.634 70.1631 135.819 68.105 135.901 66.0468C135.891 65.8823 135.891 65.7173 135.901 65.5528C136.148 63.4947 136.457 61.6012 136.766 59.7077C137.437 55.9877 138.4 52.3264 139.647 48.7581C140.749 45.7084 142.013 42.7198 143.434 39.805C143.721 39.2559 144.18 38.8159 144.741 38.5518C145.301 38.2878 145.933 38.2141 146.539 38.3423C147.145 38.4705 147.693 38.7937 148.098 39.2621C148.504 39.7306 148.745 40.3188 148.786 40.9371C148.559 43.6333 148.106 46.5764 147.839 49.8077C147.839 51.4337 147.736 53.1213 147.674 54.8708C147.674 55.6735 147.674 56.4557 147.551 57.2789C147.531 57.443 147.531 57.6088 147.551 57.7729C147.551 58.5961 147.551 59.4196 147.653 60.2634C147.653 62.0335 147.654 63.865 147.818 65.7174C147.808 65.8476 147.808 65.9784 147.818 66.1086C148.003 67.9609 148.209 69.8545 148.394 71.7892C148.93 75.782 149.547 79.8778 150.453 84.1382C151.358 88.3986 152.181 92.7824 153.046 97.1252C153.91 101.468 154.631 106.058 155.104 110.545C155.575 114.967 155.719 119.417 155.536 123.861V123.861Z" fill="#EE423E"/>
</svg>
