<svg width="196" height="196" viewBox="0 0 196 196" fill="none" xmlns="http://www.w3.org/2000/svg">
<path d="M0 0V196H196V0H0ZM59.095 165.972C58.7889 167.503 58.0514 168.769 57.5366 169.966C56.2982 172.276 54.9902 174.029 53.9327 175.17C52.903 176.325 52.263 176.937 52.263 176.937C52.263 176.937 52.2491 176.074 52.3604 174.641C52.5273 173.222 52.6108 171.204 52.8056 168.95C52.75 167.823 52.903 166.599 52.736 165.402C52.6943 164.191 52.4856 162.981 52.1934 161.742C51.6368 159.321 50.3706 156.427 49.6331 153.004C49.2992 151.334 49.0209 149.567 49.0348 147.884C48.9513 146.172 49.1044 144.53 49.327 142.958C49.4661 141.372 49.9531 139.911 50.2871 138.519C50.6071 137.128 51.2333 135.848 51.6786 134.665C52.5552 132.285 53.724 130.546 54.4893 129.252C55.2963 127.986 55.8251 127.276 55.8251 127.276C55.8251 127.276 55.9781 128.111 56.1312 129.558C56.2982 130.977 56.3121 133.079 56.4651 135.402C56.7017 140.091 56.7295 146.075 57.9957 151.654C58.2601 153.088 58.6776 154.507 59.0115 156.107C59.3733 157.652 59.6655 159.391 59.6933 161.102C59.7211 162.8 59.5263 164.484 59.095 165.972ZM84.3359 156.622C83.9046 159.154 83.2367 161.492 82.6105 163.621C81.887 165.722 81.0939 167.614 80.3981 169.27C79.6885 170.926 78.8258 172.29 78.1996 173.431C76.9056 175.699 76.0568 176.937 76.0568 176.937C76.0568 176.937 75.9594 175.462 76.0151 172.958C76.0568 171.719 76.0985 170.23 76.1403 168.505C76.0985 166.793 76.0707 164.887 76.1542 162.842C76.0429 160.824 75.9316 158.64 75.8063 156.33C75.542 154.062 75.3472 151.696 74.8323 149.303C74.4149 146.882 73.7887 144.447 73.0791 141.859C72.3555 139.187 71.6181 136.474 70.8806 133.76C70.2405 130.95 69.5726 127.986 69.3778 125.036C69.0021 122.1 69.1691 119.164 69.3083 116.367C69.67 113.598 69.9344 110.899 70.658 108.464C71.2702 106.001 71.9381 103.705 72.8147 101.632C74.3175 97.4156 76.0846 94.2291 77.4204 91.9889C78.7284 89.7487 79.5911 88.4964 79.5911 88.4964C79.5911 88.4964 79.6746 89.9574 79.5911 92.4759C79.5354 93.7282 79.5215 95.2589 79.3545 96.9843C79.271 98.7097 79.3267 100.63 79.1736 102.675C79.0067 104.707 79.1319 106.947 79.1041 109.257C78.9789 111.581 79.285 113.988 79.3267 116.451C79.605 118.914 79.772 121.418 80.2729 123.951C80.6764 126.483 81.2747 129.043 81.9566 131.715C82.541 134.373 83.348 137.1 83.8489 139.966C84.155 141.372 84.3916 142.791 84.5168 144.252C84.6838 145.685 84.8786 147.104 84.8369 148.524C84.9899 151.362 84.656 154.076 84.3359 156.622ZM114.28 136.668C114.405 140.662 113.445 144.516 113.014 148.12C112.165 151.696 111.288 155.05 110.231 158.055C109.076 161.047 107.879 163.732 106.822 166.084C105.736 168.435 104.415 170.356 103.482 171.97C101.534 175.184 100.282 176.923 100.282 176.923C100.282 176.923 100.463 174.808 100.992 171.274C101.27 169.521 101.59 167.392 101.966 164.943C102.174 162.48 102.425 159.739 102.828 156.817C102.954 153.881 103.107 150.694 103.26 147.341C103.19 145.671 103.107 143.96 103.037 142.22C103.009 141.358 102.981 140.481 102.954 139.591C102.856 138.7 102.759 137.809 102.647 136.919C102.397 135.124 102.369 133.301 102.035 131.451C101.701 129.6 101.395 127.735 101.131 125.843C100.338 122.058 99.628 118.19 98.7096 114.224C97.9304 110.245 96.9982 106.237 96.4694 102.119C96.1355 100.087 95.8711 98.0557 95.7737 95.9824C95.6763 93.9231 95.3562 91.9333 95.5093 89.9017C95.5789 87.8841 95.6067 85.9083 95.7598 83.9881C96.0659 82.0679 96.372 80.1894 96.6642 78.3666C97.0677 74.7071 98.5427 71.4093 99.4193 68.3481C100.519 65.3009 101.98 62.6293 103.107 60.2777C104.136 57.8705 105.667 56.1451 106.627 54.545C108.728 51.442 110.064 49.7166 110.064 49.7166C110.064 49.7166 109.786 51.7898 109.048 55.3381C108.756 57.1052 108.06 59.2759 107.81 61.6831C107.49 64.0625 107.128 66.748 106.738 69.67C106.655 71.1311 106.585 72.6616 106.502 74.2479C106.474 75.041 106.39 75.8203 106.321 76.6273C106.335 77.4343 106.349 78.2553 106.363 79.0762C106.404 80.7181 106.446 82.4157 106.502 84.1411C106.752 85.8665 106.891 87.6337 107.072 89.4148C107.559 92.9908 108.144 96.6503 109.006 100.463C109.855 104.317 110.718 108.241 111.594 112.165C112.457 116.158 113.195 120.305 113.737 124.396C114.169 128.542 114.475 132.647 114.28 136.668ZM146.91 126.956C146.979 131.812 146.061 136.501 145.602 140.912C144.711 145.295 143.737 149.4 142.693 153.143C141.497 156.858 140.245 160.212 139.145 163.162C138.032 166.112 136.627 168.561 135.653 170.62C133.607 174.697 132.271 176.951 132.271 176.951C132.271 176.951 132.383 174.363 132.842 169.98C133.037 167.781 133.426 165.151 133.691 162.132C133.858 159.099 134.053 155.69 134.428 152.044C134.498 148.384 134.581 144.419 134.665 140.231C134.373 136.056 134.567 131.701 133.997 127.193C133.719 124.939 133.691 122.657 133.343 120.347C132.995 118.037 132.689 115.685 132.411 113.334C131.604 108.547 130.783 103.691 129.948 98.8488C129.182 93.9231 128.236 88.9556 127.735 83.9046C127.401 81.4 127.151 78.9093 127.067 76.4047C126.984 73.9 126.692 71.465 126.845 69.0021C126.942 66.5671 127.04 64.1599 127.123 61.8083C127.374 59.4568 127.694 57.1748 128.041 54.9624C128.487 50.5097 130.017 46.4328 130.936 42.6759C132.021 38.9189 133.579 35.5655 134.734 32.6157C135.806 29.6101 137.406 27.3281 138.422 25.2966C140.634 21.3031 142.067 19.0768 142.067 19.0768C142.067 19.0768 141.859 21.6232 141.191 26.0202C140.926 28.2048 140.286 30.8902 140.091 33.8958C139.883 36.9152 139.41 40.2269 139.159 43.8586C139.104 45.6814 139.048 47.5877 138.978 49.5496C138.937 50.5236 138.881 51.5116 138.839 52.5273C138.881 53.5292 138.909 54.5588 138.95 55.6024C139.006 57.6618 139.062 59.7768 139.131 61.9475C139.326 64.1042 139.535 66.3166 139.744 68.5569C140.272 73.0512 140.885 77.6431 141.761 82.4018C142.624 87.2162 143.501 92.1003 144.377 96.9843C145.226 101.938 145.963 107.017 146.478 112.04C146.882 117.077 147.146 122.086 146.91 126.956Z" fill="#EE423E"/>
</svg>
