<?xml version="1.0" encoding="UTF-8"?><svg xmlns="http://www.w3.org/2000/svg" viewBox="0 0 105.07 105.07"><defs><style>.d{fill:#00b1b0;}</style></defs><g id="a"/><g id="b"><g id="c"><path class="d" d="M0,72.52v32.55H105.07V0H0V34.54c1.64-.34,3.22-.61,4.81-.82l1.26-.14c.81-.09,1.64-.19,2.47-.26,.84-.07,1.75-.11,2.64-.15l1.26-.06c2.91-.04,5.82,.09,8.71,.41,3.04,.32,6.21,.88,9.01,1.38,1.49,.26,2.98,.5,4.45,.7l2.18,.27,2.27,.13c1.22,.1,2.45-.08,3.6-.52,1.14-.44,2.18-1.13,3.02-2.02,.84-.88,1.48-1.94,1.88-3.1,.18-.56,.3-1.13,.38-1.72l.02-.37c.02-.16,.03-.32,.03-.49v-.43c0-.16,0-.33-.03-.49-.18-1.71-.86-3.33-1.95-4.66-1.09-1.33-2.55-2.31-4.19-2.82-.5-.15-1.01-.26-1.53-.33l-.84-.07-.71,.02c-.95,.06-1.89,.26-2.79,.59-.81,.33-1.58,.77-2.29,1.3-1.13,.89-2.04,2.03-2.65,3.33-.4,.86-.67,1.77-.8,2.71l-.09,1.03c-.02,.27-.14,.52-.34,.69-.2,.18-.46,.27-.73,.26-.27-.01-.52-.13-.7-.33s-.28-.46-.27-.72l.03-1.12c.1-1.18,.36-2.33,.8-3.43,.69-1.69,1.76-3.2,3.12-4.41,.86-.74,1.82-1.35,2.84-1.84,1.16-.52,2.39-.85,3.65-1l1-.07,.98,.02c.73,.04,1.46,.15,2.17,.33,2.33,.58,4.44,1.84,6.05,3.62s2.65,4,2.99,6.38c.05,.28,.08,.57,.09,.86l.03,.38c.02,.3,.02,.6,0,.9v.36c-.02,.33-.05,.66-.1,.99l-.05,.36c-.06,.35-.13,.64-.2,.93l-.09,.37c-.51,1.76-1.39,3.39-2.59,4.77-1.22,1.4-2.73,2.52-4.43,3.27-1.73,.73-3.59,1.09-5.46,1.05l-2.32-.04-2.46-.19c-1.61-.15-3.16-.34-4.68-.53-2.64-.35-5.44-.64-8.77-.93-2.39-.17-5.04-.26-8.08-.27h-3.89c-.74,0-1.46,.02-2.18,.05-.45,.01-.88,.03-1.32,.04-1.07,0-2.08,.05-3.04,.1h-.2c-.43,.03-.86,.05-1.28,.07-.23,0-.45,.02-.66,.03v6.06h.03c.59-.1,1.17-.2,1.8-.29,3.51-.5,8.85-1.2,14.6-1.54,5.49-.36,11-.42,16.5-.16,5.86,.31,11.7,.98,17.48,2,2.7,.47,5.44,1.04,8.06,1.59,3.08,.64,6.26,1.3,9.34,1.8,1.46,.23,2.88,.43,4.23,.57,1.51,.15,2.81,.24,4.23,.29,2.46,.18,4.93-.26,7.18-1.26,2.19-1,4.12-2.5,5.62-4.38,1.5-1.88,2.54-4.09,3.04-6.44,.45-2.26,.4-4.6-.15-6.83-.55-2.24-1.59-4.33-3.05-6.12-1.32-1.65-2.96-3.01-4.82-4.01-1.86-1-3.9-1.63-6-1.83-3.67-.37-7.36,.52-10.46,2.53-2.42,1.58-4.39,3.74-5.74,6.29-.87,1.66-1.46,3.45-1.73,5.31-.1,.65-.16,1.31-.19,1.97,0,.31-.12,.6-.34,.82-.22,.22-.51,.34-.82,.34s-.6-.12-.82-.34c-.22-.22-.34-.51-.34-.82v-.57c0-.36,0-.95,.07-1.7,.24-2.79,1.07-5.49,2.45-7.92,1.38-2.43,3.27-4.54,5.53-6.18,3.65-2.65,8.1-3.99,12.61-3.8,2.71,.11,5.37,.76,7.83,1.92,2.45,1.16,4.65,2.8,6.46,4.82,4.08,4.46,6.01,11.01,4.99,17.1-.98,6.58-5.36,12.54-11.43,15.54-3.11,1.55-6.54,2.32-10.01,2.26-1.33,.02-2.94-.02-4.64-.11-1.49-.08-3.05-.21-4.64-.39-3.07-.36-6.09-.81-9.01-1.24-2.98-.44-5.79-.86-8.64-1.19-5.19-.66-10.69-1.2-16.81-1.69-5.36-.39-10.65-.57-15.71-.55-5.34,.03-9.98,.17-14.2,.42-.74,.04-1.43,.08-2.14,.13l-.35,.02v6.53c1.88-.15,4.22-.31,6.79-.34,3.54-.11,7.44,.02,11.11,.18,3.89,.25,8.05,.57,12.33,1.14l2.26,.29c3.46,.44,7.03,.9,10.65,1.28,4.61,.48,9.07,.77,13.27,.84,4.4,.07,8.8-.2,13.16-.8,2.03-.26,4.4-.54,6.77-.64,.8-.05,1.58-.05,2.35-.06h.96c1.28,.03,2.55,.24,3.77,.62,4.67,1.53,8.1,5.94,8.35,10.74,.14,2.1-.28,4.21-1.21,6.1-.93,1.89-2.35,3.5-4.1,4.68-1.28,.86-2.73,1.46-4.24,1.76-1.52,.3-3.08,.3-4.59,0-1.52-.31-2.96-.91-4.24-1.77-1.28-.86-2.38-1.97-3.23-3.27-.93-1.43-1.53-3.05-1.76-4.74-.06-.39-.09-.78-.1-1.18l-.02-.54c0-.27,.09-.53,.28-.73,.19-.2,.44-.31,.71-.32,.26,0,.51,.1,.7,.28,.19,.17,.32,.41,.35,.67l.03,.42c.01,.36,.05,.72,.12,1.07,.24,1.36,.78,2.66,1.58,3.79,1.24,1.72,3.03,2.96,5.07,3.52,1.24,.33,2.54,.4,3.82,.19,1.38-.22,2.69-.76,3.82-1.58,.97-.69,1.79-1.58,2.4-2.6,.61-1.02,1.01-2.16,1.18-3.34,.16-1.18,.08-2.38-.24-3.53-.32-1.15-.87-2.22-1.62-3.15-1.09-1.34-2.55-2.32-4.2-2.83-.84-.24-1.7-.35-2.57-.35l-.92,.03c-.75,.02-1.5,.05-2.22,.12-2,.14-4.01,.42-6.41,.8-4.54,.76-9.13,1.17-13.73,1.23-4.25,.07-8.74-.07-13.69-.4-1.45-.08-2.89-.2-4.33-.31-.78-.06-1.55-.13-2.33-.18l-6.46-.67c-1.58-.14-3.16-.33-4.71-.51l-1.5-.17c-.71-.07-1.43-.14-2.15-.21-1.25-.13-2.48-.25-3.7-.34-3.59-.34-7.23-.61-10.82-.79-2.33-.11-4.53-.19-6.71-.22v6.2c.86,0,1.58-.05,2.31-.11,1.58-.11,3.37-.34,5.66-.72l6.47-1.19c1.26-.22,2.53-.38,3.81-.47,.23-.02,.43-.02,.64-.02h.77c.29,0,.39,.02,.51,.03,.8,.05,1.6,.18,2.38,.37,2.97,.76,5.57,2.54,7.36,5.03,.88,1.22,1.53,2.58,1.93,4.03l.24,1.05,.15,1.17c.02,.24,.04,.47,.03,.71l.02,.67-.03,.29c.02-.07,.03-.13,.03-.2l-.05,.7c-.23,2.86-1.45,5.54-3.45,7.6-1.82,1.9-4.22,3.15-6.82,3.56-.6,.1-1.21,.14-1.81,.13-.42,.01-.85,0-1.27-.07l-.42-.04c-1.11-.16-2.19-.47-3.22-.92-1.74-.79-3.28-1.98-4.47-3.48-.91-1.15-1.59-2.46-1.99-3.86-.26-.89-.41-1.8-.45-2.73v-.92c-.01-.27,.08-.53,.26-.74,.18-.2,.43-.32,.7-.34,.27-.01,.53,.08,.74,.26,.2,.18,.32,.43,.34,.7l.08,.89c.1,.73,.28,1.44,.55,2.13,.4,1.07,1.01,2.05,1.78,2.9,.99,1.08,2.22,1.9,3.59,2.41,1.6,.57,3.32,.68,4.98,.3,1.8-.4,3.42-1.37,4.62-2.77,1.27-1.45,2-3.31,2.04-5.24v-.4l-.04-.62c0-.15-.02-.3-.04-.45l-.35-1.43c-.31-.9-.78-1.74-1.38-2.47-1.18-1.47-2.86-2.46-4.72-2.78-.44-.07-.89-.11-1.34-.11-.09,0-.18,0-.27-.02l-.78,.05c-.16,0-.33,.02-.46,.04-.99,.14-2.13,.31-3.23,.52-2.23,.38-4.51,.77-6.75,.95-2.09,.21-4.2,.26-6.29,.14-.74-.03-1.49-.1-2.35-.22Z"/></g></g></svg>