<?xml version="1.0" encoding="UTF-8"?><svg xmlns="http://www.w3.org/2000/svg" viewBox="0 0 105.07 105.07"><defs><style>.d{fill:#fba91b;}</style></defs><g id="a"/><g id="b"><g id="c"><path class="d" d="M0,0V105.07H105.07V0H0ZM8.47,88.45l-.47-.39c-.12-.12-.22-.27-.28-.43-.06-.16-.1-.33-.09-.51,0-.34,.14-.67,.39-.91,.24-.24,.57-.38,.91-.39,.04,0,4.7-.05,12.65,.09l1.24,.02c3.84,.06,8.19,.12,13.18,.05,5.69-.1,11.88-.33,18.48-1.33,5.89-.92,13.48-2.57,19.91-7.07,6.01-4.18,10.24-11.4,11.36-19.32,.56-4.06,.28-8.19-.83-12.14-1.11-3.95-3.03-7.62-5.62-10.79-2.84-3.43-6.2-6.01-9.73-7.48-4.73-2.03-10-2.39-14.96-1.03-4.96,1.36-9.31,4.37-12.33,8.54-1.1,1.56-1.94,3.28-2.48,5.1-1.09,3.66-.94,7.58,.43,11.14,1.28,3.46,3.68,6.4,6.81,8.36,2.82,1.72,6.51,2.32,9.61,1.61,3.21-.69,6.05-2.56,7.95-5.24,.81-1.18,1.36-2.53,1.6-3.95,.24-1.43,.17-2.89-.19-4.29-.36-1.36-1.01-2.63-1.89-3.72-.43-.52-.9-1-1.41-1.43-.49-.41-1.03-.75-1.61-1.02-1.64-.76-3.5-.93-5.25-.48-1.75,.45-3.3,1.48-4.39,2.93-.57,.81-.93,1.76-1.05,2.74-.1,.95,.01,1.91,.35,2.8,.33,.89,.87,1.7,1.57,2.35,.52,.5,1.14,.87,1.81,1.1,.68,.22,1.4,.29,2.11,.2,.71-.09,1.39-.34,1.99-.73,.6-.39,1.11-.91,1.48-1.52,.45-.83,.59-1.79,.39-2.72-.16-.77-.55-1.47-1.12-2l-.48-.44,.03-.24c-.06-.21-.07-.43-.03-.64,.04-.21,.14-.41,.27-.58l.29-.35,1.05-.18,.51,.34c.27,.2,.52,.42,.75,.66,.73,.74,1.28,1.64,1.61,2.62,.54,1.65,.43,3.44-.29,5.01-.5,1.03-1.21,1.95-2.08,2.7-.87,.75-1.89,1.3-2.99,1.63-1.39,.43-2.86,.5-4.28,.21-1.42-.29-2.75-.92-3.86-1.85-1.28-1.07-2.29-2.41-2.95-3.94-.66-1.52-.97-3.18-.88-4.84,.1-1.89,.69-3.72,1.72-5.31,1.06-1.59,2.45-2.92,4.08-3.92,3.49-2.21,8.09-2.54,12.02-.84,1,.43,1.94,.97,2.81,1.63,.88,.67,1.69,1.43,2.41,2.26,1.48,1.7,2.59,3.7,3.24,5.86,.7,2.3,.88,4.72,.53,7.09-.35,2.37-1.21,4.64-2.53,6.64-2.59,3.92-6.99,6.9-11.78,7.96-2.5,.58-5.1,.66-7.63,.23-2.53-.43-4.95-1.36-7.12-2.74-4.15-2.63-7.53-6.9-9.26-11.73-1.75-4.91-1.83-10.27-.23-15.23,.8-2.5,2.02-4.85,3.6-6.94,1.55-2.02,3.36-3.82,5.39-5.37,4.07-3.09,8.89-5.03,13.97-5.61,5.07-.59,10.21,.2,14.88,2.27,4.29,1.89,8.18,4.98,11.53,9.17,2.96,3.74,5.11,8.06,6.32,12.67,1.21,4.61,1.46,9.43,.72,14.14-1.43,9.01-6.5,17.22-13.58,21.97-7.2,4.81-15.38,6.43-21.7,7.29-6.45,.83-12.46,.98-18.01,.98h-.97c-5.07-.04-9.44-.19-13.31-.33l-1.22-.04c-7.91-.31-12.53-.35-12.59-.35l-.44-.02ZM76.85,50.61c-.02-.97,0-1.52,0-1.52l.13-4.41,1.95,3.96s.23,.48,.6,1.36c.25,.56,.44,1.15,.57,1.75,.22,.74,.37,1.49,.45,2.26l.14,1.19v1.43c0,.85-.07,1.7-.21,2.54l-.07,.51c-.1,.4-.16,.68-.22,.95-.15,.8-.39,1.58-.71,2.33-.31,.84-.68,1.66-1.1,2.45l-.66,1.14c-.49,.78-1.03,1.52-1.62,2.22-.48,.61-1.02,1.18-1.61,1.69-.21,.19-.41,.38-.61,.57l-.49,.39c-.66,.55-1.37,1.04-2.12,1.46l-2.38,1.19c-.69,.31-1.4,.55-2.14,.73-.6,.19-1.21,.31-1.83,.37-.89,.11-1.43,.15-1.43,.15l-4.49,.33,3.83-2.35s.46-.29,1.28-.73c.44-.23,.87-.48,1.28-.76,.61-.39,1.08-.69,1.58-1.07l1.79-1.43c.35-.28,.69-.59,.99-.92,.29-.29,.56-.57,.86-.83l.33-.41c.42-.48,.84-.97,1.22-1.51,.42-.53,.8-1.1,1.14-1.68l.67-1.17c.32-.55,.6-1.13,.84-1.72,.31-.69,.53-1.31,.74-1.93l.22-.61c.07-.34,.15-.68,.25-1.01,.13-.41,.22-.83,.29-1.25,.16-.75,.27-1.5,.35-2.26,.08-.59,.12-1.18,.14-1.77,.04-.55,.06-1.1,.04-1.65h0Zm15.25,30.72l-.48,.71c-.48,.72-1.01,1.4-1.58,2.05-.86,1.02-1.81,1.96-2.84,2.81-.63,.54-1.28,1.05-1.97,1.52-.73,.53-1.5,1.02-2.29,1.47-.51,.32-1.09,.62-1.68,.92l-1.87,.89c-.64,.29-1.28,.57-1.96,.81-2.08,.8-4.22,1.44-6.4,1.91-4.89,1.04-10.16,1.37-14.21,1.55-2.31,.09-4.63,.13-6.9,.13-7.55,0-14.62-.41-19.28-.68-7.06-.42-11.77-.57-11.78-.57l-1.09-.03-.11-1.24c0-.32,.14-.62,.36-.84,.22-.22,.52-.35,.84-.36,0,0,4.74-.15,11.86-.17,1.47-.02,3.06-.03,4.73-.04,6.44-.03,13.73-.07,21.08-.72,4.49-.4,8.95-1.12,13.34-2.14,4.48-1,8.18-2.16,10.99-3.43,1.39-.61,2.73-1.31,4.03-2.1,.5-.28,.98-.6,1.44-.93,.51-.32,1-.67,1.46-1.05,.52-.38,1.01-.79,1.49-1.23l1.24-1.01,.61-.13,.46,.03,.4,.4c.18,.21,.29,.46,.3,.74,.02,.27-.06,.54-.21,.77Zm5.15-24.43l-1.23,.11c-.32-.01-.63-.15-.85-.38-.22-.23-.35-.54-.35-.86l.04-3.94c0-.49-.06-1.04-.12-1.65l-.15-1.7c-.03-.34-.06-.7-.11-1.07l-1.32-5.75c-.69-2.57-1.97-5.5-3.92-8.97-2.01-3.28-4.45-6.27-7.26-8.91-3.16-2.89-6.76-5.26-10.66-7.01-4.15-1.9-8.61-3.04-13.16-3.37-1.12-.11-2.39-.06-3.58-.1-1.08,.07-2.21,.18-3.38,.29-2.27,.35-4.49,.94-6.63,1.76-4.22,1.62-8.04,4.16-11.17,7.43-3.13,3.27-5.5,7.19-6.94,11.48-1.39,3.89-1.96,8.02-1.68,12.14,.3,4.39,1.98,8.03,3.33,10.3,1.6,2.7,3.67,5.08,6.13,7.03,1.92,1.52,4.05,2.75,6.32,3.65l.57,.22c.29,.11,.55,.23,.82,.32l1.22,.35c.63,.21,1.27,.36,1.93,.47l2.86,.55-.07,1.24c-.05,.28-.2,.54-.43,.73-.22,.18-.5,.29-.79,.28h-.07l-5.44-.67c-.37-.09-.7-.18-1.04-.29l-.57-.16c-1.01-.28-2-.63-2.97-1.05l-1.08-.48c-1.23-.6-2.42-1.28-3.54-2.06-3.04-2.05-5.65-4.68-7.66-7.74-2.43-3.67-3.97-7.86-4.48-12.23l-.07-.7c-.12-.96-.16-1.93-.13-2.9l.26-3.53,.22-1.76,.55-2.44c.09-.4,.18-.81,.29-1.2l.59-1.79c1.73-4.89,4.52-9.34,8.16-13.03,5.67-5.65,13.05-9.26,20.99-10.28,1.36-.12,2.7-.21,3.98-.25,.53,.02,.96,.04,1.39,.05,.81,.02,1.62,.05,2.51,.15,5.01,.49,9.89,1.86,14.42,4.06,4.24,2.01,8.12,4.7,11.49,7.96,2.96,2.95,5.51,6.27,7.58,9.9,1.99,3.8,3.27,6.99,3.94,9.8l.91,4.25,.29,1.7c.08,.63,.1,1.02,.12,1.4l.11,1.74c.04,.68,.09,1.3,.08,1.87l-.23,5.03Z"/></g></g></svg>