<?xml version="1.0" encoding="UTF-8"?><svg xmlns="http://www.w3.org/2000/svg" viewBox="0 0 105.07 105.07"><defs><style>.d{fill:#ee423e;}</style></defs><g id="a"/><g id="b"><g id="c"><path class="d" d="M0,0V105.07H105.07V0H0ZM31.68,88.97c-.17,.82-.57,1.5-.84,2.14-.52,1.01-1.17,1.94-1.93,2.79-.55,.62-.9,.95-.9,.95,0,0,0-.46,.05-1.23,.05-.77,.13-1.84,.24-3.05-.03-.61,.05-1.26-.03-1.9-.03-.66-.13-1.32-.29-1.96-.29-1.3-.97-2.86-1.37-4.68-.2-.9-.31-1.82-.32-2.75-.03-.88,.02-1.77,.15-2.64,.11-.8,.28-1.6,.51-2.38,.2-.71,.45-1.4,.74-2.07,.4-1.02,.91-1.99,1.51-2.9,.43-.68,.72-1.06,.72-1.06,0,0,.08,.45,.16,1.22s.1,1.89,.18,3.13c.13,2.52,.14,5.72,.82,8.71,.14,.77,.37,1.53,.55,2.39,.21,.88,.34,1.77,.37,2.68,.02,.88-.09,1.76-.32,2.61h0Zm13.53-5.01c-.24,1.27-.55,2.52-.93,3.75-.39,1.13-.81,2.14-1.19,3.03-.37,.89-.86,1.62-1.18,2.23-.69,1.22-1.14,1.88-1.14,1.88,0,0-.05-.8-.02-2.13,.02-.66,.04-1.46,.07-2.39-.02-.92-.04-1.94,0-3.04-.06-1.08-.12-2.25-.19-3.49-.14-1.22-.25-2.48-.52-3.77-.22-1.3-.57-2.6-.94-4.01l-1.18-4.34c-.39-1.54-.66-3.1-.8-4.68-.15-1.54-.16-3.1-.04-4.65,.2-1.49,.34-2.93,.73-4.24,.29-1.25,.67-2.47,1.14-3.66,.65-1.8,1.48-3.53,2.47-5.17,.7-1.2,1.16-1.87,1.16-1.87,0,0,.04,.78,0,2.13-.03,.67-.04,1.49-.13,2.41-.09,.92,0,1.95-.09,3.05s-.02,2.29-.04,3.53c-.07,1.25,.09,2.53,.12,3.86,.15,1.32,.23,2.66,.51,4.02,.21,1.36,.54,2.73,.9,4.16,.36,1.43,.75,2.89,1.02,4.42,.17,.75,.29,1.52,.36,2.29,.11,.76,.17,1.52,.17,2.29,.04,1.46-.05,2.93-.27,4.37h0Zm16.05-10.71c.06,2.14-.45,4.21-.68,6.14-.41,1.8-.9,3.58-1.49,5.33-.62,1.6-1.26,3.04-1.83,4.31-.54,1.08-1.14,2.13-1.79,3.15-1.04,1.72-1.72,2.66-1.72,2.66,0,0,.1-1.14,.38-3.03l.53-3.39c.11-1.32,.24-2.79,.46-4.36,.07-1.57,.15-3.28,.23-5.08-.04-.89-.08-1.81-.12-2.75,0-.47-.03-.94-.04-1.41-.01-.47-.11-.95-.16-1.43-.14-.96-.15-1.94-.33-2.93-.18-.99-.34-2-.49-3-.43-2.03-.81-4.11-1.3-6.23-.41-2.13-.92-4.29-1.2-6.49-.19-1.09-.32-2.19-.37-3.29-.05-1.1-.22-2.17-.14-3.26,.04-1.08,.05-2.14,.13-3.18,.17-1.03,.33-2.04,.49-3.02,.21-1.96,1.01-3.72,1.48-5.37,.57-1.63,1.37-3.06,1.97-4.32,.56-1.29,1.37-2.22,1.89-3.08,1.13-1.67,1.85-2.57,1.85-2.57,0,0-.15,1.11-.54,3.01-.15,.94-.53,2.11-.66,3.4-.13,1.3-.37,2.71-.57,4.29-.04,.79-.09,1.6-.13,2.45,0,.42-.06,.86-.1,1.27,0,.43,.02,.86,.03,1.32,.02,.88,.05,1.79,.07,2.71,.13,.93,.21,1.87,.31,2.82,.26,1.92,.57,3.88,1.03,5.92,.46,2.04,.92,4.17,1.38,6.28,.46,2.1,.86,4.36,1.14,6.56,.27,2.18,.37,4.37,.3,6.56h0Zm17.5-5.21c.04,2.6-.45,5.12-.7,7.48-.48,2.35-1,4.55-1.56,6.55-.64,2-1.31,3.78-1.91,5.37-.6,1.58-1.35,2.9-1.87,4.01-1.1,2.19-1.81,3.4-1.81,3.4,0,0,.06-1.38,.31-3.74,.11-1.18,.31-2.57,.45-4.21,.09-1.63,.19-3.45,.39-5.41,.04-1.96,.08-4.09,.12-6.33-.16-2.24-.05-4.58-.36-6.99-.15-1.21-.16-2.43-.35-3.67-.19-1.24-.35-2.5-.5-3.76-.43-2.57-.88-5.17-1.32-7.77-.41-2.65-.92-5.3-1.18-8.01-.19-1.33-.31-2.68-.36-4.02-.04-1.34-.2-2.65-.12-3.97,.09-1.32,.1-2.59,.15-3.85,.14-1.26,.31-2.49,.49-3.67,.24-2.39,1.06-4.58,1.55-6.58,.57-2.02,1.43-3.81,2.04-5.39,.57-1.61,1.43-2.83,1.98-3.93,1.19-2.14,1.95-3.33,1.95-3.33,0,0-.11,1.36-.47,3.72-.14,1.17-.49,2.61-.59,4.22-.1,1.6-.36,3.39-.5,5.34-.03,.98-.06,2-.09,3.05-.03,.52-.05,1.05-.07,1.59,.02,.54,.04,1.09,.06,1.65,.03,1.11,.06,2.24,.09,3.4,.11,1.14,.21,2.34,.33,3.54,.29,2.41,.61,4.86,1.08,7.42,.47,2.56,.93,5.2,1.4,7.82,.47,2.62,.86,5.38,1.13,8.07,.25,2.66,.33,5.33,.24,8h0Z"/></g></g></svg>