<?xml version="1.0" encoding="UTF-8"?><svg xmlns="http://www.w3.org/2000/svg" viewBox="0 0 105.1 105.09"><defs><style>.d{fill:#20469a;}</style></defs><g id="a"/><g id="b"><g id="c"><path class="d" d="M99.42,22.94l-.29,.02-.57,.04c-.39,.05-.78,.15-1.17,.22-1.55,.41-3.03,1.27-4.49,2.26-1.46,1-2.92,2.13-4.61,3.09-.42,.25-.86,.47-1.31,.67l-.68,.3c-.24,.09-.48,.16-.72,.24-.5,.17-1.02,.29-1.54,.37-.24,.04-.49,.07-.74,.08l-.7,.06c-2.21,.04-4.17-.72-5.93-1.72-1.76-1-3.29-2.21-4.86-3.27-.77-.53-1.58-1.01-2.42-1.43-.41-.2-.83-.38-1.26-.52l-.65-.21-.62-.13-.31-.07c-.11-.02-.24-.02-.36-.03l-.74-.05h-.09c-.08,0,0,0-.03,0h-.17l-.33,.02c-.22,0-.45,.03-.67,.06-.45,.07-.89,.18-1.32,.31l-.66,.21-.64,.29c-1.72,.76-3.29,1.96-4.95,3.13-1.66,1.17-3.47,2.35-5.6,2.97-.28,.08-.57,.14-.86,.19-.27,.06-.55,.11-.83,.13l-.76,.05h-.19c-.05,0-.1,0-.16,0h-.11l-.42-.03c-.29-.02-.57-.03-.84-.06l-.82-.16-.41-.09-.39-.13-.79-.26c-2.05-.81-3.79-2.06-5.44-3.24s-3.3-2.32-5.1-2.92c-.22-.07-.45-.15-.67-.21l-.65-.13-.32-.07-.38-.03-.77-.05-.64,.04c-.23,0-.46,.03-.69,.07l-.69,.14c-.23,.05-.45,.12-.67,.2-1.79,.59-3.43,1.75-5.08,2.91-1.65,1.16-3.37,2.42-5.4,3.26-2.07,.85-4.36,1.03-6.54,.49-2.14-.6-3.96-1.75-5.62-2.9s-3.22-2.33-4.89-3.15c-.27-.11-.55-.22-.82-.33v21.89l.25,.08c.32,.1,.64,.21,.96,.32l.33,.14c.29,.13,.6,.26,.9,.4l1.14,.61c1.14,.66,2.15,1.37,3.15,2.07l.92,.64c1.13,.83,2.35,1.52,3.64,2.07l2.21,.48,.39,.03,2.2-.37c.18-.05,.36-.11,.54-.18,.65-.27,1.27-.58,1.87-.93,.86-.5,1.72-1.09,2.57-1.69,.48-.33,.98-.67,1.48-1.01,1.43-.94,3.15-1.97,5.15-2.55,.34-.11,.68-.19,1.03-.25l.43-.09c.38-.06,.76-.1,1.14-.12l.45-.03v.02c.14-.03,.28-.03,.43-.02h0l1.12,.07c.59,.08,1.14,.2,1.67,.31,2.13,.57,3.9,1.63,5.34,2.59,.54,.36,1.07,.72,1.6,1.08,.89,.61,1.75,1.2,2.62,1.72,1.43,.86,2.69,1.32,3.88,1.43l.53,.03,.13,.02,.56-.04c.21,0,.42-.03,.62-.06l.63-.13,.44-.14,.96-.37c1.29-.57,2.55-1.44,3.89-2.37,1.53-1.06,3.12-2.15,5.02-3l1.43-.55c.43-.14,.62-.2,.81-.25l.73-.15c.42-.09,.84-.15,1.26-.16l.71-.05c.07,0,.15,0,.22,0h.07l.9,.05c1.93,.17,3.84,.84,5.87,2.04,1.05,.62,2.03,1.29,2.97,1.95,.47,.33,.94,.65,1.4,.96,1.55,1.03,2.74,1.63,3.85,1.95,.18,.06,.36,.11,.55,.13,.16,.03,.31,.06,.46,.09,.1,.02,.27,.02,.45,.03l.47,.03,.94-.07c.11,0,.25-.05,.4-.08,.15-.03,.32-.07,.49-.1,1.17-.29,2.43-1.04,3.62-1.79,.57-.37,1.17-.78,1.76-1.19,.75-.51,1.5-1.04,2.29-1.53,1.55-1.02,3.27-1.78,5.07-2.24l.36-.08c.39-.09,.78-.15,1.18-.17l.62-.05,.33-.02,1.11,.06c.26,0,.52,.04,.78,.09l.38,.07c.37,.06,.74,.14,1.1,.25,.78,.23,1.53,.53,2.26,.89V24.89c-.96-.64-2-1.15-3.09-1.53-.35-.12-.72-.21-1.08-.27-.2-.05-.4-.07-.6-.08l-.65-.05h-.16s.07,0,0,0l-.07-.02Z"/><path class="d" d="M65.59,74.41l1.08,.07c.09,0,.57,.08,.67,.1l.82,.16c.32,.06,.63,.14,.94,.25,1.56,.48,3.04,1.17,4.41,2.05,.89,.55,1.72,1.12,2.53,1.67,1.33,.91,2.59,1.76,3.78,2.29,.38,.18,.78,.32,1.19,.44l.7,.14s.56,.03,.6,.04h.07l.86-.06,1.31-.37c1.33-.49,2.83-1.52,4.41-2.62l1.08-.74c1.17-.82,2.4-1.53,3.69-2.13,1.45-.68,3.01-1.12,4.61-1.27l.57-.05c.08,0,.57-.02,.7-.03l1.07,.06c.23,.03,.68,.07,1.14,.15,.52,.08,1.03,.2,1.52,.36,.59,.17,1.16,.38,1.72,.64v-23.46c-.08-.06-.17-.12-.25-.17-1.04-.74-2.19-1.32-3.4-1.72-.14-.05-.29-.09-.44-.11-.14-.03-.29-.05-.43-.09l-1.06-.09-.65,.04c-.17,0-.35,.03-.52,.07l-.37,.07c-1.01,.21-2.17,.74-3.5,1.59-.71,.45-1.41,.95-2.13,1.46-.6,.42-1.2,.86-1.84,1.28-1.57,1.1-3.32,1.93-5.16,2.45l-.36,.07c-.43,.09-.86,.18-1.26,.22l-.98,.07c-.16,.01-.33,.01-.49,0l-.53-.03c-.37-.02-.73-.05-1.1-.11l-.46-.09c-.37-.06-.74-.15-1.1-.27-1.94-.57-3.61-1.59-5.11-2.6-.52-.35-1.02-.7-1.51-1.05-.88-.62-1.74-1.23-2.61-1.76-1.36-.84-2.64-1.32-3.79-1.45l-.61-.04h-.18l-.54,.03c-.19,0-.37,.02-.56,.06l-.63,.13-.45,.14-.94,.37c-1.3,.57-2.54,1.47-3.86,2.41-1.52,1.08-3.09,2.2-4.99,3.07l-.67,.29c-.23,.09-.42,.15-.61,.22l-.41,.13c-.19,.07-.38,.12-.57,.17l-.8,.16c-.4,.08-.8,.14-1.2,.15l-.66,.04c-.1,0-.19,0-.29,0h-.3l-.74-.05c-.3-.02-.6-.06-.89-.13l-.71-.15c-.38-.09-.76-.2-1.13-.33l-.78-.29c-.36-.15-.72-.31-1.07-.48l-.44-.24c-.29-.16-.6-.32-.88-.49-1-.61-1.95-1.28-2.86-1.94-.51-.36-1-.71-1.5-1.04-1.56-1.05-2.77-1.66-3.91-1.97l-1.76-.24h-.08l-.44,.03c-.18,0-.36,.02-.53,.05l-.52,.1c-.12,.02-.23,.04-.34,.08-1.49,.46-2.82,1.29-3.93,2.05-.45,.3-.89,.62-1.34,.94-.92,.66-1.87,1.33-2.89,1.95-.81,.5-1.66,.93-2.54,1.3-.32,.13-.64,.24-.97,.34l-.41,.13c-.5,.13-.93,.21-1.36,.29l-.38,.06-1.23,.09c-.11,.01-.22,.01-.33,0h0l-1.3-.09c-.47-.07-.82-.15-1.18-.22l-.32-.07c-.55-.17-.99-.31-1.43-.46-1.66-.69-3.23-1.57-4.68-2.63l-.95-.67c-.94-.66-1.85-1.3-2.76-1.83l-1.18-.45v23.92c.31,.08,.63,.15,.93,.25,.06,0,.52,.17,.57,.19,.57,.22,1.14,.47,1.7,.74,.8,.42,1.24,.66,1.66,.93,.91,.55,1.82,1.18,2.71,1.8,.84,.57,1.67,1.16,2.51,1.67,.68,.42,1.41,.76,2.17,1.01l.43,.14,1.21,.15h.03l.5-.03c.19,0,.37-.03,.55-.08,.2-.04,.39-.08,.61-.11,.29-.13,.53-.2,.78-.32,.93-.42,1.81-.92,2.65-1.5l1.36-.93c1.62-1.13,3.47-2.41,5.77-3.32,.85-.31,1.72-.55,2.61-.71l1.87-.2v.04c.19-.04,.38-.06,.57-.06l1.3,.09c.64,.09,1.06,.18,1.48,.26,.28,.05,.56,.13,.84,.23l.5,.16c.43,.13,.84,.3,1.25,.49,1.94,.84,3.6,1.99,5.06,3,.72,.5,1.43,.98,2.14,1.42,.86,.56,1.78,1.01,2.75,1.34l.53,.14,.48,.1,.57,.03h.05l.98-.07c-.09,0,.19-.07,.49-.13l.6-.2,.6-.25c.2-.08,.39-.18,.57-.29,1.07-.6,2.1-1.25,3.09-1.97,1.21-.88,2.47-1.69,3.78-2.43,1.56-.9,3.28-1.51,5.06-1.79,.33-.06,.65-.09,.98-.1l1.14-.05h.15Z"/><path class="d" d="M103.23,83.17c-.67-.41-1.39-.74-2.14-.99l-1.62-.25-.47,.03c-1.52,.1-3.22,1.14-4.68,2.14l-1.27,.89c-.59,.42-1.19,.86-1.84,1.27-1.28,.87-2.65,1.59-4.09,2.17l-1.18,.39c-.49,.13-.9,.2-1.3,.29-.38,.08-.77,.13-1.16,.15l-.76,.05h-.51s-.48-.03-.51-.03c-.46-.02-.92-.06-1.38-.14l-1.11-.23c-.9-.24-1.78-.56-2.62-.95-1.9-.87-3.53-2.05-4.96-3.08-.71-.51-1.4-1.01-2.1-1.45-.81-.56-1.7-.99-2.63-1.3l-.54-.13-1.07-.11-.56,.04c-2.08,.3-4.03,1.68-5.91,3.01-1.22,.89-2.49,1.71-3.81,2.45-.38,.21-.78,.41-1.21,.6-.42,.2-.85,.37-1.28,.51-.42,.15-.84,.28-1.27,.38l-2.57,.37c-.21,.03-.43,.04-.65,.02l-.9-.05c-.28-.01-.56-.04-.84-.08l-.62-.12c-.5-.09-.99-.21-1.48-.37-.79-.24-1.55-.55-2.29-.92l-1.87-1.07c-1.04-.68-1.77-1.2-2.47-1.7-1.39-1-2.72-1.94-3.97-2.49-.16-.08-.32-.15-.49-.2l-.51-.17-1.54-.22h-.02l-.43,.03-.6,.09c-.33,.07-.65,.16-.96,.29-1.5,.6-2.9,1.6-4.4,2.65l-1.35,.95c-1.17,.84-2.43,1.56-3.74,2.16-.58,.27-1.19,.5-1.8,.68-.08,.02-.47,.15-.55,.17-.81,.2-1.65,.33-2.48,.38,0,0-.32,0-.47,.03-.09,.01-.18,.02-.27,.02l-1.12-.06c-.44-.02-.88-.08-1.31-.17l-.83-.17c-.07,0-.47-.13-.54-.15-1.4-.43-2.74-1.03-3.99-1.8-1.14-.7-2.16-1.41-3.11-2.08-.77-.55-1.5-1.06-2.23-1.51-.32-.21-.56-.33-.8-.46l-.03-.02v22.17H105.09v-20.64c-.62-.45-1.23-.91-1.86-1.28Z"/><path class="d" d="M.18,21.67c.5,.17,1,.37,1.48,.6,1.9,.92,3.52,2.15,5.15,3.27s3.26,2.12,5.03,2.57c1.78,.45,3.66,.33,5.36-.35,1.75-.7,3.37-1.83,5.05-3,1.68-1.17,3.46-2.38,5.58-3.05,.27-.07,.52-.19,.8-.24l.82-.17c.27-.05,.55-.09,.83-.09l.42-.03h.31s.18,0,.16,0l.77,.05,.38,.03,.43,.08,.86,.17c.27,.07,.53,.17,.79,.25,2.12,.7,3.86,1.96,5.55,3.11,1.69,1.14,3.32,2.29,5.08,3l.67,.21,.33,.11,.34,.07,.68,.14c.23,.03,.46,.03,.69,.05l.34,.02h.09s-.05,0,.03,0h.19l.76-.05c.23-.02,.45-.06,.67-.11,.22-.04,.43-.08,.64-.14,1.78-.52,3.43-1.53,5.08-2.67,.82-.57,1.65-1.14,2.51-1.72,.87-.58,1.78-1.1,2.73-1.53l.73-.32,.77-.25c.52-.16,1.04-.29,1.58-.37,.27-.05,.54-.05,.81-.07l.4-.03h.2s.17,0,.15,0h.09l.74,.05c.13,0,.24,0,.37,.03l.41,.08c2.21,.4,4.04,1.41,5.7,2.51,1.67,1.1,3.19,2.27,4.79,3.15,.39,.22,.8,.42,1.21,.6,.2,.08,.4,.19,.61,.25l.62,.2,.31,.1,.31,.06,.63,.12c.21,.03,.42,.03,.63,.05l.32,.02h.16s.12,0,.01,0h.09l.71-.04c.22,0,.44-.03,.66-.08,.4-.07,.79-.17,1.18-.29l.61-.2,.59-.26c.4-.17,.79-.36,1.16-.57,1.54-.86,2.98-1.96,4.51-2.98,1.54-1.02,3.18-1.98,5.04-2.5,.47-.1,.94-.21,1.42-.29l.72-.05,.36-.02h.09s.1,0,.15,0h.16l.65,.04c.23,0,.46,.03,.68,.08,.48,.07,.96,.18,1.43,.32,.88,.27,1.74,.62,2.55,1.06V0H.02V21.61l.16,.05Z"/></g></g></svg>