<svg width="162" height="75" viewBox="0 0 162 75" fill="none" xmlns="http://www.w3.org/2000/svg">
<g clip-path="url(#clip0_66_107)">
<path d="M46.8358 49.8695C46.4503 49.484 45.9936 49.1768 45.4913 48.965C44.9737 48.7421 44.4155 48.6294 43.8521 48.6339H36.1079V66.6299H39.1079V51.3876H43.7471C43.9238 51.3869 44.0987 51.4225 44.2611 51.4919C44.4236 51.5613 44.5702 51.6632 44.6918 51.7914C44.82 51.9121 44.9221 52.0579 44.9916 52.2198C45.061 52.3816 45.0964 52.5561 45.0956 52.7322V66.6501H48.0471V52.8372C48.0523 52.2814 47.9394 51.7309 47.716 51.2221C47.5109 50.7195 47.2122 50.2605 46.8358 49.8695Z" fill="white"/>
<path d="M61.6538 49.9058C61.2531 49.5186 60.787 49.2055 60.277 48.9811C59.7563 48.7485 59.1918 48.6301 58.6216 48.6339H55.0282C54.4579 48.6301 53.8934 48.7485 53.3727 48.9811C52.866 49.2027 52.4047 49.5162 52.0121 49.9058C51.6236 50.2959 51.3151 50.7581 51.1036 51.2665C50.8818 51.79 50.7691 52.3533 50.7725 52.9219V62.4427C50.7696 63.0126 50.8823 63.5772 51.1036 64.1023C51.3161 64.6101 51.6245 65.0721 52.0121 65.463C52.8161 66.255 53.8995 66.6988 55.0282 66.6985H59.8409V70.8169C59.8431 70.9914 59.8103 71.1646 59.7445 71.3263C59.6787 71.4879 59.5813 71.6348 59.4579 71.7582C59.3345 71.8816 59.1876 71.9791 59.0259 72.0449C58.8643 72.1107 58.6911 72.1434 58.5166 72.1413H55.3431C55.1574 72.1511 54.9719 72.1167 54.802 72.0409C54.6322 71.9651 54.4827 71.8501 54.3659 71.7052C54.1367 71.4254 54.0138 71.0736 54.0188 70.712C54.0188 70.5949 54.0188 70.4737 54.0188 70.3445C54.0188 70.2153 54.0188 70.0942 54.0188 69.9771H50.9865C50.9822 70.6253 51.0691 71.271 51.2449 71.895C51.4056 72.4698 51.6727 73.0095 52.0323 73.4858C52.3879 73.9446 52.8399 74.3196 53.3566 74.5841C53.9432 74.869 54.5903 75.0075 55.2422 74.9879H58.5893C59.1595 74.9903 59.7236 74.872 60.2447 74.6406C60.7547 74.4162 61.2209 74.1032 61.6216 73.716C62.0199 73.3307 62.3345 72.8675 62.5461 72.3553C62.7679 71.8317 62.8806 71.2684 62.8772 70.6998V52.9098C62.8806 52.3412 62.7679 51.7779 62.5461 51.2543C62.3426 50.7492 62.0391 50.2905 61.6538 49.9058ZM59.8409 63.8761H55.1694C54.9942 63.8789 54.8203 63.8464 54.6579 63.7806C54.4955 63.7148 54.348 63.617 54.2241 63.4931C54.1002 63.3692 54.0024 63.2217 53.9367 63.0593C53.8709 62.8969 53.8384 62.7229 53.8411 62.5477V52.8169C53.8414 52.6386 53.8772 52.4621 53.9465 52.2978C54.0158 52.1334 54.1173 51.9846 54.2449 51.86C54.3653 51.7303 54.5116 51.6273 54.6744 51.5577C54.8371 51.4882 55.0127 51.4536 55.1896 51.4562H58.5368C58.7132 51.4537 58.8881 51.4883 59.0502 51.5579C59.2123 51.6275 59.3579 51.7304 59.4776 51.86C59.6015 51.9863 59.6992 52.1359 59.765 52.3001C59.8309 52.4644 59.8635 52.64 59.8611 52.8169L59.8409 63.8761Z" fill="white"/>
<path d="M65.3887 51.3876H66.2931V66.6299H69.3617V48.6339H65.3887V51.3876Z" fill="white"/>
<path d="M82.8793 49.8695C82.4937 49.4839 82.0371 49.1767 81.5347 48.965C81.0171 48.7424 80.4589 48.6297 79.8954 48.6339H72.1514V66.6298H75.1513V51.3876H79.7905C79.9667 51.3868 80.141 51.4222 80.3028 51.4917C80.4647 51.5611 80.6105 51.6631 80.7312 51.7913C80.8602 51.9115 80.9628 52.0572 81.0323 52.2192C81.1018 52.3812 81.1368 52.5559 81.135 52.7322V66.6501H84.1349V52.8371C84.1401 52.2814 84.0273 51.7309 83.8039 51.2221C83.5856 50.7159 83.2716 50.2566 82.8793 49.8695Z" fill="white"/>
<path d="M112.419 50.0471C112.052 49.6222 111.601 49.2784 111.094 49.0376C110.547 48.768 109.944 48.6298 109.334 48.6339H105.785C105.168 48.6258 104.558 48.7642 104.004 49.0376C103.499 49.2876 103.048 49.6363 102.68 50.0632C102.304 50.5032 102.02 51.0139 101.844 51.5652C101.654 52.145 101.558 52.7517 101.562 53.362V62.4629C101.56 63.0183 101.672 63.5682 101.893 64.078C102.111 64.5721 102.419 65.0212 102.801 65.4024C103.188 65.7879 103.644 66.0962 104.146 66.3109C104.663 66.5338 105.221 66.6465 105.785 66.6419H109.342C109.887 66.6444 110.426 66.5373 110.929 66.327C111.419 66.1263 111.863 65.8298 112.237 65.4549C112.611 65.0814 112.917 64.6455 113.141 64.1668C113.384 63.6771 113.521 63.1421 113.545 62.5962V61.7241H110.63C110.632 62.22 110.563 62.7137 110.424 63.1898C110.356 63.4158 110.21 63.6101 110.012 63.7381C109.813 63.8661 109.576 63.9194 109.342 63.8883H105.89C105.713 63.8927 105.537 63.8589 105.374 63.7892C105.211 63.7196 105.064 63.6156 104.945 63.4845C104.698 63.2456 104.553 62.9198 104.541 62.576V59.681H113.505V53.2772C113.509 52.6725 113.415 52.0712 113.226 51.4966C113.054 50.9653 112.78 50.4728 112.419 50.0471ZM110.517 56.9878H104.574V52.7119C104.573 52.5412 104.609 52.3724 104.679 52.2166C104.748 52.0607 104.85 51.9213 104.977 51.8075C105.098 51.6849 105.242 51.5878 105.401 51.5219C105.56 51.456 105.73 51.4227 105.902 51.4239H109.213C109.385 51.4227 109.555 51.456 109.714 51.5219C109.873 51.5878 110.017 51.6849 110.137 51.8075C110.265 51.9213 110.366 52.0607 110.436 52.2166C110.506 52.3724 110.541 52.5412 110.541 52.7119L110.517 56.9878Z" fill="white"/>
<path d="M97.9838 50.0471C97.6173 49.6223 97.1663 49.2785 96.6595 49.0377C96.1121 48.7681 95.5094 48.6298 94.8992 48.6339H91.342C90.7249 48.6254 90.1146 48.7638 89.5615 49.0377C89.0559 49.2876 88.6056 49.6363 88.2371 50.0633C87.86 50.5031 87.5745 51.0137 87.3973 51.5653C87.2097 52.1456 87.1157 52.7521 87.1187 53.362V62.463C87.1168 63.0184 87.2296 63.5682 87.4498 64.0781C87.6678 64.5721 87.9759 65.0212 88.3583 65.4024C88.7447 65.7879 89.2009 66.0962 89.7027 66.3109C90.2203 66.5338 90.7786 66.6465 91.342 66.642H94.883C95.9671 66.6452 97.0081 66.2183 97.7779 65.4549C98.152 65.0814 98.458 64.6455 98.6823 64.1669C98.9228 63.6764 99.0602 63.1419 99.0861 62.5962V61.7241H96.1912C96.1942 62.2204 96.1234 62.7143 95.9812 63.1898C95.9148 63.4159 95.7695 63.6107 95.5717 63.7389C95.3739 63.8671 95.1367 63.9201 94.9032 63.8883H91.451C91.2738 63.8927 91.0977 63.8589 90.9347 63.7893C90.7717 63.7196 90.6255 63.6157 90.5062 63.4845C90.2588 63.2456 90.114 62.9198 90.1025 62.5761V59.681H99.066V53.2773C99.0699 52.6726 98.9758 52.0712 98.7873 51.4966C98.6151 50.9663 98.3423 50.4742 97.9838 50.0471ZM96.0821 56.9879H90.1186V52.712C90.1184 52.5413 90.1543 52.3725 90.2239 52.2166C90.2935 52.0608 90.3952 51.9213 90.5224 51.8075C90.643 51.6849 90.7869 51.5878 90.9458 51.5219C91.1046 51.456 91.2751 51.4227 91.447 51.424H94.7578C94.9297 51.423 95.1002 51.4564 95.259 51.5222C95.4177 51.5881 95.5617 51.6851 95.6824 51.8075C95.8096 51.9213 95.9114 52.0608 95.981 52.2166C96.0506 52.3725 96.0864 52.5413 96.0862 52.712L96.0821 56.9879Z" fill="white"/>
<path d="M125.795 50.9353C125.572 50.4775 125.264 50.0664 124.887 49.724C124.509 49.3797 124.073 49.1062 123.599 48.9165C123.111 48.7193 122.59 48.6192 122.064 48.6218H116.307V66.6541H119.307V51.5168H122.201C122.508 51.5092 122.807 51.614 123.041 51.8115C123.262 52.0047 123.406 52.2715 123.445 52.5625C123.478 52.7232 123.49 52.8873 123.481 53.0511V53.5397H126.271V52.9623C126.281 52.7687 126.258 52.5749 126.203 52.3889C126.159 51.8832 126.02 51.3902 125.795 50.9353Z" fill="white"/>
<path d="M128.411 51.3876H129.32V66.6299H132.388V48.6339H128.411V51.3876Z" fill="white"/>
<path d="M145.902 49.8695C145.517 49.484 145.06 49.1768 144.558 48.965C144.04 48.7421 143.482 48.6294 142.918 48.6339H135.178V66.6299H138.178V51.3876H142.813C142.988 51.3849 143.162 51.4173 143.324 51.4828C143.486 51.5484 143.633 51.6458 143.757 51.7692C143.881 51.8927 143.979 52.0397 144.045 52.2016C144.111 52.3636 144.144 52.5371 144.142 52.712V66.6299H147.142V52.817C147.145 52.2614 147.032 51.7113 146.811 51.2019C146.593 50.7052 146.285 50.2533 145.902 49.8695Z" fill="white"/>
<path d="M161.669 51.2584C161.455 50.7476 161.14 50.285 160.744 49.8977C160.342 49.5104 159.875 49.1974 159.363 48.9731C158.843 48.7404 158.278 48.622 157.708 48.6258H154.115C153.544 48.622 152.98 48.7404 152.459 48.9731C151.952 49.1947 151.491 49.5082 151.098 49.8977C150.303 50.6999 149.857 51.7842 149.859 52.9138V62.4347C149.856 63.5658 150.302 64.6518 151.098 65.4549C151.902 66.247 152.986 66.6908 154.115 66.6904H158.927V70.8089C158.93 70.9834 158.897 71.1566 158.831 71.3182C158.765 71.4799 158.668 71.6267 158.544 71.7501C158.421 71.8736 158.274 71.9711 158.112 72.0369C157.951 72.1026 157.778 72.1354 157.603 72.1332H154.429C154.244 72.1424 154.059 72.1077 153.889 72.032C153.719 71.9562 153.57 71.8415 153.452 71.6972C153.223 71.4173 153.1 71.0656 153.105 70.7039C153.105 70.5868 153.105 70.4657 153.105 70.3365C153.105 70.2073 153.105 70.0861 153.105 69.969H150.073C150.068 70.6176 150.156 71.2635 150.335 71.8869C150.495 72.4615 150.76 73.0012 151.119 73.4778C151.474 73.9366 151.926 74.3115 152.443 74.576C153.03 74.8609 153.677 74.9995 154.329 74.9798H157.676C158.246 74.9822 158.81 74.8639 159.331 74.6326C159.842 74.4082 160.31 74.0952 160.712 73.7079C161.108 73.3207 161.422 72.858 161.637 72.3472C161.857 71.8231 161.969 71.2602 161.968 70.6918V52.9017C161.978 52.3396 161.876 51.781 161.669 51.2584ZM158.927 63.8681H154.256C154.081 63.8703 153.907 63.8374 153.746 63.7713C153.584 63.7053 153.437 63.6075 153.313 63.4836C153.19 63.3598 153.092 63.2124 153.027 63.0503C152.961 62.8882 152.929 62.7145 152.932 62.5397V52.8089C152.928 52.6318 152.96 52.4559 153.026 52.2915C153.092 52.1272 153.19 51.9777 153.315 51.8519C153.435 51.7223 153.58 51.6194 153.743 51.5498C153.905 51.4803 154.08 51.4456 154.256 51.4482H157.603C157.779 51.4456 157.954 51.4803 158.116 51.5498C158.279 51.6194 158.424 51.7223 158.544 51.8519C158.668 51.9777 158.767 52.1272 158.832 52.2915C158.898 52.4559 158.931 52.6318 158.927 52.8089V63.8681Z" fill="white"/>
<path d="M14.9997 63.2867C16.598 64.8672 18.7559 65.7524 21.0036 65.7496H32.3089V61.4212H21.3024C20.2131 61.3997 19.1749 60.9551 18.4075 60.1816C17.8221 59.5679 17.1962 58.8129 17.1962 57.6379V47.7416H25.1381C25.3245 47.7473 25.5059 47.6807 25.6443 47.5557C25.7828 47.4308 25.8676 47.2573 25.8811 47.0713V43.0901H17.1962V17.8384H31.6588C31.7458 17.8369 31.8316 17.8182 31.9113 17.7834C31.9911 17.7487 32.0632 17.6986 32.1236 17.636C32.1839 17.5734 32.2313 17.4995 32.2631 17.4185C32.2949 17.3376 32.3105 17.2511 32.3089 17.1642V13.183H13.199C13.0261 13.1851 12.861 13.2547 12.7388 13.3769C12.6166 13.4991 12.547 13.6643 12.5449 13.8371V57.2867C12.5421 59.5325 13.4257 61.6887 15.0038 63.2867H14.9997Z" fill="white"/>
<path d="M48.5964 16.2799C48.1488 15.8501 47.6295 15.5016 47.0621 15.2503C46.47 14.9857 45.829 14.8481 45.1805 14.8465H41.0178C40.0459 14.8351 39.093 15.1162 38.283 15.6534C37.473 16.1905 36.8432 16.9589 36.4756 17.8587C36.2117 18.4638 36.0743 19.1164 36.0718 19.7766V40.4657C36.0702 41.1135 36.1966 41.7553 36.4438 42.3542C36.691 42.9531 37.0541 43.4972 37.5122 43.9553C37.9703 44.4134 38.5143 44.7765 39.1132 45.0236C39.712 45.2708 40.3538 45.3973 41.0017 45.3957H45.1644C45.8131 45.396 46.4545 45.2584 47.0459 44.9919C47.615 44.7436 48.1347 44.3948 48.5802 43.9623C49.026 43.5269 49.3886 43.0138 49.6501 42.4482C49.9204 41.8706 50.0715 41.2443 50.0943 40.607V38.4266H46.622V40.7281C46.5703 41.1005 46.3904 41.4432 46.1132 41.6971C45.9833 41.8266 45.8289 41.929 45.6591 41.9983C45.4893 42.0676 45.3074 42.1025 45.124 42.1009H41.1228C40.9229 42.1062 40.7241 42.0689 40.5397 41.9917C40.3552 41.9144 40.1893 41.7989 40.0528 41.6527C39.917 41.5066 39.8115 41.3351 39.7422 41.148C39.6729 40.9609 39.6412 40.7619 39.649 40.5626V19.6312C39.6412 19.4319 39.6729 19.2329 39.7422 19.0458C39.8115 18.8587 39.917 18.6872 40.0528 18.541C40.1901 18.3962 40.3563 18.2819 40.5406 18.2054C40.725 18.1289 40.9233 18.0919 41.1228 18.0969H45.124C45.3075 18.0951 45.4894 18.1299 45.6593 18.1992C45.8291 18.2685 45.9834 18.371 46.1132 18.5007C46.3904 18.7546 46.5703 19.0973 46.622 19.4697V21.7752H50.0943V19.5908C50.072 18.9547 49.9208 18.3298 49.6501 17.7537C49.3899 17.2033 49.033 16.7042 48.5964 16.2799Z" fill="white"/>
<path d="M63.7089 20.5719C62.9014 22.4562 62.1127 24.3405 61.3429 26.2247C60.5354 24.3405 59.7346 22.4562 58.9405 20.5719C58.1465 18.6877 57.3579 16.8034 56.5746 14.9192H53.2637V45.428H56.8168V24.0928C57.3309 25.2799 57.8302 26.4522 58.3147 27.6097C58.7992 28.7671 59.2972 29.9515 59.8086 31.1628H62.8812C63.3657 29.9515 63.8569 28.7671 64.3549 27.6097C64.8529 26.4522 65.3307 25.2799 65.7883 24.0928V45.428H69.3858V14.9192H66.1113C65.3038 16.8034 64.503 18.6877 63.7089 20.5719Z" fill="white"/>
<path d="M85.1931 16.28C84.7455 15.8501 84.2262 15.5017 83.6588 15.2503C83.0667 14.9857 82.4258 14.8482 81.7773 14.8466H77.6186C76.646 14.8343 75.6922 15.115 74.8814 15.6522C74.0705 16.1895 73.4402 16.9583 73.0723 17.8587C72.8084 18.4638 72.671 19.1165 72.6685 19.7766V40.4657C72.6658 41.1139 72.7915 41.7562 73.0383 42.3555C73.2852 42.9549 73.6482 43.4994 74.1065 43.9577C74.5648 44.4161 75.1093 44.7791 75.7086 45.0259C76.3079 45.2727 76.9502 45.3984 77.5984 45.3957H81.7571C82.4058 45.3961 83.0471 45.2584 83.6386 44.9919C84.2077 44.7436 84.7274 44.3949 85.1729 43.9624C85.6187 43.527 85.9814 43.0139 86.2429 42.4482C86.5132 41.8706 86.6642 41.2444 86.687 40.607V38.4267H83.2147V40.7282C83.1642 41.1 82.9857 41.4426 82.71 41.6972C82.4456 41.9581 82.0882 42.1034 81.7167 42.101H77.7195C77.519 42.1065 77.3195 42.0695 77.1344 41.9922C76.9492 41.915 76.7827 41.7992 76.6456 41.6528C76.5098 41.5066 76.4041 41.3351 76.3349 41.148C76.2656 40.9609 76.234 40.762 76.2418 40.5626V19.6313C76.234 19.4319 76.2656 19.233 76.3349 19.0459C76.4041 18.8588 76.5098 18.6872 76.6456 18.5411C76.7835 18.3959 76.9504 18.2814 77.1354 18.2049C77.3204 18.1284 77.5194 18.0916 77.7195 18.0969H81.7167C81.9007 18.0955 82.0832 18.1305 82.2536 18.1997C82.4241 18.269 82.5792 18.3713 82.71 18.5007C82.9838 18.7567 83.1619 19.0986 83.2147 19.4698V21.7753H86.687V19.5909C86.6646 18.9547 86.5136 18.3298 86.2429 17.7537C85.9839 17.2037 85.6283 16.7046 85.1931 16.28Z" fill="white"/>
<path d="M26.4544 5.43477C27.1053 6.01127 27.5278 6.80207 27.6454 7.66358V9.48054H32.3008V7.7726C32.3492 6.8207 32.1518 5.87234 31.7275 5.01887C31.2792 4.04493 30.655 3.16207 29.8863 2.41459C29.1148 1.67116 28.2182 1.06974 27.2376 0.637995C26.2274 0.200382 25.1368 -0.0210436 24.0359 -0.0120667H8.44671C7.33469 -0.0147464 6.23319 0.202681 5.2056 0.627743C4.17802 1.0528 3.24473 1.6771 2.45953 2.46456C1.67434 3.25203 1.0528 4.1871 0.630694 5.21593C0.208588 6.24475 -0.00574723 7.34695 0.000117166 8.45899V48.3029C-0.00254332 49.4136 0.214196 50.5139 0.63789 51.5406C1.06158 52.5674 1.6839 53.5003 2.4691 54.2859C3.25429 55.0715 4.18688 55.6943 5.21339 56.1185C6.2399 56.5427 7.34006 56.7599 8.45075 56.7578H8.83036L8.74145 52.4213C7.71009 52.377 6.73363 51.9443 6.008 51.21C5.67007 50.874 5.40421 50.4726 5.2265 50.0304C5.04879 49.5882 4.96304 49.1144 4.97445 48.638V8.22482C4.96467 7.73088 5.05229 7.23982 5.23242 6.77979C5.41254 6.31976 5.68159 5.89977 6.02416 5.54379C6.36642 5.18045 6.78128 4.8931 7.24175 4.70042C7.70222 4.50774 8.19806 4.41403 8.69709 4.42535H23.9793C24.9049 4.42338 25.7941 4.78602 26.4544 5.43477Z" fill="white"/>
<path d="M31.9855 56.0754V52.0942H20.9023V56.0754C20.9022 56.2502 20.97 56.4181 21.0912 56.5439C21.2125 56.6697 21.3777 56.7434 21.5523 56.7497H31.2668C31.3585 56.7535 31.45 56.739 31.536 56.707C31.622 56.675 31.7007 56.6262 31.7676 56.5634C31.8346 56.5006 31.8883 56.4251 31.9257 56.3413C31.9631 56.2576 31.9834 56.1672 31.9855 56.0754Z" fill="white"/>
</g>
<defs>
<clipPath id="clip0_66_107">
<rect width="162" height="75" fill="white"/>
</clipPath>
</defs>
</svg>
