<svg width="338" height="220" viewBox="0 0 338 220" fill="none" xmlns="http://www.w3.org/2000/svg">
<g clip-path="url(#clip0_576_97)">
<path d="M327.441 172.413C325.948 172.128 324.49 172.021 323.886 171.914L320.33 171.736H318.09H316.242C311.094 172.258 306.071 173.642 301.381 175.83C297.228 177.779 293.255 180.09 289.506 182.735L285.951 185.119C281.542 188.467 276.772 191.309 271.73 193.59L267.499 194.801L264.69 194.979H264.477H262.522L260.246 194.516C258.939 194.167 257.667 193.703 256.442 193.128C252.193 190.999 248.126 188.523 244.283 185.724C241.652 183.945 238.95 182.165 236.106 180.314C231.685 177.485 226.901 175.269 221.885 173.73C220.902 173.373 219.891 173.099 218.863 172.911L216.196 172.377L214.063 172.057L210.508 171.843H210.152L206.597 172.021C205.524 172.049 204.455 172.156 203.397 172.341C197.661 173.242 192.141 175.197 187.114 178.107C182.919 180.49 178.86 183.104 174.955 185.938C171.759 188.266 168.423 190.393 164.965 192.309C164.396 192.629 163.792 192.95 163.152 193.234C162.512 193.519 161.303 193.982 161.232 194.018L159.276 194.658C158.352 194.836 157.428 195.05 157.712 195.085L154.548 195.299H152.664L151.099 194.943L149.393 194.516C146.274 193.44 143.3 191.982 140.54 190.174C138.229 188.785 135.954 187.219 133.643 185.618C128.559 181.844 123.103 178.6 117.36 175.936C116.055 175.331 114.713 174.808 113.342 174.37L111.707 173.836C110.841 173.521 109.948 173.283 109.04 173.124C107.689 172.84 106.303 172.555 104.241 172.27L100.046 171.986C99.4245 171.972 98.8039 172.032 98.1967 172.163L92.1883 172.84C89.3284 173.344 86.5202 174.106 83.7979 175.118C77.2017 177.932 70.9604 181.516 65.2038 185.796L60.7953 188.785C58.1187 190.679 55.2603 192.3 52.2626 193.626C51.4805 194.018 50.6627 194.231 49.7739 194.658L47.8185 195.014C47.2404 195.179 46.6421 195.263 46.0409 195.263H44.4055L40.5301 194.765L39.1436 194.302C36.6555 193.504 34.2691 192.417 32.0331 191.063C29.2955 189.426 26.6646 187.504 23.9271 185.689C21.1895 183.874 18.1319 181.667 15.2166 179.887C13.8656 179.033 12.4436 178.25 9.84822 176.897C8.07058 176.007 6.29291 175.224 4.37306 174.513L2.55984 173.908C1.75718 173.64 0.937655 173.426 0.106689 173.267V199.677C0.746639 199.997 1.38661 200.353 2.23988 200.887C4.5508 202.311 6.89729 203.984 9.35043 205.763C12.408 207.899 15.6788 210.177 19.3763 212.455C23.3936 214.945 27.7207 216.896 32.2464 218.256L33.953 218.755L36.6194 219.289C38.0124 219.584 39.4276 219.763 40.8502 219.822L44.4055 220.036H45.2587C45.7565 220.036 46.7875 220.036 46.7875 220.036C49.4981 219.889 52.1887 219.484 54.8224 218.826L56.5645 218.292C58.554 217.684 60.5018 216.947 62.3952 216.085C66.6218 214.108 70.6463 211.724 74.4119 208.967L78.7849 205.906C83.1774 202.514 87.95 199.647 93.006 197.363C94.0216 196.969 95.0681 196.659 96.1347 196.438L98.0901 196.153H99.4767L104.418 196.901L106.089 197.434C106.63 197.599 107.153 197.813 107.654 198.075C112.166 200.329 116.452 203.011 120.453 206.084C122.728 207.721 125.039 209.358 128.417 211.565L134.425 215.124C136.818 216.308 139.303 217.296 141.855 218.078C143.395 218.615 144.977 219.02 146.584 219.289L148.575 219.68C149.47 219.813 150.372 219.896 151.277 219.929L154.192 220.107C154.889 220.196 155.593 220.196 156.29 220.107L164.609 218.897C166.01 218.572 167.387 218.156 168.733 217.651C170.146 217.208 171.525 216.66 172.857 216.014C174.195 215.445 175.501 214.803 176.768 214.092C181.004 211.694 185.099 209.056 189.034 206.19C195.078 201.884 201.371 197.434 208.055 196.473H209.868L213.423 196.829L215.13 197.221C218.139 198.229 220.998 199.642 223.627 201.421C225.867 202.845 228.107 204.446 230.382 206.119C235.392 209.925 240.748 213.249 246.381 216.05C249.117 217.29 251.946 218.314 254.842 219.111L258.397 219.858C259.868 220.101 261.352 220.256 262.842 220.321H264.477H266.112H268.566C269.834 220.286 271.095 220.131 272.334 219.858C273.614 219.609 274.929 219.36 276.494 218.968L280.298 217.687C284.937 215.795 289.359 213.408 293.488 210.568C295.55 209.216 297.505 207.828 299.39 206.475L303.514 203.592C307.881 200.083 313.047 197.711 318.553 196.687H320.081C321.889 196.739 323.681 197.026 325.414 197.541C330.392 199.321 338.107 202.88 338.178 210.924V176.114C336.382 175.302 334.528 174.624 332.632 174.085C330.954 173.376 329.217 172.816 327.441 172.413Z" fill="#25262A" fill-opacity="0.9"/>
<path d="M325.237 0.426823C324.51 0.281451 323.773 0.198075 323.032 0.177646H320.935H319.655H318.517L316.171 0.355622C314.642 0.56918 313.149 0.925109 311.62 1.24545C305.852 2.99338 300.394 5.63558 295.443 9.07588C290.502 12.3504 285.844 15.9097 280.902 18.6504C279.679 19.3429 278.421 19.9725 277.134 20.5368L275.214 21.3911L273.259 22.0317C272.011 22.427 270.74 22.7479 269.454 22.9927C268.771 23.1758 268.064 23.2597 267.357 23.2419H265.081H264.797C265.117 23.2419 264.797 23.2419 264.797 23.2419H264.264H263.268C262.578 23.2179 261.89 23.1585 261.206 23.0639L259.18 22.6724L258.184 22.4944L257.189 22.1741L255.162 21.5334C254.522 21.3199 253.882 20.9995 253.207 20.7148C251.869 20.1463 250.563 19.5046 249.296 18.7927C244.141 15.9809 239.234 12.1725 233.866 8.64878C228.357 4.72234 222.101 1.97215 215.485 0.569171L214.17 0.319994H212.961L210.543 0.142073H209.761H209.121H207.806C206.953 0.142073 206.064 0.142064 205.211 0.355622C203.487 0.628478 201.788 1.03304 200.126 1.56577L197.638 2.38439L195.291 3.41662C192.235 4.82479 189.298 6.47938 186.51 8.36403C183.701 10.1437 181.035 11.9233 178.404 13.8453C173.431 17.5678 167.899 20.4752 162.014 22.4588C161.303 22.708 160.627 22.7436 159.952 22.9215C159.241 23.1034 158.515 23.2226 157.783 23.2775L155.33 23.4554H154.335H153.232L151.028 23.2775L148.859 22.8503L147.757 22.6368L146.691 22.2809L144.522 21.569C138.733 18.9654 133.248 15.7306 128.168 11.9233C122.747 7.7519 116.762 4.3724 110.391 1.88609C109.538 1.63694 108.72 1.3166 107.832 1.10304L105.058 0.533598L103.707 0.284421H102.463L99.9743 0.106445H98.4812H97.1302C96.2239 0.158395 95.3215 0.265411 94.4281 0.426823L91.7973 0.960696C90.9084 1.13866 90.0907 1.49459 89.2375 1.74374C82.7768 4.08336 76.7104 7.396 71.2478 11.5674C66.2002 15.3862 60.7378 18.6219 54.9646 21.2131C49.4864 23.4291 43.443 23.8282 37.7216 22.352C31.872 20.5647 26.3837 17.7572 21.5095 14.0589C16.2458 10.0944 10.6963 6.52535 4.90632 3.38099C3.36947 2.65758 1.79048 2.02764 0.177856 1.49457V8.04371L2.27546 8.89791C7.77584 11.8459 13.0413 15.2134 18.0253 18.9707C23.3975 23.1856 29.444 26.459 35.9083 28.652C42.9273 30.3757 50.3123 29.8146 56.9911 27.0503C63.1731 24.1649 69.0061 20.5824 74.3764 16.3724C79.3482 12.4785 84.8567 9.32551 90.7307 7.01148C91.4415 6.74872 92.1653 6.52298 92.8994 6.33521L95.1036 5.90811C95.8408 5.755 96.5907 5.67156 97.3435 5.65894H99.4055H101.859H103.103L104.17 5.87254L106.232 6.29964C106.943 6.4776 107.689 6.76235 108.4 6.97591C114.298 9.30202 119.83 12.4667 124.826 16.3724C130.198 20.5957 136.088 24.1125 142.353 26.8368L144.877 27.6554L146.157 28.0825L147.473 28.3673L150.104 28.8655C150.993 28.8655 151.917 28.8655 152.806 29.0791H154.157H155.614H158.068C158.965 28.9953 159.855 28.8526 160.734 28.652C161.658 28.4384 162.618 28.3317 163.472 28.0469C170.031 25.9956 176.189 22.829 181.675 18.686C186.655 14.8057 192.002 11.4202 197.638 8.57758L199.7 7.68776L201.797 7.01148C203.192 6.563 204.618 6.21802 206.064 5.97931C206.775 5.97931 207.521 5.97931 208.233 5.97931H209.299H210.117H212.499C212.89 5.97931 213.317 5.97931 213.672 5.97931L214.668 6.19286L216.694 6.58439L218.756 7.29624C220.154 7.76452 221.519 8.32333 222.845 8.96911C225.541 10.3337 228.143 11.8796 230.631 13.5962C235.75 17.1555 240.657 20.9639 246.345 24.2741C252.112 27.7916 258.72 29.6853 265.472 29.7554L267.748 29.5774C268.548 29.5426 269.344 29.4474 270.13 29.2926C271.811 29.0609 273.466 28.6677 275.072 28.1181L277.418 27.3351L279.622 26.3741C281.116 25.7334 282.431 24.9147 283.853 24.2029C289.293 21.1063 293.95 17.4046 298.679 14.2013C303.077 11.0458 307.966 8.64049 313.149 7.08269C314.393 6.86913 315.637 6.5488 316.917 6.37084H318.802H319.726H320.544H322.641C323.289 6.37171 323.934 6.45541 324.561 6.61996C325.765 6.82125 326.953 7.10671 328.116 7.47421C331.63 8.69598 334.975 10.3583 338.071 12.4216V5.12506C335.454 3.72497 332.702 2.59217 329.858 1.74374C328.356 1.1791 326.811 0.738661 325.237 0.426823Z" fill="#25262A" fill-opacity="0.9"/>
<path d="M327.192 77.9843L325.983 77.7351C325.152 77.565 324.307 77.4698 323.459 77.4504L319.904 77.2725H318.837H316.882C315.598 77.3374 314.324 77.5281 313.078 77.842L311.904 78.0911C306.105 79.5319 300.588 81.9383 295.585 85.2097C293.026 86.8114 290.573 88.4842 288.191 90.1571C285.809 91.83 284.386 92.7554 282.502 93.9656C278.924 96.4676 274.994 98.4228 270.841 99.7672C270.313 99.8396 269.79 99.9467 269.277 100.088L267.997 100.337L264.975 100.55H263.446H261.988C261.491 100.55 260.993 100.337 260.495 100.23C259.905 100.131 259.322 99.9879 258.753 99.8028C254.319 98.3503 250.135 96.2256 246.345 93.5028C244.852 92.5418 243.359 91.474 241.83 90.4418C238.772 88.3419 235.644 86.1707 232.266 84.1419C226.54 80.544 220.073 78.2927 213.352 77.5572H210.437H209.512L207.201 77.7351C205.838 77.7826 204.482 77.9494 203.148 78.2334L200.802 78.7318C199.912 78.9452 199.033 79.2066 198.171 79.5148L193.549 81.2944C187.864 84.0181 182.448 87.2715 177.373 91.0113C173.423 93.9177 169.223 96.4667 164.823 98.6282L161.765 99.8028L160.343 100.265L158.281 100.728C157.961 100.728 156.93 100.728 156.29 100.728H154.512H154.086H152.379C147.927 100.113 143.666 98.5211 139.9 96.0655C137.056 94.4283 134.283 92.5062 131.438 90.513C129.732 89.3741 127.883 88.1639 126.283 86.9537C121.042 83.2435 115.229 80.418 109.076 78.5894C107.405 78.2335 105.521 77.8419 103.707 77.5928L100.152 77.3436C99.6915 77.2894 99.2261 77.2894 98.7655 77.3436H97.3434C96.1525 77.4143 94.9659 77.545 93.7881 77.7351L92.4016 78.0199C91.2723 78.2102 90.1561 78.4717 89.0597 78.8029C83.0258 80.7818 77.3306 83.6747 72.1721 87.3808C70.5367 88.4486 68.9723 89.552 67.408 90.6198C64.5637 92.5774 61.8617 94.4639 59.0886 96.0655C57.1515 97.2222 55.1313 98.2334 53.0447 99.0909L51.3026 99.696L44.192 100.871H42.9478L35.8372 99.3045C31.6892 97.5418 27.7631 95.2958 24.1403 92.613L21.1539 90.5486C17.9542 88.3063 14.6833 85.9927 11.0213 83.8571L7.46607 81.8996C6.518 81.4487 5.55808 81.0216 4.58631 80.6182L3.48418 80.1555C2.4887 79.764 1.45762 79.4436 0.426586 79.0877H0.142212V96.2791L3.37753 97.5249C6.3284 99.2689 9.24373 101.298 12.2657 103.433L15.3588 105.604C20.0257 109.024 25.0869 111.868 30.4331 114.076C31.8197 114.538 33.2062 115.001 34.9839 115.535L36.0149 115.784C37.1882 115.998 38.3259 116.247 39.8191 116.46L44.0143 116.781C44.3689 116.816 44.7262 116.816 45.0808 116.781L49.0272 116.496L50.236 116.318C51.6226 116.069 53.0092 115.82 54.6091 115.392L55.9245 114.965C56.9854 114.651 58.0296 114.283 59.0531 113.862C61.8866 112.683 64.6211 111.279 67.2302 109.662C70.5366 107.669 73.5942 105.498 76.545 103.362L80.8825 100.337C84.7429 97.5021 89.0103 95.27 93.5393 93.7164C93.8935 93.5764 94.2637 93.4807 94.6414 93.4316L96.348 93.1113C96.9126 93.0169 97.4826 92.9574 98.0545 92.9333H99.4766H99.7255L105.378 93.7164C109.898 95.1264 114.151 97.2796 117.964 100.088C119.564 101.155 121.164 102.294 122.799 103.433C125.75 105.533 128.808 107.74 132.043 109.698C132.932 110.267 133.892 110.765 134.887 111.299L136.274 112.047C137.411 112.616 138.549 113.115 139.829 113.613L142.353 114.574C143.526 114.965 144.664 115.357 145.908 115.677L148.184 116.14C149.131 116.351 150.095 116.481 151.064 116.531H153.481H154.441C154.76 116.568 155.082 116.568 155.401 116.531H157.499C158.814 116.471 160.121 116.304 161.409 116.033L163.969 115.499C164.645 115.499 165.214 115.143 165.818 114.965L167.133 114.538L169.124 113.826L171.258 112.865C176.946 110.12 182.342 106.805 187.363 102.971C191.252 99.9798 195.419 97.3695 199.806 95.1757L202.828 94.0011L204.286 93.5384L206.313 93.1469C206.909 93.0221 207.517 92.9625 208.126 92.969H209.832H210.117H212.072C216.449 93.5979 220.629 95.2036 224.302 97.6672C227.146 99.3401 229.884 101.226 232.728 103.326C234.328 104.465 235.928 105.604 237.599 106.708C242.61 110.358 248.165 113.193 254.06 115.108C255.221 115.484 256.41 115.77 257.615 115.962L259.073 116.247C260.25 116.436 261.437 116.555 262.628 116.603H264.335C264.867 116.658 265.403 116.658 265.935 116.603L269.099 116.389C270.343 116.389 271.765 115.962 273.152 115.677L274.289 115.428C280.24 113.75 285.865 111.078 290.928 107.526C292.99 106.138 294.946 104.75 296.866 103.362C298.785 101.974 301.416 100.123 303.727 98.6638C307.138 96.3007 310.943 94.5651 314.962 93.5384L316.171 93.2893C316.719 93.1612 317.279 93.0896 317.842 93.0757H319.939L323.495 93.3604L324.881 93.6452C325.373 93.7376 325.86 93.8564 326.339 94.0011C330.236 95.3 333.925 97.1584 337.289 99.5181L338.071 100.088V81.8284C335.78 80.6825 333.402 79.7185 330.961 78.9453C329.73 78.5316 328.47 78.2104 327.192 77.9843Z" fill="#25262A" fill-opacity="0.9"/>
</g>
<defs>
<clipPath id="clip0_576_97">
<rect width="338" height="220" fill="white"/>
</clipPath>
</defs>
</svg>
