<svg width="156" height="156" viewBox="0 0 156 156" fill="none" xmlns="http://www.w3.org/2000/svg">
<path d="M10.1152 0H145.967C148.583 0.0422879 151.079 1.10192 152.928 2.9544C154.776 4.80687 155.831 7.30673 155.869 9.92409V33.5385C154.666 32.8693 153.399 32.3207 152.088 31.9009C151.395 31.6967 150.69 31.538 149.977 31.4259C149.642 31.3581 149.303 31.3198 148.962 31.3113H145.819C145.339 31.3672 144.858 31.4689 144.383 31.5695C144.162 31.6163 143.942 31.6628 143.724 31.7044C141.051 32.5424 138.527 33.797 136.244 35.4218C135.493 35.9191 134.757 36.4324 134.025 36.9423C132.539 37.9774 131.074 38.9985 129.55 39.8433C129.019 40.1594 128.473 40.4491 127.913 40.7113L127.029 41.0879L126.129 41.3828C125.554 41.5627 124.969 41.7104 124.378 41.825C124.058 41.9152 123.728 41.9592 123.396 41.9559H121.448C121.137 41.9721 120.826 41.9721 120.515 41.9559L119.582 41.7758L119.107 41.6774L117.732 41.2354C117.514 41.1663 117.303 41.0728 117.089 40.9778C116.999 40.9377 116.908 40.8974 116.816 40.8586C116.204 40.6059 115.608 40.3162 115.032 39.9908C113.397 39.1057 111.823 38.0135 110.201 36.8874C109.452 36.3676 108.692 35.8406 107.912 35.3234C105.386 33.5053 102.51 32.2338 99.4661 31.5898L98.8441 31.4751H95.9143C95.5215 31.5897 95.1124 31.5898 94.7195 31.5898C93.9282 31.7176 93.1463 31.8981 92.379 32.1302L91.2496 32.5068L90.1529 32.9817C88.7491 33.636 87.3976 34.397 86.1101 35.2581C85.2606 35.8574 84.4328 36.4132 83.6123 36.9641C83.1997 37.2411 82.789 37.5168 82.3783 37.7963C80.0814 39.4971 77.5364 40.8339 74.8328 41.7594C74.6497 41.8143 74.4718 41.8488 74.2961 41.8828C74.1576 41.9096 74.0205 41.9362 73.8835 41.9723C73.5563 42.0573 73.2222 42.112 72.8851 42.136H69.7753L68.7768 41.9231L68.2694 41.825L67.7784 41.661L66.7963 41.35C64.1341 40.1398 61.6098 38.6465 59.2672 36.8957C56.7679 34.9862 54.0131 33.4371 51.0833 32.2939L49.9049 31.9173L48.6446 31.6716L48.0062 31.557H44.9782C44.5662 31.5674 44.1556 31.6111 43.7507 31.688L42.5231 31.95C42.1234 32.0397 41.7299 32.1545 41.3447 32.2939C38.3718 33.3736 35.5795 34.8975 33.0626 36.8137C30.7409 38.5696 28.2323 40.0634 25.5826 41.268C23.0532 42.2799 20.2681 42.4635 17.6279 41.7922C14.9387 40.9527 12.414 39.6565 10.1642 37.9602C7.74766 36.1265 5.19206 34.4839 2.52056 33.0473C1.8108 32.7021 1.078 32.4066 0.327349 32.1629L0.098178 32.081V10.0222C0.106816 7.36683 1.16495 4.82267 3.04163 2.945C4.91832 1.06733 7.46114 0.00863555 10.1152 0Z" fill="#20469A"/>
<path d="M148.896 34.1772C149.199 34.1859 149.501 34.2242 149.797 34.2917C150.331 34.3981 150.856 34.546 151.368 34.7339C152.987 35.2926 154.527 36.0577 155.951 37.0102V68.9931C154.903 68.4507 153.807 68.0066 152.677 67.6665C152.141 67.5021 151.594 67.3762 151.041 67.2899L150.468 67.1917C150.086 67.1057 149.697 67.0617 149.306 67.0606L147.669 66.9624H146.261C145.676 66.9923 145.095 67.0801 144.526 67.2245L143.986 67.3391C141.311 68.0017 138.766 69.1088 136.457 70.6143C135.833 71.0042 135.187 71.4492 134.573 71.8715C134.028 72.2472 133.507 72.6055 133.053 72.8906C132.501 73.2364 132.009 73.5822 131.53 73.9188C131.169 74.1721 130.816 74.4201 130.45 74.6592C128.801 75.8025 126.992 76.6964 125.081 77.3121L124.361 77.4596L123.772 77.5742L122.365 77.6887H121.006L120.302 77.5578C120.03 77.5121 119.762 77.4465 119.5 77.3613C117.462 76.6862 115.536 75.7091 113.788 74.4627L111.709 73.038C111.51 72.8998 111.312 72.7609 111.112 72.6217C109.919 71.7877 108.709 70.9416 107.306 70.1557C104.673 68.4936 101.694 67.4572 98.5986 67.1262H95.7833C95.1499 67.1521 94.5201 67.2344 93.9011 67.3718L92.8208 67.5847C92.6017 67.6363 92.3827 67.7082 91.9798 67.8403L91.9764 67.8414C91.8685 67.8768 91.7474 67.9166 91.6096 67.9614L89.4818 68.7802C86.8061 70.0396 84.2574 71.5531 81.8709 73.3C80.0622 74.6477 78.1337 75.8263 76.1095 76.821L74.6855 77.3613L74.0308 77.5742L73.0978 77.7707C72.7927 77.7921 72.4864 77.7921 72.1813 77.7707H70.3645C68.3165 77.4917 66.355 76.7648 64.6194 75.6417C63.3857 74.9074 62.167 74.0688 60.9204 73.2111L60.7403 73.0871C60.04 72.5422 59.2509 72.0268 58.4856 71.527L58.3669 71.4495C55.9453 69.7434 53.2649 68.4384 50.4287 67.5847C50.2476 67.5492 50.0705 67.5137 49.895 67.4785L49.8926 67.478C49.2597 67.3512 48.6485 67.2286 47.9571 67.1262L46.3204 67.028C46.1083 67.0035 45.8941 67.0035 45.682 67.028H45.011C44.4621 67.0531 43.9154 67.1132 43.3742 67.2081L42.7359 67.3391C42.2152 67.4229 41.7011 67.5432 41.1973 67.6993C38.4676 68.5659 35.885 69.8414 33.5373 71.4823L33.161 71.7357L33.1601 71.7363C32.5379 72.1551 31.927 72.5662 31.3276 72.9888C31.0521 73.1737 30.7781 73.3593 30.5052 73.5443L30.5022 73.5463C29.4949 74.2289 28.5013 74.9021 27.4976 75.4944C26.6055 76.0214 25.6754 76.4811 24.7151 76.8699C24.4585 76.9772 24.1963 77.0702 23.9295 77.1484L20.6559 77.7051H20.0667L16.7932 77.0011C14.8793 76.1816 13.0667 75.143 11.3918 73.9059L10.017 72.9562C8.54388 71.9245 7.00527 70.86 5.3685 69.8938L3.73173 68.9767L2.40596 68.3872L1.91496 68.1743C1.44029 67.9941 0.96564 67.8467 0.490974 67.6993L0.114552 67.5683V35.0944L1.32574 35.5855C3.85693 36.9498 6.28085 38.5045 8.57659 40.2363C11.1015 42.1206 13.9226 43.5706 16.9241 44.5269C20.1482 45.325 23.5429 45.0726 26.6138 43.8064C29.4613 42.4815 32.1468 40.833 34.6175 38.8936C36.9104 37.108 39.4455 35.6578 42.1466 34.5866C42.4731 34.468 42.8065 34.3695 43.1451 34.2917L44.1762 34.079C44.5105 34.0131 44.8504 33.9801 45.191 33.9807H47.8426L48.3336 34.079L49.2993 34.2755L50.2813 34.603C53.0013 35.6631 55.5495 37.12 57.8432 38.9263C60.3233 40.8549 63.0339 42.4666 65.9124 43.7245L67.0745 44.1175L67.6638 44.2978L68.2693 44.4287L69.4969 44.6744C69.9057 44.7726 70.3144 44.7726 70.7232 44.7726H73.147C73.5656 44.7354 73.9812 44.6697 74.3909 44.5761C74.8112 44.5103 75.2266 44.4174 75.6348 44.2978C78.6404 43.3222 81.4539 41.8315 83.9496 39.8925C86.2397 38.1161 88.6952 36.5642 91.2822 35.2581L92.2316 34.8323L93.1973 34.521C93.8383 34.3141 94.4951 34.1609 95.1614 34.0626C95.4938 34.039 95.8275 34.039 96.1599 34.0626H98.2058C98.3803 34.0538 98.5551 34.0538 98.7296 34.0626L99.2042 34.1608L100.121 34.3573L101.087 34.6686C101.724 34.887 102.347 35.144 102.952 35.4382C104.194 36.0757 105.396 36.7865 106.553 37.567C107.088 37.9466 107.623 38.335 108.162 38.7261L108.164 38.728C109.949 40.0234 111.773 41.3482 113.771 42.4799C116.429 44.0937 119.469 44.9699 122.577 45.0182L123.625 44.9201C123.993 44.905 124.36 44.861 124.721 44.789C125.502 44.6901 126.27 44.5091 127.013 44.2486L128.077 43.8884L129.092 43.4462C129.759 43.1494 130.409 42.8159 131.039 42.4473C132.717 41.493 134.24 40.4137 135.717 39.367C136.445 38.8511 137.162 38.3431 137.881 37.8618C139.893 36.3783 142.139 35.2434 144.526 34.5046C144.718 34.4674 144.907 34.4199 145.095 34.3726C145.487 34.2743 145.874 34.1772 146.261 34.1772H148.896Z" fill="#20469A"/>
<path d="M147.587 121.659C148.418 121.681 149.243 121.808 150.042 122.036C152.399 122.822 155.984 124.459 156 128.259V146.06C155.97 148.689 154.912 151.203 153.051 153.061C151.191 154.919 148.677 155.974 146.048 156H10.0824C7.44126 155.978 4.91517 154.916 3.05214 153.043C1.18911 151.169 0.139397 148.637 0.130859 145.994V123.067L0.252546 123.134C0.570321 123.306 0.888364 123.479 1.30938 123.755C2.07776 124.194 2.8825 124.77 3.71681 125.367C4.00214 125.571 4.29093 125.778 4.5829 125.982C5.9234 126.98 7.55775 128.027 9.19249 129.073L9.19861 129.077C11.0465 130.211 13.0323 131.103 15.1073 131.73L15.9093 131.96L17.1369 132.205C17.7732 132.341 18.4188 132.429 19.0682 132.467H21.818C23.0608 132.392 24.2938 132.2 25.5007 131.894C25.5502 131.887 25.6883 131.84 25.8384 131.789C26.0358 131.723 26.254 131.649 26.3191 131.649C27.2322 131.376 28.1239 131.037 28.987 130.633C30.9397 129.727 32.7983 128.63 34.5357 127.358L36.5489 125.95C38.5686 124.386 40.7663 123.066 43.0959 122.019C43.5586 121.84 44.0349 121.698 44.52 121.594L45.4202 121.479H46.0585L48.3336 121.806L49.0865 122.052C49.3391 122.132 49.5853 122.23 49.8231 122.347C51.8985 123.384 53.8666 124.624 55.699 126.048L56.0533 126.297C56.9946 126.96 57.9993 127.668 59.3654 128.57L62.1479 130.207C63.2473 130.745 64.3853 131.199 65.5524 131.567C66.2693 131.804 67.0022 131.99 67.7456 132.124L68.6459 132.287C69.0575 132.356 69.4729 132.4 69.8899 132.418H71.2319C71.553 132.451 71.8766 132.451 72.1977 132.418L76.044 131.878C76.681 131.72 77.3094 131.529 77.9263 131.305C78.5832 131.097 79.2234 130.84 79.8413 130.535C80.4518 130.273 81.0474 129.978 81.6254 129.651C83.579 128.553 85.4647 127.339 87.2723 126.015L87.3082 125.99C90.0958 124.016 92.9651 121.985 96.0453 121.544H96.8637L98.5005 121.708L99.3025 121.905C100.688 122.355 102.001 123.006 103.198 123.837C104.033 124.346 104.847 124.928 105.681 125.524C105.894 125.676 106.108 125.829 106.324 125.982C108.617 127.745 111.079 129.275 113.673 130.551C114.927 131.136 116.231 131.608 117.569 131.96L119.205 132.304C119.876 132.425 120.554 132.496 121.235 132.517H123.887C124.465 132.5 125.04 132.428 125.605 132.304C126.25 132.201 126.89 132.064 127.52 131.894L129.288 131.321C131.416 130.444 133.446 129.347 135.344 128.046C136.293 127.423 137.194 126.785 138.061 126.163L139.96 124.836C141.974 123.218 144.359 122.127 146.9 121.659H147.587Z" fill="#20469A"/>
<path d="M150.566 74.561C150.353 74.487 150.134 74.4322 149.911 74.3973C149.698 74.3973 149.486 74.3971 149.273 74.2497L147.636 74.1188H146.67C146.411 74.1252 146.154 74.158 145.901 74.217L145.361 74.3153C143.501 74.7837 141.743 75.5884 140.172 76.6898C139.125 77.3612 138.077 78.0983 137.014 78.8516C136.881 78.9453 136.754 79.0355 136.631 79.1227C136.533 79.1923 136.438 79.26 136.345 79.3262L136.344 79.3274C135.616 79.8448 135.02 80.2685 134.297 80.7513C131.967 82.3913 129.377 83.6259 126.636 84.4031L126.096 84.5013C125.458 84.6323 124.803 84.7634 124.23 84.8289L122.774 84.9271C122.528 84.942 122.282 84.942 122.037 84.9271H121.251C120.703 84.9056 120.156 84.851 119.615 84.7634L118.927 84.6324C118.374 84.5362 117.827 84.4048 117.29 84.2392C114.58 83.3515 112.023 82.0477 109.712 80.3744C108.943 79.8504 108.223 79.3264 107.486 78.7368L107.31 78.6133C106.062 77.7391 104.841 76.8838 103.591 76.133C101.901 75.011 99.9837 74.2784 97.9767 73.9879H96.0126C95.7402 73.9659 95.4665 73.9659 95.1942 73.9879L94.2448 74.1844L93.5902 74.3973L92.1826 74.9376C90.163 75.941 88.2446 77.1364 86.4539 78.5075C84.1449 80.2714 81.6667 81.802 79.0557 83.0766L78.0573 83.5187L77.1407 83.8298L76.5351 84.0265C76.256 84.1282 75.9719 84.2155 75.684 84.2884L74.5055 84.5177C73.9193 84.6503 73.322 84.7271 72.7214 84.747H71.7393C71.5925 84.764 71.4443 84.764 71.2975 84.747H69.7589C69.3123 84.7178 68.8689 84.6521 68.4331 84.5504L67.3692 84.3376C66.8148 84.2049 66.2683 84.0407 65.7324 83.8462L64.5704 83.4042L62.9336 82.6835L62.2789 82.3233C61.837 82.094 61.395 81.8483 60.9695 81.5863C59.48 80.6856 58.0724 79.6866 56.7138 78.7204L56.52 78.5814C55.8343 78.0895 55.1611 77.6067 54.4879 77.0828C52.7273 75.7992 50.7706 74.8094 48.6937 74.1516L46.0912 73.8076H45.322C45.0604 73.7913 44.7979 73.7913 44.5363 73.8076L43.7507 73.9715L43.2433 74.086C41.1611 74.8074 39.1974 75.8339 37.4164 77.132C36.9332 77.4583 36.45 77.8025 35.9602 78.1513C35.7866 78.275 35.6115 78.3997 35.4359 78.5239C34.061 79.5065 32.6534 80.5055 31.1312 81.4225C29.9357 82.1664 28.6823 82.8127 27.383 83.355C26.9127 83.5507 26.4318 83.7201 25.9427 83.8626L25.3207 84.0591C24.6173 84.2467 24.0036 84.3598 23.408 84.4694L23.3239 84.4849L22.751 84.5832L20.9342 84.7142H20.4432L18.5282 84.5832C17.8244 84.4686 17.3006 84.3702 16.7768 84.2556L16.3021 84.1574C15.4837 83.9118 14.8291 83.6988 14.1907 83.4696C11.7312 82.4502 9.40158 81.1418 7.25085 79.572L5.55155 78.3857C4.24956 77.4761 2.99934 76.6026 1.73497 75.871L0 75.1997V110.703C0.1202 110.733 0.241535 110.762 0.363105 110.791C0.70479 110.873 1.04905 110.955 1.37483 111.063L2.22598 111.342C2.85288 111.583 3.44423 111.851 4.06548 112.133C4.28769 112.233 4.51372 112.336 4.74656 112.439C5.92503 113.062 6.57973 113.422 7.2017 113.815C8.54386 114.634 9.90239 115.567 11.2282 116.484C11.4252 116.62 11.6183 116.755 11.8083 116.887L11.8199 116.895C12.9037 117.648 13.8884 118.332 14.9437 118.957C15.9743 119.582 17.0725 120.087 18.2172 120.464L18.8555 120.676L20.656 120.889H21.4088C21.6856 120.889 21.961 120.851 22.2272 120.775L23.1275 120.611C23.3236 120.528 23.5093 120.459 23.6878 120.392C23.8966 120.315 24.0954 120.241 24.2895 120.152C25.6613 119.526 26.9758 118.781 28.2178 117.925L30.231 116.55C32.8835 114.584 35.7565 112.935 38.7913 111.637C40.0443 111.166 41.3371 110.81 42.6541 110.572L45.4366 110.277C45.7211 110.212 46.0121 110.179 46.304 110.179L48.219 110.31C49.1684 110.458 49.8558 110.572 50.4287 110.703C50.845 110.784 51.2552 110.893 51.6563 111.031L52.4091 111.276C53.0449 111.471 53.6635 111.717 54.2587 112.013C56.8987 113.24 59.41 114.726 61.7551 116.451C61.9917 116.613 62.2258 116.774 62.4585 116.934C63.2884 117.506 64.0995 118.065 64.9304 118.564C66.203 119.388 67.5717 120.054 69.006 120.545L69.808 120.758L70.5118 120.906H71.3793L72.8196 120.807C72.6887 120.807 73.1143 120.709 73.5562 120.627L74.44 120.332L75.3238 119.956C75.6152 119.836 75.8994 119.699 76.175 119.546C77.7546 118.653 79.2844 117.674 80.7579 116.615C82.5556 115.311 84.4244 114.108 86.3557 113.012C88.6749 111.668 91.2216 110.764 93.8684 110.343C94.3509 110.267 94.8372 110.218 95.3252 110.196H97.1911L98.8279 110.31C98.9588 110.31 99.6789 110.425 99.8099 110.458L101.037 110.687C101.511 110.773 101.976 110.899 102.429 111.063C104.739 111.769 106.942 112.788 108.976 114.093C110.301 114.912 111.546 115.731 112.74 116.582C114.51 117.869 116.382 119.008 118.338 119.989C118.91 120.251 119.501 120.47 120.106 120.644L121.137 120.84H122.217L123.51 120.742L125.458 120.185C127.784 119.152 129.982 117.849 132.005 116.304L133.642 115.19C135.37 113.982 137.199 112.924 139.109 112.03C141.265 111.012 143.578 110.369 145.95 110.13H147.849L149.486 110.228C149.829 110.228 150.5 110.327 151.122 110.441C151.889 110.557 152.645 110.738 153.381 110.982C154.26 111.227 155.119 111.539 155.951 111.915V77.0828L155.574 76.8373C154.026 75.8368 152.338 75.0698 150.566 74.561Z" fill="#20469A"/>
</svg>
