<svg width="196" height="196" viewBox="0 0 196 196" fill="none" xmlns="http://www.w3.org/2000/svg">
<path d="M185.428 42.8071L184.885 42.8488L183.786 42.9184C183.063 43.0158 182.34 43.1967 181.602 43.322C178.709 44.1013 175.955 45.6878 173.242 47.5387C170.502 49.3757 167.803 51.5188 164.645 53.3001C163.839 53.7315 163.073 54.2047 162.197 54.5526L160.917 55.1232C160.472 55.2902 160.027 55.4293 159.568 55.5824C158.706 55.9164 157.69 56.0973 156.688 56.2643C156.174 56.3757 155.743 56.3896 155.311 56.4174L154.004 56.5287C149.886 56.5983 146.228 55.1928 142.931 53.3558C139.648 51.5049 136.796 49.2226 133.847 47.2465C132.373 46.2445 130.884 45.3399 129.34 44.5745C128.561 44.2405 127.796 43.823 126.976 43.6003L125.779 43.2106L124.611 42.9741L124.026 42.8488C123.832 42.8071 123.567 42.8071 123.345 42.7932L121.968 42.6957L121.801 42.6818C121.648 42.6818 121.815 42.6679 121.745 42.6818L121.425 42.7097L120.799 42.7514C120.382 42.7932 119.965 42.7792 119.547 42.8627C118.727 43.0576 117.878 43.1272 117.085 43.4472L115.861 43.8369L114.665 44.3657C111.465 45.7713 108.53 48.0257 105.442 50.2106C102.382 52.4094 98.9735 54.5943 95.009 55.7494C94.5221 55.9164 93.9657 55.986 93.4371 56.0973C92.9224 56.1808 92.3242 56.3478 91.8791 56.3478L90.4603 56.4452L90.0986 56.4731C90.1403 56.4731 89.8482 56.487 89.8064 56.487L89.6117 56.4731L88.8327 56.4174C88.318 56.3757 87.7894 56.3618 87.2747 56.2922L85.7445 55.986L84.9795 55.8329L84.2422 55.5964L82.7677 55.1093C78.9423 53.6063 75.7011 51.2822 72.6269 49.0695C69.5387 46.8846 66.4645 44.7415 63.126 43.6282C62.7087 43.5029 62.2913 43.3359 61.874 43.2246L60.6638 42.9741L60.0517 42.8488L59.3423 42.8071L57.9095 42.7097L56.7132 42.7932C56.282 42.821 55.8507 42.821 55.4195 42.9323L54.1397 43.1828C53.7085 43.2524 53.3051 43.4333 52.8878 43.5585C49.5492 44.658 46.5167 46.815 43.4147 48.9721C40.3404 51.157 37.1271 53.481 33.3573 55.0536C29.5319 56.6401 25.1918 56.9741 21.1578 55.9721C17.1654 54.8588 13.7712 52.7017 10.6692 50.5725C7.58102 48.4293 4.65982 46.2306 1.55776 44.7276C1.04307 44.5188 0.542279 44.3101 0.0275879 44.1013V84.9323L0.500542 85.0854C1.0987 85.2803 1.69685 85.4751 2.28109 85.6838L2.90709 85.9482C3.46351 86.1848 4.03386 86.4353 4.57637 86.6997L6.70469 87.8409C8.8191 89.0655 10.7109 90.4015 12.561 91.6958L14.2859 92.8926C16.4142 94.3677 18.7095 95.8429 21.0743 96.7614L25.1918 97.6659L25.9291 97.7216C25.943 97.7216 25.943 97.7216 25.943 97.7216L30.0466 97.0258C30.3805 96.9284 30.7143 96.817 31.0482 96.6779C32.2028 96.2047 33.3712 95.6341 34.5397 94.9383C36.1394 94.0059 37.7253 92.9065 39.3528 91.7793C40.257 91.153 41.1751 90.5268 42.121 89.9005C44.7779 88.147 47.9912 86.2266 51.7471 85.1411C52.3035 84.9462 52.9852 84.8071 53.6807 84.6818L54.4875 84.5149C55.2387 84.3757 55.9342 84.3339 56.6158 84.2922L57.4504 84.2365L57.4644 84.2783C57.7148 84.2365 57.993 84.2087 58.2573 84.2365L60.3439 84.3757C61.4428 84.5288 62.5 84.7375 63.4598 84.9601C67.4382 86.0456 70.7211 88.0079 73.4198 89.8031C74.4353 90.4711 75.4229 91.153 76.3966 91.821C78.052 92.9622 79.6517 94.0755 81.2793 95.0357C83.9223 96.6222 86.2871 97.4989 88.5128 97.7216L89.5004 97.7912C89.57 97.8051 89.6534 97.8051 89.7369 97.819L90.7802 97.7494C91.1418 97.7216 91.74 97.6938 91.9348 97.6381L93.1172 97.3876C93.145 97.3737 93.9101 97.1232 93.9379 97.1232L95.7184 96.4413C98.125 95.3697 100.476 93.7554 102.98 92.0298C105.845 90.0536 108.794 88.0079 112.328 86.4214L115.012 85.3916C115.819 85.1271 116.167 85.0158 116.529 84.9323L117.878 84.654C118.574 84.4731 119.408 84.4035 120.243 84.3478L121.578 84.2504V84.2643C121.717 84.2504 121.856 84.2643 121.982 84.2643C121.996 84.2643 122.009 84.2643 122.009 84.2643C122.037 84.2643 122.079 84.2643 122.107 84.2783V84.2643L123.776 84.3617C127.379 84.6818 130.94 85.9204 134.724 88.161C136.685 89.316 138.507 90.5685 140.26 91.7932C141.15 92.4055 142.013 93.0039 142.875 93.5745C145.755 95.4949 147.98 96.6083 150.053 97.2206C150.47 97.3737 150.777 97.4154 151.069 97.4711C151.361 97.5268 151.653 97.5685 151.931 97.652C152.112 97.6799 152.432 97.6937 152.766 97.7077L153.656 97.7773L155.423 97.652C155.617 97.6242 155.896 97.5546 156.16 97.4989C156.466 97.4293 156.758 97.3737 157.064 97.318C159.234 96.7613 161.599 95.3836 163.811 93.9781C164.896 93.2822 165.981 92.5168 167.094 91.7514C168.485 90.7912 169.89 89.817 171.364 88.8985C174.814 86.7415 177.819 85.4194 180.823 84.7236L181.505 84.5844C182.228 84.4313 182.952 84.2922 183.703 84.2643L184.857 84.1808C184.913 84.1808 185.428 84.1391 185.469 84.1391L187.542 84.2365C187.959 84.2504 188.419 84.2782 189.003 84.4035L189.712 84.5287C190.422 84.654 191.131 84.7931 191.757 85.0019C193.273 85.4333 194.65 86.0456 195.972 86.6719V46.4671C194.122 45.3121 192.23 44.2544 190.213 43.6003C189.504 43.322 188.864 43.2663 188.196 43.0854C187.89 42.988 187.486 42.9601 187.069 42.9462L185.859 42.8627L185.553 42.8349C185.469 42.8349 185.678 42.8488 185.525 42.8349L185.428 42.8071Z" fill="#20469A"/>
<path d="M122.33 138.831L124.333 138.97C124.5 138.984 125.404 139.123 125.571 139.151L127.115 139.444C127.741 139.569 128.339 139.708 128.868 139.917C132.053 140.807 134.947 142.436 137.075 143.73C138.73 144.76 140.302 145.817 141.804 146.847C144.294 148.545 146.631 150.131 148.843 151.133C149.65 151.523 150.359 151.732 151.055 151.954L152.363 152.219C152.446 152.219 153.406 152.288 153.489 152.288C153.531 152.288 153.573 152.302 153.615 152.302L155.242 152.191L157.69 151.495C160.18 150.577 162.962 148.642 165.911 146.597L167.942 145.205C170.307 143.577 172.561 142.269 174.814 141.225C177.332 140 180.337 139.165 183.411 138.845L184.482 138.762C184.635 138.748 185.553 138.72 185.776 138.692L187.779 138.803C188.224 138.859 189.059 138.929 189.921 139.082C191.437 139.36 192.175 139.527 192.759 139.75C193.872 140.042 194.943 140.473 195.986 140.933V97.1513C195.833 97.0538 195.68 96.9286 195.527 96.8312C193.065 95.2029 191.048 94.1871 189.184 93.6443C188.822 93.5191 188.586 93.4773 188.349 93.4356C188.085 93.3799 187.821 93.3382 187.542 93.2547L185.567 93.0877L184.357 93.1572C184.009 93.1572 183.703 93.2268 183.397 93.2825L182.715 93.4216C180.838 93.8113 178.667 94.7994 176.191 96.3998C174.87 97.2347 173.562 98.1672 172.227 99.1135C171.114 99.9067 169.987 100.714 168.805 101.507C166.426 103.094 163.171 105.056 159.179 106.086L158.511 106.225C157.718 106.392 156.897 106.545 156.16 106.642L154.324 106.768C153.893 106.781 153.615 106.809 153.406 106.781L152.432 106.726C151.751 106.684 151.055 106.642 150.387 106.517L149.525 106.35C148.829 106.225 148.134 106.086 147.48 105.849C143.863 104.791 140.747 102.885 137.951 100.992C136.991 100.338 136.059 99.6841 135.141 99.03C133.5 97.861 131.9 96.7337 130.259 95.7457C127.713 94.1731 125.334 93.2685 123.192 93.0459L122.065 92.9763C121.954 92.9763 121.843 92.9624 121.745 92.9485L120.744 93.0181C120.34 93.032 119.979 93.0598 119.701 93.1294L118.518 93.366C118.49 93.3799 117.711 93.6165 117.684 93.6304L115.931 94.3123C113.51 95.3978 111.201 97.0538 108.725 98.8073C105.901 100.825 102.966 102.913 99.4189 104.541L98.167 105.098C97.7358 105.265 97.3741 105.39 97.0124 105.501L96.2612 105.752C95.9134 105.863 95.5796 105.988 95.1901 106.072L93.7017 106.364C92.8531 106.559 92.1437 106.601 91.4482 106.656L90.224 106.74L90.2101 106.726C90.0293 106.74 89.8623 106.768 89.6537 106.74C89.6398 106.74 89.1112 106.712 89.0973 106.712L87.7062 106.614C87.1915 106.601 86.6073 106.503 86.037 106.378L84.7154 106.113C83.9643 105.946 83.2826 105.71 82.6149 105.487L81.1543 104.931C80.4727 104.638 79.8189 104.346 79.1651 104.026L78.3444 103.581C77.788 103.288 77.2316 102.982 76.7169 102.662C74.8389 101.521 73.0723 100.269 71.3613 99.0578C70.4154 98.3898 69.4973 97.7357 68.5653 97.1095C65.658 95.1473 63.4044 94.0061 61.2761 93.4216L57.9932 92.9763C57.9515 92.9763 57.8959 92.9624 57.8541 92.9624L57.0334 93.0181C56.7135 93.032 56.3657 93.0459 56.0458 93.1155L55.072 93.3103C54.7382 93.366 54.5573 93.4077 54.4321 93.4634C51.65 94.3123 49.1739 95.8709 47.1012 97.2904C46.2666 97.861 45.4459 98.4455 44.5973 99.0439C42.8724 100.269 41.1058 101.535 39.2 102.69C37.656 103.636 36.0702 104.444 34.4705 105.125C33.8723 105.376 33.2602 105.571 32.662 105.766L31.897 106.016C30.9789 106.253 30.1721 106.406 29.3652 106.545C29.2957 106.559 28.7393 106.656 28.6697 106.656L26.3884 106.809C26.1937 106.823 25.9711 106.823 25.7763 106.795V106.809L23.3559 106.642C22.4935 106.503 21.8257 106.364 21.158 106.225L20.5599 106.1C19.5305 105.779 18.7237 105.515 17.9169 105.251C14.4671 103.901 11.6154 102.022 9.19491 100.352L7.41436 99.1135C5.66163 97.8749 3.96457 96.6781 2.26747 95.69L0.0695801 94.8411V139.471C0.653824 139.624 1.23807 139.75 1.8084 139.931C1.90578 139.958 2.76825 140.237 2.86562 140.278C3.93673 140.682 5.00785 141.155 6.03723 141.656C7.52566 142.436 8.3603 142.895 9.12538 143.382C10.8225 144.412 12.5196 145.581 14.1749 146.736C15.7468 147.821 17.2909 148.907 18.8628 149.839C20.1426 150.577 21.5753 151.342 22.9108 151.732C22.9664 151.746 23.6619 151.982 23.7176 151.996L25.9711 152.261C25.9989 152.261 26.0128 152.261 26.0267 152.261C26.4162 152.233 26.917 152.205 26.9726 152.205C27.3621 152.205 27.5708 152.149 28.002 152.066C28.3637 151.982 28.7254 151.913 29.1288 151.857C29.6574 151.62 30.1303 151.495 30.5755 151.273C32.1195 150.605 33.6358 149.742 35.5137 148.475L38.0594 146.75C41.0919 144.648 44.5278 142.269 48.8262 140.557C50.6206 139.944 52.0951 139.457 53.681 139.221L57.1586 138.845L57.1725 138.915C57.5342 138.831 57.868 138.817 58.2436 138.803L60.664 138.956C61.8464 139.137 62.6533 139.29 63.4323 139.457C63.9331 139.541 64.4756 139.694 64.9903 139.875L65.9362 140.181C66.6734 140.39 67.4663 140.738 68.2593 141.086C71.876 142.658 74.9641 144.801 77.6767 146.68C79.026 147.612 80.3336 148.517 81.669 149.324C83.6582 150.563 85.3136 151.37 86.802 151.829L87.8036 152.094L88.7078 152.288C88.7217 152.288 89.7789 152.344 89.7928 152.344C89.8206 152.344 89.8624 152.344 89.8902 152.358L91.7125 152.233C91.5455 152.219 92.0741 152.094 92.6306 151.996C92.6862 151.982 93.6878 151.648 93.7434 151.62C93.7851 151.607 94.8145 151.175 94.8563 151.147C95.2318 150.994 95.5796 150.813 95.9134 150.618C97.8887 149.561 99.7528 148.294 101.672 146.931C103.884 145.386 106.166 143.799 108.711 142.408C112.119 140.543 115.124 139.485 118.156 139.068C118.588 138.97 119.283 138.915 119.993 138.887C119.993 138.887 121.871 138.803 122.149 138.789C122.163 138.789 122.177 138.789 122.191 138.789C122.232 138.817 122.288 138.817 122.33 138.831Z" fill="#20469A"/>
<path d="M192.536 155.155C191.062 154.32 189.768 153.666 188.544 153.318L185.511 152.845C185.122 152.873 184.663 152.9 184.649 152.9C181.811 153.081 178.64 155.016 175.927 156.895L173.548 158.565C172.449 159.344 171.323 160.151 170.126 160.944C168.207 162.197 165.619 163.783 162.503 164.98L160.292 165.704C159.373 165.94 158.622 166.079 157.871 166.219C156.883 166.427 156.299 166.455 155.701 166.483L154.282 166.58C154.115 166.594 153.475 166.594 153.336 166.594C153.295 166.594 152.446 166.539 152.39 166.525C151.152 166.441 150.471 166.4 149.817 166.26L147.744 165.829C145.811 165.258 144.28 164.743 142.862 164.048C139.314 162.419 136.282 160.235 133.611 158.3C132.29 157.34 131.01 156.407 129.702 155.586C128.186 154.626 126.433 153.596 124.792 153.165L123.79 152.928L121.787 152.72L120.744 152.789C116.863 153.346 113.232 155.92 109.727 158.411C107.529 159.97 105.206 161.584 102.632 162.99C101.923 163.38 101.172 163.769 100.379 164.103C99.3076 164.576 98.6677 164.855 97.9861 165.064C96.8593 165.439 96.2751 165.634 95.6074 165.787L90.7804 166.469L90.7665 166.455C90.3631 166.525 89.9597 166.525 89.5563 166.497V166.511L87.8731 166.413C87.0802 166.358 86.6907 166.33 86.3151 166.26L85.1605 166.038C84.2146 165.857 83.2826 165.648 82.4062 165.342C81.0569 164.966 79.5824 164.312 78.1218 163.63L74.6302 161.626C72.6827 160.346 71.3334 159.399 70.0258 158.453C67.4246 156.588 64.9624 154.835 62.6254 153.805C62.3055 153.652 62.0133 153.513 61.7212 153.429C61.6517 153.415 60.8309 153.151 60.7614 153.123L57.8958 152.706C57.8819 152.706 57.868 152.706 57.868 152.706C57.5481 152.734 57.0751 152.761 57.0612 152.761C56.9916 152.775 56.004 152.914 55.9344 152.914C55.3223 153.012 54.7242 153.235 54.1261 153.443C51.33 154.557 48.7148 156.421 45.9327 158.384L43.401 160.165C40.7997 161.974 38.6436 163.213 36.4318 164.201C35.472 164.674 34.2617 165.091 33.0654 165.481C32.9263 165.523 32.1891 165.759 32.05 165.787C30.3668 166.149 28.7671 166.483 27.4177 166.497C27.4177 166.497 26.8196 166.511 26.5275 166.553C26.3605 166.58 26.1936 166.594 26.0267 166.594L23.9401 166.483C22.6464 166.386 22.0761 166.288 21.5057 166.163L19.9617 165.857C19.8226 165.829 19.0992 165.62 18.9601 165.565C16.025 164.743 13.688 163.463 11.518 162.211C9.36182 160.902 7.49778 159.58 5.71723 158.328C4.27053 157.312 2.9073 156.338 1.55798 155.517C0.973733 155.127 0.514674 154.904 0.0695359 154.654C0.0417147 154.64 0.0278211 154.64 0 154.626V196H196V157.479C194.845 156.7 193.705 155.865 192.536 155.155Z" fill="#20469A"/>
<path d="M0.362388 40.4274C1.33613 40.7058 2.1986 41.1511 3.1167 41.5408C6.66389 43.2525 9.69641 45.5626 12.7289 47.6362C15.7475 49.7237 18.8217 51.5885 22.1185 52.4513C25.3736 53.3002 28.9208 53.0636 32.1063 51.7972C35.3614 50.4891 38.3939 48.3877 41.5238 46.2028C44.6537 44.0458 47.9783 41.7634 51.9289 40.5249C52.4297 40.3857 52.9026 40.1769 53.4034 40.0795L54.9336 39.7733C55.4344 39.6481 55.963 39.6342 56.4916 39.5925L57.2706 39.5368L57.6601 39.509L57.8548 39.495C57.8966 39.4811 58.1887 39.495 58.1469 39.495L59.5797 39.5925L60.2892 39.6342L61.0821 39.7733L62.6818 40.0934C63.1826 40.2326 63.6694 40.3996 64.1563 40.5527C68.1069 41.847 71.3481 44.2127 74.5197 46.3419C77.6635 48.5129 80.7099 50.6143 83.9928 51.9225L85.2308 52.3261L85.8429 52.5348L86.4828 52.66L87.7486 52.9105C88.1799 52.9523 88.5972 52.9662 89.0284 53.008L89.6683 53.0497L89.8213 53.0636C89.8909 53.0776 89.7239 53.0636 89.877 53.0636L90.2386 53.0358L91.6575 52.9384C92.1722 52.9384 92.4922 52.7853 92.9095 52.7297C93.3129 52.6322 93.6885 52.6044 94.1058 52.4652C97.4304 51.4911 100.519 49.5984 103.593 47.4831C105.123 46.4394 106.681 45.34 108.281 44.2962C109.894 43.2525 111.55 42.2366 113.372 41.4294L114.735 40.831L116.168 40.3579C117.1 39.996 118.129 39.8847 119.103 39.662C119.604 39.5785 120.105 39.5785 120.619 39.5368L121.371 39.4811L121.746 39.4533C121.788 39.4394 122.066 39.4672 122.024 39.4672L122.191 39.4811L123.568 39.5785C123.805 39.6064 124.014 39.5925 124.264 39.6342L125.043 39.7733C129.16 40.5109 132.569 42.4036 135.671 44.4632C138.773 46.4951 141.624 48.6939 144.615 50.3221C145.366 50.7257 146.104 51.1292 146.869 51.4354C147.244 51.5885 147.62 51.7833 148.009 51.9085L149.164 52.2704L149.748 52.4513L150.332 52.5626L151.501 52.7853C151.89 52.8549 152.294 52.841 152.683 52.8688L153.267 52.9105L153.56 52.9245C153.56 52.9245 153.782 52.9245 153.587 52.9384L153.754 52.9245L155.076 52.8549C155.521 52.841 155.966 52.8131 156.3 52.7018C157.023 52.5209 157.733 52.4235 158.498 52.1451L159.625 51.7833L160.724 51.2962C161.475 51.004 162.17 50.5726 162.894 50.2107C165.759 48.6242 168.444 46.5507 171.309 44.6581C174.161 42.7654 177.235 40.9563 180.699 39.996C181.575 39.8151 182.452 39.6064 183.342 39.4811L184.678 39.3837L185.345 39.3419L185.512 39.3281C185.47 39.3141 185.763 39.3281 185.79 39.3281L186.096 39.3419L187.307 39.4254C187.71 39.4533 188.1 39.4672 188.573 39.5785C189.463 39.7595 190.423 39.8708 191.216 40.1769C192.913 40.6779 194.485 41.3738 195.973 42.1531V0H0.0563965V40.33L0.362388 40.4274Z" fill="#20469A"/>
</svg>
