<svg width="156" height="156" viewBox="0 0 156 156" fill="none" xmlns="http://www.w3.org/2000/svg">
<path d="M145.991 0H10.0254C7.36783 0.00433183 4.82032 1.06194 2.94113 2.94113C1.06194 4.82032 0.00433183 7.36783 0 10.0254V145.991C0.00853682 148.634 1.05904 151.168 2.92364 153.042C4.78823 154.915 7.3165 155.978 9.95987 156H146.04C148.672 155.979 151.191 154.925 153.053 153.065C154.916 151.205 155.974 148.689 156 146.057V9.95982C155.978 7.31645 154.915 4.78833 153.042 2.92374C151.168 1.05914 148.634 0.00853682 145.991 0ZM12.5809 131.313L11.8765 130.74C11.6941 130.558 11.5506 130.34 11.4548 130.101C11.3591 129.862 11.313 129.605 11.3195 129.347C11.3279 128.842 11.5326 128.359 11.8902 128.001C12.2478 127.644 12.7305 127.439 13.2361 127.431C13.2361 127.431 20.2146 127.431 32.0092 127.546H33.8603C39.561 127.546 46.0153 127.726 53.4361 127.546C62.616 127.504 71.7828 126.847 80.8749 125.58C89.6226 124.22 100.893 121.779 110.443 115.079C115.04 111.68 118.903 107.387 121.799 102.458C124.696 97.5289 126.567 92.0654 127.3 86.3955C128.128 80.3663 127.702 74.2312 126.051 68.3739C124.399 62.5167 121.556 57.0632 117.7 52.3549C113.848 47.5575 108.906 43.7495 103.285 41.2482C97.6612 38.8412 91.4876 38.0144 85.429 38.8566C79.4347 39.6791 73.7744 42.1075 69.0476 45.8843C66.6798 47.7704 64.5849 49.9756 62.8226 52.4369C61.1859 54.7455 59.9406 57.308 59.1368 60.0215C57.5177 65.4503 57.7423 71.2625 59.7757 76.5502C61.6816 81.6916 65.2355 86.0575 69.883 88.9673C74.1757 91.5127 79.2654 92.3602 84.1512 91.3427C88.9222 90.316 93.1359 87.54 95.9622 83.5615C97.1623 81.804 97.9723 79.8098 98.3375 77.7132C98.688 75.5873 98.5931 73.412 98.059 71.3247C97.5183 69.3069 96.5583 67.4258 95.2414 65.8041C94.602 65.038 93.9007 64.3257 93.1446 63.6745C91.1952 62.1838 91.3426 62.495 87.0507 60.3982C82.0216 61.0862 78.7453 62.6588 76.4355 65.7058C75.5835 66.9137 75.0485 68.3162 74.8793 69.7847C74.7218 71.195 74.896 72.6226 75.3881 73.9536C75.8801 75.2847 76.6764 76.4825 77.7133 77.4513C78.5467 78.2619 79.5676 78.8537 80.6852 79.1738C81.8028 79.4939 82.9823 79.5325 84.1184 79.286C85.064 79.0821 85.9577 78.686 86.7439 78.1224C87.5301 77.5588 88.1921 76.8398 88.6889 76.0097C89.3606 74.7798 89.5643 73.3482 89.2622 71.9798C89.0393 70.8446 88.4665 69.8078 87.6241 69.0148L86.9197 68.3595V68.0156C86.8204 67.7079 86.7998 67.3802 86.8599 67.0625C86.92 66.7449 87.0589 66.4474 87.2637 66.1973L87.6896 65.6894L89.3278 65.4272L90.0977 65.9187C90.485 66.2216 90.8516 66.5499 91.1952 66.9016C92.2846 67.9977 93.1034 69.3326 93.5869 70.8003C94.3857 73.2433 94.2396 75.8971 93.1773 78.2376C92.4371 79.7732 91.3846 81.1374 90.0871 82.2431C88.7896 83.3488 87.2756 84.1717 85.6419 84.6589C83.5845 85.2954 81.4006 85.4069 79.289 84.9835C77.1774 84.56 75.2054 83.615 73.5525 82.2345C71.6478 80.6454 70.1417 78.6325 69.1546 76.3569C68.1675 74.0812 67.727 71.6059 67.8681 69.1294C68.0129 66.324 68.8944 63.6064 70.4236 61.2501C71.9927 58.8959 74.0553 56.9115 76.4683 55.4346C79.1189 53.8071 82.1228 52.8428 85.2255 52.6232C88.3281 52.4037 91.4379 52.9352 94.2913 54.1732C95.7712 54.8203 97.1726 55.6337 98.4685 56.5976C99.7645 57.6051 100.965 58.7292 102.056 59.9559C104.249 62.486 105.885 65.45 106.856 68.6545C107.889 72.0641 108.157 75.6594 107.642 79.1846C107.127 82.7098 105.84 86.0781 103.874 89.0492C99.7465 95.0575 93.4949 99.2779 86.3791 100.86C82.6646 101.729 78.8141 101.847 75.0533 101.209C71.2924 100.57 67.6968 99.1874 64.4771 97.1416C58.1202 92.9904 53.294 86.8757 50.7332 79.7283C48.1324 72.4363 48.0114 64.4897 50.3891 57.1219C51.5817 53.4101 53.3928 49.9264 55.7459 46.818C58.0424 43.8137 60.731 41.1306 63.74 38.8402C69.7916 34.236 76.9732 31.3498 84.528 30.4858C92.0478 29.587 99.6705 30.7537 106.577 33.8604C113.304 36.9412 119.179 41.6133 123.696 47.4733C128.086 53.0305 131.281 59.435 133.079 66.2851C134.878 73.1351 135.241 80.2829 134.147 87.2801C133.189 93.8418 130.902 100.139 127.426 105.786C123.95 111.434 119.359 116.313 113.933 120.125C103.252 127.283 91.0969 129.675 81.7104 130.953C72.8354 132.033 63.8997 132.536 54.9596 132.46H53.5344C45.9989 132.46 39.5119 132.181 33.7784 131.985H31.9601C20.2146 131.526 13.3672 131.461 13.3017 131.461L12.5809 131.313ZM114.146 75.1415C114.146 73.6999 114.146 72.8808 114.146 72.8808L114.342 66.3283L117.225 72.1927C117.225 72.1927 117.586 72.9135 118.126 74.224C118.455 75.0428 118.696 75.894 118.847 76.7632C119.165 77.833 119.384 78.9297 119.502 80.0395L119.715 81.8086V83.9219C119.727 85.1846 119.623 86.4459 119.404 87.6897L119.289 88.4595C119.158 89.0493 119.06 89.4588 118.962 89.8683C118.736 91.0545 118.385 92.2132 117.913 93.3248C117.46 94.5821 116.913 95.8033 116.275 96.9778L115.309 98.6159C114.577 99.7582 113.772 100.853 112.901 101.892C112.238 102.866 111.486 103.776 110.656 104.612L109.755 105.463L109.018 106.053C108.035 106.864 106.982 107.588 105.873 108.215L102.335 109.985C101.317 110.444 100.259 110.806 99.1729 111.066C98.2863 111.337 97.3757 111.524 96.4536 111.623C95.1267 111.787 94.3241 111.836 94.3241 111.836L87.6568 112.327L93.3576 108.838C93.3576 108.838 94.0292 108.412 95.2578 107.757C95.9165 107.424 96.5514 107.046 97.1581 106.626C98.059 106.053 98.7962 105.594 99.5006 104.988L102.154 102.875C102.68 102.454 103.173 101.994 103.629 101.499C104.038 101.09 104.448 100.664 104.906 100.27L105.398 99.6644C106.004 98.9436 106.643 98.2228 107.2 97.4201C107.802 96.6285 108.349 95.7965 108.838 94.9301L109.837 93.1938C110.314 92.3736 110.73 91.5194 111.082 90.6382C111.541 89.6225 111.869 88.6888 112.196 87.7878L112.507 86.8706C112.507 86.5266 112.737 85.9368 112.884 85.3798C113.076 84.7743 113.224 84.1557 113.326 83.5287C113.572 82.2674 113.752 81.1861 113.851 80.1705C113.949 79.1548 114.015 78.3194 114.047 77.5495C114.111 76.7429 114.122 75.9331 114.08 75.1251L114.146 75.1415ZM136.785 120.731L136.064 121.796C135.356 122.86 134.573 123.873 133.721 124.826C132.443 126.339 131.034 127.737 129.511 129.003C128.577 129.806 127.598 130.556 126.579 131.248C125.498 132.039 124.371 132.766 123.204 133.426C122.451 133.901 121.566 134.344 120.698 134.786L117.93 136.113C116.98 136.522 116.029 136.948 115.014 137.309C111.925 138.502 108.748 139.455 105.513 140.159C98.5578 141.488 91.5075 142.255 84.4297 142.453C81.006 142.584 77.5659 142.633 74.175 142.633C62.9701 142.633 52.4696 142.027 45.5403 141.617C35.0725 141.011 28.0777 140.782 28.0613 140.782H26.4231L26.243 138.947C26.2593 138.474 26.4544 138.025 26.7888 137.691C27.1233 137.356 27.5722 137.161 28.0449 137.145C28.0449 137.145 35.0725 136.932 45.6385 136.899C47.8337 136.899 50.1926 136.899 52.6662 136.899C62.2165 136.899 73.0446 136.785 83.9547 135.818C90.621 135.219 97.2383 134.163 103.76 132.657C109.379 131.505 114.868 129.787 120.141 127.529C122.205 126.635 124.203 125.594 126.12 124.417C126.859 123.99 127.576 123.525 128.266 123.024C129.266 122.369 129.904 121.91 130.445 121.386C131.214 120.827 131.947 120.22 132.64 119.568L134.491 118.077L135.409 117.88H136.08L136.67 118.487C136.931 118.8 137.078 119.193 137.087 119.6C137.096 120.008 136.966 120.406 136.719 120.731H136.785ZM144.435 84.4624L142.616 84.6264C142.137 84.6136 141.681 84.4151 141.345 84.0728C141.009 83.7306 140.818 83.2713 140.814 82.7916V76.927C140.797 76.1108 140.737 75.2961 140.634 74.4862L140.405 71.9798C140.405 71.4556 140.405 70.9314 140.258 70.3416L138.292 61.807C136.898 57.1413 134.939 52.6633 132.46 48.4725C129.472 43.6099 125.853 39.1647 121.697 35.2528C117.008 30.9636 111.666 27.447 105.873 24.8343C99.7049 22.0571 93.0941 20.3933 86.3463 19.9198C84.7082 19.7396 82.7916 19.8214 81.0388 19.7723C79.286 19.7231 77.7624 20.0344 76.026 20.2146C72.6672 20.7346 69.3727 21.6076 66.1972 22.8192C59.8202 25.3257 54.0674 29.1945 49.3408 34.1552C44.8554 38.9661 41.4387 44.6716 39.3153 50.8969C37.2564 56.6686 36.4088 62.8027 36.8253 68.9164C37.2567 74.3283 38.939 79.5661 41.7398 84.2168C44.1121 88.2179 47.1929 91.7539 50.8315 94.6518C53.6806 96.9008 56.8428 98.7219 60.218 100.057L61.037 100.385C61.463 100.565 61.8562 100.729 62.2493 100.86L64.0676 101.368C65.0038 101.676 65.9622 101.911 66.9344 102.072L71.1771 102.891L71.0625 104.743C70.9854 105.163 70.7625 105.544 70.433 105.816C70.1034 106.089 69.6883 106.236 69.2605 106.233H69.1459L61.0698 105.25C60.5129 105.119 60.0214 104.972 59.5136 104.825L58.6781 104.595C57.1787 104.151 55.7118 103.604 54.2879 102.957L52.6498 102.236C50.8205 101.353 49.0624 100.328 47.3914 99.173C42.8825 96.138 39.0188 92.2409 36.0227 87.7061C32.4187 82.2583 30.1409 76.0419 29.3718 69.5553L29.2735 68.5233C29.087 67.0953 29.0212 65.6541 29.077 64.215L29.4537 58.973L29.7814 56.352L30.584 52.7316C30.7151 52.1419 30.8462 51.5358 31.01 50.9461L31.8946 48.2923C34.4649 41.0312 38.6038 34.4259 44.0168 28.946C49.6054 23.3768 56.3498 19.1042 63.7728 16.4306C67.4849 15.1065 71.3297 14.1892 75.2397 13.6948C77.271 13.5146 79.2368 13.3836 81.1534 13.3181H83.2011C84.4133 13.3181 85.6091 13.4 86.936 13.5474C94.3663 14.2521 101.611 16.277 108.33 19.5267C114.626 22.5136 120.392 26.5086 125.4 31.354C129.793 35.7436 133.578 40.7022 136.654 46.0973C139.186 50.6911 141.149 55.5758 142.502 60.644L143.845 66.9672L144.255 69.49C144.369 70.4237 144.418 71.0133 144.435 71.5702L144.599 74.1422C144.599 75.1579 144.73 76.0751 144.713 76.927L144.435 84.4624Z" fill="#FBA91B"/>
</svg>
