<svg width="196" height="196" viewBox="0 0 196 196" fill="none" xmlns="http://www.w3.org/2000/svg">
<path d="M0 0V197H196V0H0ZM15.8069 165.84L14.9303 165.113C14.4711 164.652 14.2206 164.008 14.2346 163.351C14.2346 162.05 15.3199 160.945 16.6557 160.931H16.6696C16.7531 160.931 25.4358 160.833 40.2686 161.099L42.5924 161.127C49.7583 161.239 57.8705 161.351 67.1793 161.225C77.7961 161.029 89.3313 160.596 101.66 158.736C112.652 157.001 126.803 153.939 138.797 145.477C149.985 137.645 157.888 124.107 159.975 109.255C162.16 94.0946 157.652 78.0392 147.925 66.2634C142.624 59.844 136.362 54.991 129.795 52.2359C122.754 49.201 115.004 48.1661 107.364 49.215C99.8367 50.222 92.5038 53.3687 86.7014 58.0819C83.8211 60.3755 81.2608 63.0607 78.8815 66.3053C76.8082 69.2702 75.1524 72.6967 74.2479 75.8714C72.2164 82.7104 72.4947 90.1227 75.041 96.7518C77.5735 103.409 82.0818 108.961 87.7311 112.43C92.9908 115.632 99.8646 116.779 105.667 115.45C111.65 114.15 116.91 110.667 120.5 105.619C121.933 103.633 123.074 100.794 123.478 98.2203C123.923 95.549 123.811 92.7799 123.13 90.1646C122.49 87.6892 121.279 85.2977 119.595 83.1998C118.914 82.3467 117.926 81.3398 116.966 80.5006C115.616 79.4657 115.073 79.116 113.96 78.5846C109.883 76.6406 104.888 76.7805 100.88 78.9482C98.9184 80.0111 97.3182 81.3957 95.9824 83.1718C94.9527 84.5984 94.2014 86.5843 94.0205 88.3186C93.603 91.8988 94.9667 95.605 97.5826 97.9965C99.7393 100.094 102.787 100.961 105.639 100.304C108.533 99.6887 110.537 97.7168 111.386 96.2204C112.582 94.0666 112.29 91.9408 112.109 91.1296C111.525 88.794 110.384 87.7311 110.008 87.3815L109.118 86.5564L109.159 86.1088C108.923 85.3536 109.062 84.4865 109.605 83.8292L110.133 83.1718L112.095 82.8362L113.056 83.4656C113.069 83.4656 113.626 83.8711 114.447 84.7103C115.838 86.1508 116.826 87.7591 117.453 89.6332C118.468 92.5981 118.273 96.0246 116.924 99.0315C115.143 102.863 111.706 105.814 107.476 107.143C102.383 108.793 96.3998 107.591 92.2812 104.066C87.5502 100.22 84.7951 93.8988 85.1291 87.6053C85.3378 83.983 86.3953 80.7244 88.3433 77.6476C90.2775 74.7106 92.9769 72.1093 95.9407 70.2912C102.453 66.1515 111.038 65.5361 118.329 68.7108C120.277 69.4521 122.545 70.9905 123.575 71.7737C125.314 73.1302 126.65 74.3889 128.083 76.0113C130.866 79.2419 132.953 83.046 134.122 87.0039C136.738 95.7868 135.361 105.171 130.365 112.751C125.537 120.108 117.313 125.688 108.394 127.674C98.7375 129.842 88.9695 128.177 80.8851 122.975C73.1348 118.052 66.8315 110.038 63.6172 100.989C60.3473 91.8009 60.1942 81.6614 63.1859 72.431C64.6469 67.8158 66.8454 63.5642 69.9066 59.4245C72.9121 55.5225 76.3768 52.0681 79.9529 49.3549C87.4667 43.5649 96.5112 39.9147 106.07 38.7958C115.574 37.677 125.147 39.1315 133.774 43.0474C141.775 46.5998 149.025 52.3897 155.286 60.2496C166.376 74.1932 171.274 92.9897 168.421 110.514C165.764 127.408 156.288 142.806 143.083 151.701C129.656 160.736 114.391 163.742 102.592 165.365C90.5557 166.931 79.3545 167.197 69.0021 167.197C68.3899 167.197 67.7916 167.197 67.1932 167.197C57.7453 167.127 49.5775 166.833 42.3697 166.581L40.1017 166.498C25.3384 165.924 16.7392 165.84 16.6418 165.84H15.8069ZM143.334 94.8917C143.292 93.0736 143.32 92.0527 143.32 92.0527L143.556 83.7872L147.188 91.2135C147.188 91.2135 147.633 92.1086 148.315 93.7589C148.788 94.8078 149.136 95.8847 149.386 97.0315C149.706 98.2203 150.096 99.6468 150.221 101.255L150.486 103.479V106.136C150.541 107.73 150.305 109.353 150.096 110.905L149.957 111.87C149.776 112.625 149.665 113.143 149.539 113.66C149.219 115.087 148.885 116.555 148.218 118.038C147.717 119.548 146.923 121.115 146.158 122.639L144.92 124.765C144.001 126.163 143.055 127.604 141.9 128.919C141.065 130.079 139.952 131.1 138.895 132.093C138.505 132.457 138.13 132.806 137.768 133.17L136.849 133.911C135.597 134.89 134.317 135.897 132.898 136.652L128.459 138.89C127.095 139.548 125.634 139.939 124.465 140.247C123.324 140.61 122.211 140.834 121.042 140.946C119.373 141.156 118.371 141.226 118.371 141.226L109.994 141.841L117.146 137.422C117.146 137.422 118.009 136.89 119.526 136.051C120.305 135.673 121.084 135.184 121.919 134.611C123.06 133.883 123.951 133.324 124.869 132.611L128.195 129.939C128.918 129.394 129.475 128.807 130.045 128.205C130.56 127.674 131.089 127.142 131.645 126.639L132.258 125.884C133.037 124.975 133.83 124.066 134.54 123.059C135.402 121.996 136.042 120.947 136.682 119.898L137.935 117.716C138.505 116.667 139.09 115.604 139.493 114.499C140.078 113.213 140.481 112.038 140.885 110.891L141.288 109.744C141.358 109.297 141.552 108.57 141.761 107.856C141.984 107.059 142.206 106.29 142.318 105.507C142.624 103.926 142.86 102.556 142.972 101.269C143.153 99.9964 143.18 98.9335 143.222 97.9545C143.347 96.542 143.389 95.6329 143.334 94.8917ZM171.775 152.47L170.87 153.799C170.342 154.61 169.382 155.966 167.921 157.631C166.654 159.211 164.859 161.015 162.633 162.903C161.548 163.854 160.323 164.819 158.96 165.742C157.721 166.665 156.274 167.588 154.716 168.498C153.769 169.099 152.684 169.658 151.571 170.232L148.092 171.896C146.91 172.427 145.699 172.959 144.433 173.42C141.274 174.707 137.559 175.826 132.494 177.001C123.38 178.945 113.543 179.574 106.001 179.896C101.687 180.064 97.3738 180.133 93.1299 180.133C79.0484 180.133 65.8575 179.364 57.147 178.847C43.9838 178.064 35.2037 177.784 35.1898 177.784L33.1583 177.714L32.9496 175.392C32.9913 174.162 33.9654 173.169 35.1898 173.127C35.1898 173.127 44.0395 172.847 57.3139 172.819C60.0551 172.777 63.0189 172.763 66.1218 172.749C78.1301 172.679 91.7385 172.609 105.444 171.393C113.64 170.665 122.239 169.281 130.337 167.379C138.7 165.505 145.588 163.337 150.847 160.917C153.783 159.603 156.302 158.274 158.361 156.973C159.419 156.386 160.268 155.785 161.061 155.225C162.327 154.4 163.106 153.813 163.788 153.267C165.012 152.372 165.889 151.575 166.557 150.974L168.881 149.086L170.022 148.834L170.87 148.89L171.622 149.645C172.304 150.414 172.373 151.589 171.775 152.47ZM181.39 106.668L179.094 106.877C177.8 106.807 176.84 105.786 176.84 104.542L176.923 97.1574C176.909 96.2483 176.812 95.1994 176.701 94.0806L176.408 90.8919C176.353 90.2485 176.297 89.5772 176.214 88.892L173.751 78.1091C172.457 73.2981 170.077 67.8018 166.432 61.2845C162.744 55.2148 158.166 49.5786 152.893 44.5858C147.09 39.2293 140.398 34.7959 133.009 31.4254C124.869 27.7752 116.618 25.6354 108.478 25.104C106.39 24.8942 104.011 24.9921 101.813 24.9222C99.8089 25.048 97.68 25.2578 95.5093 25.4816C90.5697 26.3347 86.5901 27.3836 83.1254 28.7822C75.1524 31.9149 67.8333 36.8518 61.9475 43.0894C56.3121 49.1871 51.9568 56.5015 49.3548 64.2494C46.7528 71.6758 45.6675 79.5356 46.2102 87.0179C46.7806 95.2553 49.8975 102.066 52.4299 106.332C55.5468 111.535 59.4985 116.094 63.8538 119.506C67.4715 122.373 71.5485 124.737 75.6394 126.345L76.683 126.765C77.2117 126.975 77.7266 127.184 78.2136 127.366L80.4955 128.009C81.9287 128.457 83.1115 128.737 84.0994 128.905L89.4287 129.925L89.2895 132.261C89.1086 133.352 88.1346 134.163 87.0214 134.163C86.9797 134.163 86.924 134.163 86.8823 134.163L76.7247 132.918C76.029 132.751 75.4028 132.569 74.7767 132.387L73.7331 132.093C71.9659 131.66 70.1431 130.918 68.1951 130.135L66.1775 129.226C64.132 128.177 61.8083 126.989 59.5681 125.366C53.7379 121.352 48.9096 116.471 45.2779 110.849C40.6165 103.619 37.8058 95.9127 36.9152 87.927L36.79 86.6263C36.6091 84.8082 36.4282 82.9341 36.5395 81.1859L37.0266 74.5708L37.444 71.2702L38.4598 66.6969C38.6267 65.9417 38.7937 65.1865 38.9885 64.4453L40.0877 61.0887C43.3437 51.8723 48.6034 43.439 55.3102 36.656C62.3092 29.6493 70.8945 24.1809 80.1338 20.8524C84.1829 19.3279 88.7329 18.2231 94.4657 17.384C97.0121 17.1602 99.5028 16.9924 101.896 16.9085C102.898 16.9504 103.691 16.9784 104.484 17.0064C105.987 17.0483 107.504 17.0903 109.173 17.2861C118.134 18.0833 127.193 20.6286 136.056 24.8523C144.28 28.8381 151.474 33.8589 157.485 39.7888C163.036 45.369 167.795 51.6065 171.622 58.3475C175.323 65.4662 177.716 71.452 178.969 76.7245L180.666 84.7103L181.181 87.899C181.334 89.0877 181.376 89.815 181.404 90.5282L181.598 93.7869C181.682 95.0596 181.752 96.2343 181.738 97.2972L181.39 106.668Z" fill="#FBA91B"/>
</svg>
