<svg width="321" height="312" viewBox="0 0 321 312" fill="none" xmlns="http://www.w3.org/2000/svg">
<g clip-path="url(#clip0_576_92)">
<path d="M320.242 171.614L315.867 172.028C314.715 171.984 313.625 171.496 312.823 170.666C312.021 169.836 311.569 168.728 311.561 167.572V153.444C310.362 141.182 308.324 129.017 305.463 117.035C302.121 105.779 297.412 94.978 291.442 84.8742C284.246 73.1378 275.535 62.4055 265.536 52.9557C254.243 42.6128 241.383 34.136 227.435 27.8423C212.619 21.0275 196.704 16.9325 180.446 15.752C176.45 15.3375 171.903 15.5102 167.665 15.3721C163.428 15.2339 159.742 16.0284 155.608 16.4429C147.506 17.6992 139.561 19.8183 131.907 22.7644C116.807 28.5791 103.176 37.6707 91.9907 49.388C80.8058 61.1052 72.3437 75.1579 67.2108 90.5394C62.2514 104.481 60.2109 119.297 61.2166 134.065C62.3145 147.179 66.4426 159.858 73.274 171.096C78.9843 180.749 86.3965 189.282 95.1494 196.278C102.019 201.613 109.618 205.929 117.714 209.094L119.712 209.888L122.64 211.028L127.015 212.237C129.269 212.973 131.571 213.55 133.905 213.965L144.24 215.899L143.999 220.355C143.819 221.383 143.279 222.312 142.477 222.977C141.676 223.642 140.664 223.998 139.624 223.982H139.382L119.919 221.599C118.575 221.288 117.404 220.942 116.164 220.597L114.2 220.01C110.575 219.033 107.029 217.786 103.589 216.279L99.6967 214.552C95.3078 212.401 91.0821 209.93 87.0537 207.159C76.1882 199.859 66.8785 190.465 59.6664 179.524C50.9906 166.365 45.5049 151.353 43.6474 135.688L43.4062 133.201C43.0031 129.762 42.8535 126.299 42.9585 122.838L43.8541 110.195L44.6465 103.908L46.6101 95.1682C46.9202 93.7174 47.2301 92.2666 47.6091 90.8503L49.745 84.4252C55.9286 66.9137 65.8785 50.9809 78.8892 37.7564C92.353 24.3228 108.593 14.0165 126.464 7.56511C135.377 4.33879 144.621 2.11433 154.023 0.932646C158.915 0.49509 163.669 0.184234 168.286 0C170.18 0 171.731 0 173.212 0C176.106 0 178.999 0.172732 182.203 0.552714C200.091 2.27221 217.531 7.17341 233.705 15.0266C248.859 22.2178 262.732 31.8572 274.769 43.5597C285.336 54.1048 294.444 66.0254 301.846 79.0018C307.948 90.0951 312.679 101.892 315.936 114.133L319.174 129.367L320.173 135.446C320.396 137.119 320.534 138.803 320.587 140.49L321 146.708C321 149.126 321.276 151.371 321.276 153.409L320.242 171.614Z" fill="#25262A" fill-opacity="0.9"/>
<path d="M301.846 259.148L300.089 261.704C298.395 264.286 296.506 266.734 294.439 269.027C291.388 272.691 287.996 276.057 284.311 279.079C282.127 281.037 279.826 282.86 277.421 284.537C274.8 286.44 272.075 288.193 269.257 289.788C267.306 290.987 265.294 292.083 263.228 293.07L256.579 296.248C254.306 297.284 251.998 298.286 249.69 299.149C242.259 302.055 234.61 304.365 226.815 306.058C210.066 309.276 193.084 311.124 176.037 311.585C167.803 311.931 159.535 312.034 151.405 312.034C124.397 312.034 99.1455 310.583 82.5064 309.582C57.2894 308.096 40.4781 307.578 40.4436 307.578H36.5508L36.1375 303.156C36.172 302.022 36.6368 300.944 37.437 300.142C38.2372 299.339 39.3125 298.873 40.4436 298.838C40.4436 298.838 57.3927 298.286 82.8164 298.217C88.0872 298.217 93.737 298.217 99.6967 298.217C122.709 298.217 148.753 297.94 175.038 295.626C191.086 294.164 207.016 291.602 222.716 287.957C236.19 285.178 249.348 281.035 261.988 275.59C266.953 273.411 271.764 270.895 276.388 268.06C278.172 267.004 279.897 265.851 281.555 264.606C283.372 263.465 285.12 262.219 286.792 260.875C289.134 259.148 290.788 257.628 292.097 256.488L296.541 252.861L298.746 252.377H300.365L301.812 253.828C302.449 254.566 302.826 255.494 302.882 256.469C302.938 257.444 302.671 258.41 302.122 259.217" fill="#25262A" fill-opacity="0.9"/>
<path d="M247.347 149.091C247.347 145.637 247.347 143.668 247.347 143.668L247.795 127.847L254.685 142.044C254.685 142.044 255.512 143.771 256.855 146.915C257.743 148.924 258.424 151.019 258.888 153.167C259.673 155.804 260.204 158.511 260.472 161.251L260.989 165.534V170.612C261.014 173.669 260.76 176.721 260.231 179.731L259.99 181.562C259.646 182.979 259.404 183.98 259.198 185.017C258.63 187.882 257.776 190.683 256.648 193.376C255.55 196.391 254.237 199.323 252.721 202.15L250.379 206.227C248.631 209.003 246.697 211.657 244.591 214.172C242.852 216.372 240.914 218.407 238.804 220.251C238.08 220.942 237.322 221.599 236.633 222.29L234.876 223.706C232.507 225.674 229.971 227.431 227.297 228.956L218.892 233.274C216.429 234.384 213.868 235.263 211.244 235.9C209.112 236.559 206.919 236.999 204.699 237.213C201.495 237.627 199.6 237.765 199.6 237.765L183.547 238.94L197.327 230.511C197.327 230.511 198.946 229.475 201.874 227.886C203.473 227.083 205.015 226.171 206.49 225.157C208.66 223.775 210.348 222.704 212.14 221.322L218.513 216.21C219.739 215.201 220.89 214.104 221.958 212.928C222.922 211.892 223.922 210.89 224.989 209.923L226.195 208.472C227.677 206.745 229.192 205.018 230.536 203.083C232.056 201.17 233.438 199.15 234.67 197.038L237.047 192.858C238.197 190.886 239.199 188.831 240.044 186.709C241.146 184.257 241.939 182.011 242.731 179.801L243.489 177.624C243.489 176.761 244.006 175.379 244.384 173.997C244.846 172.539 245.203 171.05 245.452 169.541C246.01 166.859 246.424 164.149 246.693 161.423C246.97 159.327 247.131 157.216 247.175 155.102C247.301 153.135 247.301 151.162 247.175 149.195" fill="#25262A" fill-opacity="0.9"/>
<path d="M3.03157 284.711L1.34358 283.294C0.887284 282.848 0.531434 282.309 0.299734 281.713C0.068033 281.117 -0.0341204 280.479 0.000109142 279.84C0.0261186 278.617 0.519704 277.451 1.37891 276.583C2.23811 275.715 3.39719 275.212 4.61632 275.177V275.177C4.78857 275.177 21.4276 275.004 49.814 275.488H54.258C68.0378 275.695 83.54 275.937 101.385 275.66C123.483 275.683 145.557 274.218 167.459 271.273C188.507 267.819 215.688 262.085 238.597 245.918C260.025 230.961 275.182 205.087 279.178 176.83C281.179 162.282 280.162 147.477 276.191 133.341C272.219 119.206 265.378 106.046 256.097 94.6851C246.884 82.9475 234.984 73.6102 221.407 67.4645C207.9 61.6773 193.084 59.6621 178.529 61.6325C163.973 63.6029 150.22 69.4854 138.728 78.6567C133.038 83.1824 127.996 88.4711 123.742 94.3742C119.823 99.9442 116.833 106.116 114.889 112.648C110.999 125.763 111.531 139.8 116.405 152.581C121.003 164.976 129.552 175.504 140.726 182.53C151.092 188.689 163.381 190.735 175.175 188.264C186.655 185.795 196.794 179.102 203.596 169.507C206.5 165.268 208.451 160.448 209.315 155.379C210.174 150.252 209.94 145.001 208.626 139.972C207.3 135.087 204.951 130.542 201.736 126.638C200.2 124.779 198.505 123.057 196.672 121.491C194.923 120.023 192.989 118.791 190.919 117.829C186.971 116.01 182.659 115.127 178.316 115.246C173.973 115.366 169.716 116.486 165.874 118.52C162.189 120.494 158.978 123.253 156.469 126.604C154.46 129.568 153.217 132.987 152.852 136.552C152.484 139.958 152.916 143.403 154.112 146.612C155.308 149.821 157.236 152.705 159.742 155.033C161.599 156.784 163.821 158.1 166.246 158.886C168.672 159.672 171.241 159.908 173.769 159.578C176.297 159.247 178.72 158.358 180.863 156.975C183.007 155.592 184.818 153.749 186.165 151.579C187.794 148.609 188.296 145.149 187.577 141.837C186.988 139.099 185.582 136.606 183.547 134.687C182.927 134.235 182.361 133.713 181.859 133.132C178.965 127.813 185.717 124.842 189.403 127.225C190.354 127.929 191.242 128.715 192.056 129.574C194.674 132.23 196.643 135.458 197.809 139.005C199.736 144.906 199.38 151.318 196.81 156.968C195.028 160.672 192.497 163.964 189.377 166.634C186.257 169.305 182.618 171.295 178.689 172.478C173.733 174 168.476 174.26 163.393 173.235C158.311 172.21 153.564 169.931 149.58 166.605C142.413 160.551 137.703 152.076 136.338 142.778C134.974 133.481 137.049 124.005 142.173 116.137C145.947 110.45 150.907 105.654 156.711 102.077C163.093 98.158 170.323 95.8385 177.789 95.3154C185.255 94.7922 192.736 96.0809 199.6 99.0721C203.178 100.599 206.556 102.56 209.659 104.91C212.789 107.325 215.674 110.044 218.272 113.028C223.566 119.131 227.511 126.289 229.847 134.03C232.341 142.254 232.989 150.93 231.744 159.435C230.5 167.939 227.393 176.063 222.647 183.221C212.398 198.087 196.826 208.416 179.173 212.058C161.519 215.7 143.146 212.374 127.876 202.773C112.489 192.795 100.797 178.024 94.5983 160.733C88.3367 143.127 88.0461 123.942 93.7715 106.154C96.6328 97.2096 100.977 88.8129 106.621 81.3166C112.16 74.074 118.636 67.6034 125.878 62.0757C140.432 51.0245 157.676 44.0922 175.812 42.002C193.948 39.9118 212.311 42.7404 228.986 50.1926C245.222 57.6287 259.41 68.9153 270.325 83.0783C280.897 96.4872 288.59 111.942 292.924 128.474C297.258 145.005 298.137 162.256 295.508 179.145C293.133 194.872 287.609 209.955 279.267 223.485C270.925 237.015 259.938 248.711 246.968 257.87C221.235 275.142 191.849 280.876 169.422 283.985C148.069 286.531 126.573 287.685 105.071 287.44H101.626C83.5056 287.44 67.8655 286.749 54.0513 286.265H49.7106C21.4621 285.16 4.92636 284.987 4.92636 284.987L3.03157 284.711Z" fill="#25262A" fill-opacity="0.9"/>
</g>
<defs>
<clipPath id="clip0_576_92">
<rect width="321" height="312" fill="white"/>
</clipPath>
</defs>
</svg>
